SplineFontDB: 3.2
FontName: tigger
FullName: tigger-regular Bold
FamilyName: tigger
Weight: Bold
Copyright: (c) 2025 Tadhg O'Brien
Version: 2025.12
ItalicAngle: 0
UnderlinePosition: -150
UnderlineWidth: 50
Ascent: 800
Descent: 200
InvalidEm: 0
LayerCount: 2
Layer: 0 1 "Back" 1
Layer: 1 1 "Fore" 0
XUID: [1021 796 -163880829 13004990]
StyleMap: 0x0040
FSType: 0
OS2Version: 1
OS2_WeightWidthSlopeOnly: 0
OS2_UseTypoMetrics: 0
CreationTime: 1280473793
ModificationTime: 1736899174
PfmFamily: 17
TTFWeight: 700
TTFWidth: 5
LineGap: 90
VLineGap: 0
Panose: 2 0 6 3 0 0 0 0 0 0
OS2TypoAscent: 800
OS2TypoAOffset: 0
OS2TypoDescent: -200
OS2TypoDOffset: 0
OS2TypoLinegap: 90
OS2WinAscent: 843
OS2WinAOffset: 0
OS2WinDescent: 347
OS2WinDOffset: 0
HheadAscent: 843
HheadAOffset: 0
HheadDescent: -347
HheadDOffset: 0
OS2SubXSize: 650
OS2SubYSize: 700
OS2SubXOff: 0
OS2SubYOff: 140
OS2SupXSize: 650
OS2SupYSize: 700
OS2SupXOff: 0
OS2SupYOff: 480
OS2StrikeYSize: 49
OS2StrikeYPos: 258
OS2Vendor: '2ttf'
OS2CodePages: 00000001.00000000
OS2UnicodeRanges: a00000af.00010042.00000000.00000000
Lookup: 1 0 0 "'rtla' Right to Left Alternates lookup 0" { "'rtla' Right to Left Alternates lookup 0 subtable"  } ['rtla' ('DFLT' <'dflt' > ) ]
Lookup: 258 0 0 "'kern' Horizontal Kerning in Latin lookup 0" { "'kern' Horizontal Kerning in Latin lookup 0 subtable" [150,15,0] } ['kern' ('DFLT' <'dflt' > 'latn' <'dflt' > ) ]
MarkAttachClasses: 1
DEI: 91125
TtTable: prep
PUSHW_1
 511
SCANCTRL
PUSHB_1
 1
SCANTYPE
SVTCA[y-axis]
MPPEM
PUSHB_1
 8
LT
IF
PUSHB_2
 1
 1
INSTCTRL
EIF
PUSHB_2
 70
 6
CALL
IF
POP
PUSHB_1
 16
EIF
MPPEM
PUSHB_1
 20
GT
IF
POP
PUSHB_1
 128
EIF
SCVTCI
PUSHB_1
 6
CALL
NOT
IF
EIF
PUSHB_1
 20
CALL
EndTTInstrs
TtTable: fpgm
PUSHB_1
 0
FDEF
PUSHB_1
 0
SZP0
MPPEM
PUSHB_1
 42
LT
IF
PUSHB_1
 74
SROUND
EIF
PUSHB_1
 0
SWAP
MIAP[rnd]
RTG
PUSHB_1
 6
CALL
IF
RTDG
EIF
MPPEM
PUSHB_1
 42
LT
IF
RDTG
EIF
DUP
MDRP[rp0,rnd,grey]
PUSHB_1
 1
SZP0
MDAP[no-rnd]
RTG
ENDF
PUSHB_1
 1
FDEF
DUP
MDRP[rp0,min,white]
PUSHB_1
 12

StartChar: .notdef
Encoding: 65536 -1 0
Width: 500
GlyphClass: 1
Flags: HW
LayerCount: 2
Fore
SplineSet
150 433 m 1
 150 100 l 1
 350 100 l 1
 350 433 l 1
 150 433 l 1
0 -50 m 1
 0 583 l 1
 500 583 l 1
 500 -50 l 1
 0 -50 l 1
EndSplineSet
EndChar

StartChar: exclam
Encoding: 33 33 4
AltUni2: 002762.ffffffff.0 00fe15.ffffffff.0 00fe57.ffffffff.0 00ff01.ffffffff.0 002762.ffffffff.0 00fe15.ffffffff.0 00fe57.ffffffff.0 00ff01.ffffffff.0
Width: 176
GlyphClass: 1
Flags: HW
LayerCount: 2
Fore
SplineSet
84.8587105624 165.925925926 m 0,0,1
 91.1967706384 165.925925926 91.1967706384 165.925925926 97.6013504753 164.970869356 c 0,2,3
 116.497298109 164.657918728 116.497298109 164.657918728 130.31210225 157.750516658 c 0,4,5
 158.729065436 143.542035065 158.729065436 143.542035065 180.735847004 123.107166466 c 1,6,-1
 183.062087671 120.199365631 l 2,7,8
 209.058823529 87.7034458088 209.058823529 87.7034458088 209.058823529 52.2387543253 c 0,9,10
 209.058823529 11.1565242972 209.058823529 11.1565242972 182.988855873 -18.0734394388 c 0,11,12
 165.145656795 -38.0794505261 165.145656795 -38.0794505261 137.130112963 -48.6122972579 c 0,13,14
 105.83980241 -56.9177116093 105.83980241 -56.9177116093 96.9529983744 -56.9177116093 c 0,15,16
 69.1666972275 -56.9177116093 69.1666972275 -56.9177116093 47.4694631171 -45.5197981289 c 0,17,18
 24.5723751664 -33.4915817172 24.5723751664 -33.4915817172 11.3676508574 -13.6844952537 c 0,19,20
 -6.6 13.2669810324 -6.6 13.2669810324 -6.6 46 c 0,21,22
 -6.6 83.0774625249 -6.6 83.0774625249 14.0740281901 121.890112625 c 0,23,24
 23.5246595013 139.216270029 23.5246595013 139.216270029 37.8023473848 150.134069466 c 0,25,26
 58.4540546202 165.925925926 58.4540546202 165.925925926 84.8587105624 165.925925926 c 0,0,1
190 207 m 0,27,28
 190 173.3031875 190 173.3031875 165.84840625 149.15159375 c 128,-1,29
 141.6968125 125 141.6968125 125 107.5 125 c 128,-1,30
 73.3031875 125 73.3031875 125 49.15159375 149.15159375 c 128,-1,31
 25 173.3031875 25 173.3031875 25 207 c 0,32,33
 25 392.418452758 25 392.418452758 51.2142649764 648.678469159 c 0,34,35
 54.0521481193 681.102569973 54.0521481193 681.102569973 77.5305183937 702.233103168 c 128,-1,36
 101.008888668 723.363636364 101.008888668 723.363636364 131.041322314 723.363636364 c 0,37,38
 137.046196686 723.363636364 137.046196686 723.363636364 143.121636138 722.495716442 c 0,39,40
 177.340389618 717.607323088 177.340389618 717.607323088 197.794222911 690.76166689 c 0,41,42
 215.111111111 668.033251127 215.111111111 668.033251127 215.111111111 639.858024691 c 0,43,44
 215.111111111 636.082796772 215.111111111 636.082796772 214.757764246 632.051864834 c 0,45,46
 190 380.5129801 190 380.5129801 190 207 c 0,27,28
EndSplineSet
EndChar

StartChar: quotedbl
Encoding: 34 34 5
AltUni2: 0002ba.ffffffff.0 00030b.ffffffff.0 00030e.ffffffff.0 00201c.ffffffff.0 00201d.ffffffff.0 00ff02.ffffffff.0 0002ba.ffffffff.0 00030b.ffffffff.0 00030e.ffffffff.0 00201c.ffffffff.0 00201d.ffffffff.0 00ff02.ffffffff.0
Width: 292
GlyphClass: 1
Flags: W
HStem: 436.25 413.083<174.745 274.877> 449.667 396.725<27.4372 119.924>
VStem: 120.4 31.0359<563.871 677.933>
LayerCount: 2
Fore
SplineSet
151.435897436 594.754766601 m 0,0,1
 151.435897436 571.135113498 151.435897436 571.135113498 152.884615385 556.60388099 c 128,-1,2
 154.333333333 542.072648481 154.333333333 542.072648481 154.333333333 536.763888889 c 0,3,4
 154.333333333 506.389691446 154.333333333 506.389691446 135.062087671 482.300634369 c 0,5,6
 122.046919459 466.031674103 122.046919459 466.031674103 106.141131347 458.741521219 c 0,7,8
 86.3414524424 449.666668387 86.3414524424 449.666668387 64.7777777778 449.666666667 c 0,9,10
 33.9104193472 449.666666667 33.9104193472 449.666666667 10.0214374331 469.574151595 c 0,11,12
 -17.5432076444 492.54468916 -17.5432076444 492.54468916 -21.3716038222 526.998456837 c 128,-1,13
 -25.2 561.452224514 -25.2 561.452224514 -25.2 594.835555556 c 0,14,15
 -25.2 685.797485036 -25.2 685.797485036 0.640926384754 780.748845805 c 0,16,17
 10.1605947367 817.776173585 10.1605947367 817.776173585 43.4408293155 835.604870681 c 0,18,19
 63.5755054934 846.391304348 63.5755054934 846.391304348 86.1115311909 846.391304348 c 0,20,21
 100.970432359 846.391304348 100.970432359 846.391304348 112.803060966 842.447094812 c 0,22,23
 146.258069647 831.295425252 146.258069647 831.295425252 163.239321772 800.729171427 c 0,24,25
 174.391304348 780.655602791 174.391304348 780.655602791 174.391304348 757.827977316 c 0,26,27
 174.391304348 744.888184317 174.391304348 744.888184317 171.101404755 733.316813335 c 0,28,29
 151.435897436 664.148477247 151.435897436 664.148477247 151.435897436 594.754766601 c 0,0,1
296.833333333 611.12345679 m 0,30,31
 296.833333333 575.44469237 296.833333333 575.44469237 303.995793889 543.043085093 c 0,32,33
 305.782608696 533.513406125 305.782608696 533.513406125 305.782608696 524.856332703 c 0,34,35
 305.782608696 498.71813341 305.782608696 498.71813341 291.378910043 476.688947235 c 0,36,37
 272.118002439 447.231088547 272.118002439 447.231088547 235.712635494 438.129746811 c 0,38,39
 225.687319169 436.25 225.687319169 436.25 217.1875 436.25 c 0,40,41
 190.13855768 436.25 190.13855768 436.25 167.58784145 451.862034313 c 0,42,43
 138.135826935 472.251890516 138.135826935 472.251890516 131.052295015 506.752596701 c 0,44,45
 120.4 556.607400403 120.4 556.607400403 120.4 611.24 c 0,46,47
 120.4 691.717714003 120.4 691.717714003 143.488789033 782.148804382 c 0,48,49
 147.327795344 797.504829626 147.327795344 797.504829626 156.976975104 812.108993588 c 128,-1,50
 166.626154864 826.713157549 166.626154864 826.713157549 185.711928182 838.023245441 c 128,-1,51
 204.7977015 849.333333333 204.7977015 849.333333333 228.611111111 849.333333333 c 0,52,53
 243.144345403 849.333333333 243.144345403 849.333333333 254.803060966 845.447094812 c 0,54,55
 286.310898402 834.944482334 286.310898402 834.944482334 304.378910043 807.311052765 c 0,56,57
 318.28 786.050562242 318.28 786.050562242 318.28 760.9328 c 0,58,59
 318.28 749.536320591 318.28 749.536320591 315.297958476 738.028225904 c 0,60,61
 296.833333333 669.205532191 296.833333333 669.205532191 296.833333333 611.12345679 c 0,30,31
EndSplineSet
EndChar

StartChar: numbersign
Encoding: 35 35 6
AltUni2: 00fe5f.ffffffff.0 00ff03.ffffffff.0 00fe5f.ffffffff.0 00ff03.ffffffff.0
Width: 731
GlyphClass: 1
Flags: HW
LayerCount: 2
Fore
SplineSet
410.784781701 318.21040855 m 1,0,1
 409.988017864 339.778958596 409.988017864 339.778958596 409.18564697 366.913896694 c 1,2,3
 371.834243666 364.751420917 371.834243666 364.751420917 349.059364975 363.73750327 c 1,4,5
 347.01290365 341.23935251 347.01290365 341.23935251 345.996961281 316.52633985 c 1,6,7
 375.058715521 317.079893102 375.058715521 317.079893102 410.784781701 318.21040855 c 1,0,1
182.925818076 357.833924102 m 1,8,9
 80.1798705058 355.904640453 80.1798705058 355.904640453 52.5555555556 355.904761905 c 0,10,11
 20.3984255952 355.904761905 20.3984255952 355.904761905 -2.57436425344 378.877551753 c 128,-1,12
 -25.5471541021 401.850341602 -25.5471541021 401.850341602 -28 436.190184172 c 1,13,-1
 -28 438 l 2,14,15
 -28 470.909571071 -28 470.909571071 -5.46095811515 494.70078195 c 128,-1,16
 17.0780837697 518.491992828 17.0780837697 518.491992828 51.9968971761 520.986193786 c 1,17,-1
 53.6111359338 520.998516219 l 2,18,19
 143.701620555 521.686229842 143.701620555 521.686229842 200.273763596 523.337177983 c 1,20,21
 207.27518856 583.178419492 207.27518856 583.178419492 211.63759428 623.491074456 c 128,-1,22
 216 663.803729421 216 663.803729421 216 697.25027096 c 128,-1,23
 216 730.6968125 216 730.6968125 239.65159375 754.34840625 c 128,-1,24
 263.3031875 778 263.3031875 778 298 778 c 128,-1,25
 332.6968125 778 332.6968125 778 356.84840625 753.84840625 c 128,-1,26
 381 729.6968125 381 729.6968125 381 696 c 0,27,28
 381 654.342141822 381 654.342141822 374.565700699 593.216298465 c 0,29,30
 373.645433856 587.694697407 373.645433856 587.694697407 372.17185807 570.5029799 c 128,-1,31
 370.698282284 553.311262394 370.698282284 553.311262394 369.227751859 544.084560266 c 128,-1,32
 367.757221434 534.857858138 367.757221434 534.857858138 367.19045388 529.876708048 c 1,33,34
 386.357966269 530.867985208 386.357966269 530.867985208 411.802041884 532.30289789 c 1,35,36
 412 543.505291485 412 543.505291485 412 550 c 2,37,-1
 412 550.605844526 l 1,38,39
 414.25 645.105844526 414.25 645.105844526 414.25 667.823309931 c 128,-1,40
 414.25 690.540775336 414.25 690.540775336 414 695.790775336 c 2,41,-1
 414 697 l 2,42,43
 414 731.6968125 414 731.6968125 437.72327315 755.42008565 c 0,44,45
 462.398588705 780.095401205 462.398588705 780.095401205 497.000081555 780.09531965 c 128,-1,46
 531.601574405 780.095238095 531.601574405 780.095238095 554.993031501 756.703780999 c 128,-1,47
 578.384488598 733.312323902 578.384488598 733.312323902 578.987297263 700.386140766 c 0,48,49
 579.25 693.944688937 579.25 693.944688937 579.25 669.104260684 c 128,-1,50
 579.25 644.263832431 579.25 644.263832431 578.12480929 594.886959195 c 128,-1,51
 576.99961858 545.510085959 576.99961858 545.510085959 576.974684387 542.68101473 c 1,52,53
 582.880994939 543.121749481 582.880994939 543.121749481 631.150716187 547.11350632 c 128,-1,54
 679.420437435 551.105263158 679.420437435 551.105263158 682.703601108 551.105263158 c 0,55,56
 712.418242719 551.105263158 712.418242719 551.105263158 736.122201177 530.956898468 c 128,-1,57
 759.826159636 510.808533778 759.826159636 510.808533778 764.745452085 476.373486635 c 0,58,59
 765.1 471.409815828 765.1 471.409815828 765.1 468.24 c 0,60,61
 765.1 436.827070486 765.1 436.827070486 743.493560541 412.819915532 c 128,-1,62
 721.887121082 388.812760577 721.887121082 388.812760577 689.167337504 386.171264575 c 0,63,64
 625.831251495 380.724117452 625.831251495 380.724117452 574 377.119364812 c 1,65,-1
 574 374.749139693 l 2,66,67
 574.780415245 348.292498992 574.780415245 348.292498992 575.569809846 327.010550626 c 1,68,69
 639.607821175 332.362218556 639.607821175 332.362218556 663.428124166 334.863022016 c 128,-1,70
 687.248427158 337.363825475 687.248427158 337.363825475 689.958677686 337.363636364 c 0,71,72
 719.991111332 337.363636364 719.991111332 337.363636364 743.656396453 316.064879754 c 0,73,74
 770.111111111 292.255636562 770.111111111 292.255636562 770.111111111 255.141975309 c 0,75,76
 770.111111111 226.966748873 770.111111111 226.966748873 752.794222911 204.23833311 c 0,77,78
 732.529632797 177.641058585 732.529632797 177.641058585 698.542884676 172.412328105 c 1,79,80
 646.666807972 166.804103596 646.666807972 166.804103596 590.921432874 162.711613144 c 1,81,82
 603.483075901 97.447329419 603.483075901 97.447329419 622.748600482 71.3279867738 c 0,83,84
 639.4 49.8660252488 639.4 49.8660252488 639.4 22.76 c 0,85,86
 639.4 1.17650980138 639.4 1.17650980138 630.036970354 -16.0757392681 c 128,-1,87
 620.673940709 -33.3279883375 620.673940709 -33.3279883375 605.363886313 -44.4625733523 c 0,88,89
 582.986766778 -60.7368421053 582.986766778 -60.7368421053 556.055401662 -60.7368421053 c 0,90,91
 535.467514542 -60.7368421053 535.467514542 -60.7368421053 518.763055951 -51.8679800697 c 128,-1,92
 502.05859736 -42.9991180342 502.05859736 -42.9991180342 490.845780737 -27.7850560539 c 0,93,94
 444.143670271 34.3015075272 444.143670271 34.3015075272 425.188434566 153.48611167 c 1,95,96
 387.408773866 152.27648113 387.408773866 152.27648113 356.402298881 151.656750599 c 1,97,98
 368.1759101 104.557087596 368.1759101 104.557087596 390.062087671 77.1993656312 c 0,99,100
 407.736842105 55.105922589 407.736842105 55.105922589 407.736842105 26.3213296399 c 0,101,102
 407.736842105 -14.6321064923 407.736842105 -14.6321064923 377.199365631 -39.0620876715 c 0,103,104
 355.105922589 -56.7368421053 355.105922589 -56.7368421053 326.32132964 -56.7368421053 c 0,105,106
 285.368010784 -56.7368421053 285.368010784 -56.7368421053 260.878029372 -26.1243653402 c 0,107,108
 206.674383757 41.895895824 206.674383757 41.895895824 188.714202166 150 c 1,109,-1
 178 150 l 2,110,111
 86.6694799192 150 86.6694799192 150 49.3375068602 149.017579656 c 2,112,-1
 48 149 l 2,113,114
 15.0502936061 149 15.0502936061 149 -9.97485319697 172.773889463 c 128,-1,115
 -35 196.547778926 -35 196.547778926 -35 231.122295713 c 128,-1,116
 -35 265.6968125 -35 265.6968125 -11.0365803273 289.660232173 c 128,-1,117
 12.9268393454 313.623651845 12.9268393454 313.623651845 48.9150986595 314.311825923 c 128,-1,118
 84.9033579737 315 84.9033579737 315 178 315 c 2,119,-1
 180.80565659 315 l 1,120,121
 181.535033063 336.985620567 181.535033063 336.985620567 182.925818076 357.833924102 c 1,8,9
EndSplineSet
EndChar

StartChar: dollar
Encoding: 36 36 7
AltUni2: 00fe69.ffffffff.0 00ff04.ffffffff.0 00fe69.ffffffff.0 00ff04.ffffffff.0
Width: 735
GlyphClass: 1
Flags: HW
LayerCount: 2
Fore
SplineSet
488.590504451 187.073242188 m 1,0,1
 533.976261128 216.060546875 533.976261128 216.060546875 533.976261128 241 c 0,2,3
 533.976261128 263.295898438 533.976261128 263.295898438 524.345717614 277.408203125 c 0,4,5
 513.733757766 288.474609375 513.733757766 288.474609375 489.887240356 293.307617188 c 1,6,-1
 489.887240356 274 l 2,7,8
 489.887240356 237.9765625 489.887240356 237.9765625 488.590504451 222.293945312 c 1,9,-1
 488.590504451 187.073242188 l 1,0,1
275.995464925 481.518554688 m 1,10,11
 268.014967197 475.740234375 268.014967197 475.740234375 261.954246453 470.000976562 c 1,12,13
 268.859618416 470.000976562 268.859618416 470.000976562 275.925816024 470.108398438 c 1,14,15
 275.925816024 477.587890625 275.925816024 477.587890625 275.995464925 481.518554688 c 1,10,11
724 254.958007812 m 1,16,17
 724 260.0234375 724 260.0234375 724 254.115234375 c 1,18,19
 724 256.375 724 256.375 724 246.883789062 c 2,20,21
 724 192.23828125 724 192.23828125 688.396484375 143.359375 c 0,22,23
 660.5234375 101.184570312 660.5234375 101.184570312 609.586914062 66.5107421875 c 0,24,25
 551.256786675 33.18359375 551.256786675 33.18359375 482.93248099 13.92578125 c 1,26,27
 478.726953705 -52.3759765625 478.726953705 -52.3759765625 470.182933049 -107.028320312 c 0,28,29
 466.710618741 -138.41796875 466.710618741 -138.41796875 436.096760826 -158.633789062 c 0,30,31
 405.481636568 -181 405.481636568 -181 365.400593472 -181 c 0,32,33
 341.308405392 -181 341.308405392 -181 318.070999281 -172.70703125 c 128,-1,34
 294.83359317 -164.413085938 294.83359317 -164.413085938 278.188772139 -145.2578125 c 0,35,36
 256.474777448 -123.938476562 256.474777448 -123.938476562 256.474777448 -99.2275390625 c 2,37,38
 256.474777448 -57.408203125 256.474777448 -57.408203125 256.474777448 -95.6357421875 c 1,39,40
 256.474777448 -54.77734375 256.474777448 -54.77734375 256.474777448 -93.3671875 c 1,41,42
 262.074549101 -54.587890625 262.074549101 -54.587890625 266.166105457 -5.265625 c 1,43,44
 199.186656737 -1.583984375 199.186656737 -1.583984375 117.155273438 12.099609375 c 0,45,46
 83.478515625 18.1484375 83.478515625 18.1484375 62.9765625 42.6962890625 c 2,47,48
 62.2001953125 69.2626953125 62.2001953125 69.2626953125 61.4228515625 44.5556640625 c 1,49,50
 47 66.142578125 47 66.142578125 47 88.45703125 c 0,51,52
 47 94.7353515625 47 94.7353515625 48.970703125 103.583984375 c 0,53,54
 56.0107421875 135.192382812 56.0107421875 135.192382812 86.3154296875 153.681640625 c 0,55,56
 107.8671875 166.583984375 107.8671875 166.583984375 134 166.583984375 c 0,57,58
 142.639648438 166.583984375 142.639648438 166.583984375 151.655273438 164.674804688 c 0,59,60
 220.756288251 154.862304688 220.756288251 154.862304688 273.780629868 151.7421875 c 1,61,62
 274.629080119 185.97265625 274.629080119 185.97265625 274.629080119 230.342773438 c 2,63,-1
 274.629080119 295.075195312 l 1,64,65
 271.622780276 295 271.622780276 295 269.442136499 295 c 0,66,67
 157.194335938 295 157.194335938 295 112.828125 324.329101562 c 0,68,69
 55 361.491210938 55 361.491210938 55 434.421875 c 0,70,71
 55 498.895507812 55 498.895507812 105.115234375 552.850585938 c 1,72,73
 105.380859375 528.659179688 105.380859375 528.659179688 105.647460938 553.33203125 c 1,74,75
 149.458007812 602.544921875 149.458007812 602.544921875 240.862026498 635.302734375 c 0,76,77
 262.117604785 642.7109375 262.117604785 642.7109375 287.866170368 650.258789062 c 1,78,79
 288.893175074 673.142578125 288.893175074 673.142578125 288.893175074 689.8125 c 128,-1,80
 288.893175074 706.481445312 288.893175074 706.481445312 288.244807122 714.176757812 c 128,-1,81
 287.596439169 721.872070312 287.596439169 721.872070312 287.596439169 724.12890625 c 0,82,83
 287.596439169 750.802734375 287.596439169 750.802734375 311.283397278 773.17578125 c 0,84,85
 328.024460427 790.643554688 328.024460427 790.643554688 353.139854182 798.817382812 c 0,86,87
 372.137541728 805 372.137541728 805 393.928783383 805 c 0,88,89
 436.655218379 805 436.655218379 805 468.194773507 781.89453125 c 0,90,91
 499.734328635 761.008789062 499.734328635 761.008789062 502.854599407 728.379882812 c 1,92,93
 502.854599407 687.637695312 502.854599407 687.637695312 502.854599407 726.852539062 c 1,94,95
 502.854599407 672.241210938 502.854599407 672.241210938 502.854599407 694.3125 c 1,96,97
 502.854599407 652.134765625 502.854599407 652.134765625 502.854599407 682.364257812 c 1,98,99
 538.243839253 681.436523438 538.243839253 681.436523438 566.464307655 675.8515625 c 0,100,101
 611.182617188 668.744140625 611.182617188 668.744140625 629.03515625 641.395507812 c 0,102,103
 642 621.796875 642 621.796875 642 602.56640625 c 0,104,105
 642 589.388671875 642 589.388671875 638.104492188 578.638671875 c 0,106,107
 629.705078125 548.060546875 629.705078125 548.060546875 599.368981245 532.46875 c 0,108,109
 571.199166589 520.764648438 571.199166589 520.764648438 540.459940653 520.764648438 c 0,110,111
 525.446170252 520.764648438 525.446170252 520.764648438 510.904746036 524.409179688 c 0,112,113
 504.236180337 525.202148438 504.236180337 525.202148438 495.476881259 525.276367188 c 1,114,115
 494.661355944 513.55078125 494.661355944 513.55078125 493.335494135 498.53515625 c 128,-1,116
 492.010898669 483.51953125 492.010898669 483.51953125 491.454973804 455.348632812 c 1,117,118
 556.571631004 448.706054688 556.571631004 448.706054688 605.106445312 432.049804688 c 0,119,120
 668.283203125 403.825195312 668.283203125 403.825195312 698.5625 350.5 c 0,121,122
 721.78125 309.608398438 721.78125 309.608398438 724 254.958007812 c 1,16,17
EndSplineSet
EndChar

StartChar: percent
Encoding: 37 37 8
AltUni2: 00066a.ffffffff.0 00fe6a.ffffffff.0 00ff05.ffffffff.0 00066a.ffffffff.0 00fe6a.ffffffff.0 00ff05.ffffffff.0
Width: 871
GlyphClass: 1
Flags: HW
LayerCount: 2
Fore
SplineSet
615.869380198 91.6201171875 m 1,0,1
 615.43647065 90.0390625 615.43647065 90.0390625 615.129777238 88.486328125 c 1,2,3
 615.524939904 90.0224609375 615.524939904 90.0224609375 615.869380198 91.6201171875 c 1,0,1
553.325156737 332.616210938 m 0,4,5
 586.770073334 343.04296875 586.770073334 343.04296875 596.333009843 343.04296875 c 0,6,7
 600.80483571 343.04296875 600.80483571 343.04296875 605.473653115 342.783203125 c 0,8,9
 634.60009055 356 634.60009055 356 668.297439417 356 c 128,-1,10
 701.995967873 356 701.995967873 356 732.069616116 341.591796875 c 0,11,12
 752.083984375 330.798828125 752.083984375 330.798828125 766.783203125 312.546875 c 0,13,14
 813 256.50390625 813 256.50390625 813 167 c 0,15,16
 813 109.021484375 813 109.021484375 792.19921875 59.853515625 c 0,17,18
 775.9375 19.9638671875 775.9375 19.9638671875 749.604492188 -6.1650390625 c 0,19,20
 709.058173483 -41.1142578125 709.058173483 -41.1142578125 648.671420218 -49.298828125 c 0,21,22
 623.180479307 -53 623.180479307 -53 602.299376299 -53 c 0,23,24
 525.359435908 -53 525.359435908 -53 471.121885557 -8.09765625 c 0,25,26
 411.451143451 42.71484375 411.451143451 42.71484375 411.451143451 127 c 2,27,28
 411.451143451 178.5 411.451143451 178.5 411.451143451 130 c 2,29,30
 411.451143451 189.8359375 411.451143451 189.8359375 449.49882041 247.1640625 c 128,-1,31
 487.546497369 304.493164062 487.546497369 304.493164062 553.325156737 332.616210938 c 0,4,5
224.588745371 512.813476562 m 1,32,33
 225.421535944 512.900390625 225.421535944 512.900390625 226.273199958 513.001953125 c 0,34,35
 230.071479908 519.174804688 230.071479908 519.174804688 231.179114962 533.880859375 c 1,36,37
 225.810800659 522.78515625 225.810800659 522.78515625 224.588745371 512.813476562 c 1,32,33
72.5556640625 593.51953125 m 0,38,39
 107.12890625 646.147460938 107.12890625 646.147460938 163.405768825 672.15234375 c 0,40,41
 173.839242788 677.649414062 173.839242788 677.649414062 186.046820183 681.325195312 c 128,-1,42
 198.254397577 685 198.254397577 685 207.761893354 685 c 128,-1,43
 217.269389131 685 217.269389131 685 222.04554923 684.625 c 0,44,45
 265.076994137 698.0546875 265.076994137 698.0546875 277.163073756 698.0546875 c 0,46,47
 277.935705236 698.0546875 277.935705236 698.0546875 278.582120582 698 c 0,48,49
 317.592343019 698 317.592343019 698 349.510870095 678.056640625 c 0,50,51
 370.57834833 666.580078125 370.57834833 666.580078125 386.938082689 648.014648438 c 0,52,53
 435.609147609 597.248046875 435.609147609 597.248046875 435.609147609 516.721679688 c 0,54,55
 435.609147609 469.240234375 435.609147609 469.240234375 411.230560112 427.765625 c 0,56,57
 381.322054476 378.521484375 381.322054476 378.521484375 321.89312833 355.665039062 c 0,58,59
 275.959891908 338 275.959891908 338 215.771309771 338 c 0,60,61
 140.979492188 338 140.979492188 338 95.1025390625 371.493164062 c 0,62,63
 39 411.530273438 39 411.530273438 39 481.524414062 c 2,64,65
 39 463.978515625 39 463.978515625 39 484.133789062 c 2,66,67
 39 540.985351562 39 540.985351562 72.5556640625 593.51953125 c 0,38,39
709.130128476 679.268554688 m 0,68,69
 738.609263335 706 738.609263335 706 773 706 c 0,70,71
 800.16015625 706 800.16015625 706 821.211914062 689.607421875 c 0,72,73
 835.012695312 678.860351562 835.012695312 678.860351562 844.25390625 662.131835938 c 0,74,75
 860 639.5546875 860 639.5546875 860 612.758789062 c 0,76,77
 860 590.8359375 860 590.8359375 843.9140625 574.059570312 c 0,78,79
 836.057617188 565.866210938 836.057617188 565.866210938 825.140625 560.002929688 c 0,80,81
 685.261123879 457.650390625 685.261123879 457.650390625 524.002907354 286.997070312 c 0,82,83
 352.998917863 106.5625 352.998917863 106.5625 299.661394718 -19.302734375 c 0,84,85
 290.12205001 -50.412109375 290.12205001 -50.412109375 260.437666483 -68.42578125 c 2,86,87
 259.192019393 -19.28515625 259.192019393 -19.28515625 257.946372304 -70.14453125 c 1,88,89
 229.218636305 -86 229.218636305 -86 203.692307692 -86 c 0,90,91
 187.943600978 -86 187.943600978 -86 166.81596365 -81.0029296875 c 1,92,93
 164.659673044 -30.1689453125 164.659673044 -30.1689453125 162.502202849 -79.3359375 c 2,94,95
 128.747070312 -65.6669921875 128.747070312 -65.6669921875 114.451171875 -32.4716796875 c 0,96,97
 99.1318359375 0.640625 99.1318359375 0.640625 111.166992188 26.73046875 c 0,98,99
 167.192252875 175.409179688 167.192252875 175.409179688 359.260181831 377.137695312 c 0,100,101
 538.313693802 567.314453125 538.313693802 567.314453125 709.130128476 679.268554688 c 0,68,69
EndSplineSet
EndChar

StartChar: ampersand
Encoding: 38 38 9
AltUni2: 00fe60.ffffffff.0 00ff06.ffffffff.0 00fe60.ffffffff.0 00ff06.ffffffff.0
Width: 650
GlyphClass: 1
Flags: HW
LayerCount: 2
Fore
SplineSet
96 456.831633413 m 128,-1,1
 96 503.246244186 96 503.246244186 101.123828528 527.584429693 c 128,-1,2
 106.247657056 551.9226152 106.247657056 551.9226152 122.948498391 587.710132348 c 1,3,4
 157.308222046 656.429579657 157.308222046 656.429579657 222.03154025 716.570716041 c 128,-1,5
 286.754858454 776.711852425 286.754858454 776.711852425 345.444689438 786.939110635 c 0,6,7
 390.749417073 796.007852327 390.749417073 796.007852327 400.4593771 796.007852327 c 0,8,9
 400.745098723 796.007852327 400.745098723 796.007852327 401 796 c 0,10,11
 428.045661958 796 428.045661958 796 461.205744129 779.051513557 c 0,12,13
 500.348372492 759.045281283 500.348372492 759.045281283 514.858055001 723.254731095 c 0,14,15
 526 695.771266764 526 695.771266764 526 641 c 0,16,17
 526 583.76465392 526 583.76465392 475.386872404 486.474975319 c 0,18,19
 430.333112178 399.871636217 430.333112178 399.871636217 350.890899598 296.878668298 c 1,20,21
 374.736498654 273.728580714 374.736498654 273.728580714 412.678456793 240.267956214 c 128,-1,22
 450.620414931 206.807331714 450.620414931 206.807331714 467.063532632 192.760345132 c 1,23,-1
 506.338266843 232.035079343 l 1,24,-1
 624.927066998 111.165725338 l 1,25,-1
 602.557417502 83.5764909608 l 1,26,27
 615.91511607 77.0130063876 615.91511607 77.0130063876 625.638434473 65.9006424985 c 2,28,-1
 638 51.7731390386 l 1,29,-1
 638 -84 l 1,30,-1
 558 -84 l 2,31,32
 510.274692792 -84 510.274692792 -84 467.723191028 -44.2518476893 c 1,33,34
 382.9169889 -112.180540945 382.9169889 -112.180540945 268.180738885 -125.180214592 c 0,35,36
 244.698993028 -127.840707965 244.698993028 -127.840707965 222.610697784 -127.840707965 c 0,37,38
 132.340941758 -127.840707965 132.340941758 -127.840707965 66.4629940767 -83.7314637331 c 0,39,40
 41.727934762 -67.5771545485 41.727934762 -67.5771545485 30.9362865999 -54.3934030155 c 0,41,42
 25.5032906638 -47.7561157888 25.5032906638 -47.7561157888 21.3292565606 -38.8117569961 c 0,43,44
 14 -23.1062072235 14 -23.1062072235 14 20.6059549213 c 128,-1,45
 14 64.3181170661 14 64.3181170661 36.6466486593 122.381607934 c 128,-1,46
 59.2932973187 180.445098803 59.2932973187 180.445098803 111.691903884 254.760893789 c 1,47,-1
 128.975095969 285.294533139 l 1,48,49
 119.513966453 305.672990259 119.513966453 305.672990259 107.756983226 358.04500645 c 128,-1,0
 96 410.41702264 96 410.41702264 96 456.831633413 c 128,-1,1
247 53 m 0,50,51
 285.443710012 53 285.443710012 53 309.856939774 63.7705425421 c 0,52,53
 319.99287854 68.242280233 319.99287854 68.242280233 329.252804688 73.0944964898 c 1,54,-1
 315.279280407 85.2048841999 l 1,55,-1
 314.487490657 85.8911019835 l 1,56,-1
 252.598761781 144.20932727 l 1,57,58
 223.666706914 107.323482321 223.666706914 107.323482321 200.361793609 55.4717582582 c 1,59,60
 220.728711399 53 220.728711399 53 247 53 c 0,50,51
EndSplineSet
EndChar

StartChar: quotesingle
Encoding: 39 39 10
AltUni2: 0002b9.ffffffff.0 0002bc.ffffffff.0 0002c8.ffffffff.0 000374.ffffffff.0 002019.ffffffff.0 002032.ffffffff.0 00ff07.ffffffff.0 0002b9.ffffffff.0 0002bc.ffffffff.0 0002c8.ffffffff.0 000374.ffffffff.0 002019.ffffffff.0 002032.ffffffff.0 00ff07.ffffffff.0
Width: 166
GlyphClass: 1
Flags: W
HStem: 430 404<44.6058 158.844>
VStem: 12.2925 179.707<462.394 800.265>
LayerCount: 2
Fore
SplineSet
100 834 m 128,-1,1
 137.6968125 834 137.6968125 834 163.84840625 807.84840625 c 128,-1,2
 190 781.6968125 190 781.6968125 190 744 c 0,3,4
 190 662.747824516 190 662.747824516 192 633.747824516 c 1,5,-1
 192 520 l 2,6,7
 192 482.951181836 192 482.951181836 166.675521731 456.475590918 c 128,-1,8
 141.351043461 430 141.351043461 430 103 430 c 128,-1,9
 64.6489565389 430 64.6489565389 430 39.4374095195 456.357526429 c 128,-1,10
 14.2258625002 482.715052859 14.2258625002 482.715052859 14.0016857282 519.44775074 c 2,11,-1
 12.2925283132 614.30598727 l 2,12,13
 10 692.251949919 10 692.251949919 10 744 c 0,14,15
 10 781.6968125 10 781.6968125 36.15159375 807.84840625 c 128,-1,0
 62.3031875 834 62.3031875 834 100 834 c 128,-1,1
EndSplineSet
EndChar

StartChar: parenleft
Encoding: 40 40 11
AltUni2: 00207d.ffffffff.0 00208d.ffffffff.0 00fe35.ffffffff.0 00fe59.ffffffff.0 00ff08.ffffffff.0 00207d.ffffffff.0 00208d.ffffffff.0 00fe35.ffffffff.0 00fe59.ffffffff.0 00ff08.ffffffff.0
Width: 360
GlyphClass: 1
Flags: HW
LayerCount: 2
Fore
SplineSet
263.183196437 810.332841732 m 0,0,1
 277.108213897 816 277.108213897 816 295.12627965 816 c 128,-1,2
 313.144345403 816 313.144345403 816 331.938630164 809.735238413 c 1,3,-1
 334.002769108 808.832177625 l 2,4,5
 368.15843659 793.889073101 368.15843659 793.889073101 382.980707822 759.659765958 c 0,6,7
 390 743.281417542 390 743.281417542 390 724.857782495 c 128,-1,8
 390 706.434147449 390 706.434147449 381.770663823 687.856964144 c 0,9,10
 366.479783307 653.075133786 366.479783307 653.075133786 330.390157023 638.49582049 c 0,11,12
 295.720425921 624.758757223 295.720425921 624.758757223 266.191354375 562.592290809 c 0,13,14
 231.453049674 489.459017754 231.453049674 489.459017754 215.539664279 376.193157001 c 0,15,16
 204 291.568952292 204 291.568952292 204 208 c 0,17,18
 204 190.409747582 204 190.409747582 204.957819087 173.169004024 c 0,19,20
 207.771966687 79.3640840191 207.771966687 79.3640840191 219.889646712 40.4143982223 c 0,21,22
 247.484173075 -54.4417861493 247.484173075 -54.4417861493 327.332372229 -116.259746785 c 0,23,24
 347.170894489 -131.430381454 347.170894489 -131.430381454 355.585447245 -150.858098845 c 128,-1,25
 364 -170.285816237 364 -170.285816237 364 -190 c 0,26,27
 364 -220.35344756 364 -220.35344756 344.248887898 -244.969451302 c 0,28,29
 329.181894881 -264.338822188 329.181894881 -264.338822188 309.948039322 -272.669411094 c 128,-1,30
 290.714183763 -281 290.714183763 -281 271 -281 c 0,31,32
 239.734239927 -281 239.734239927 -281 215.129028813 -261.32758973 c 0,33,34
 87.5367859219 -163.43936851 87.5367859219 -163.43936851 44.032080111 -11.151311546 c 0,35,36
 20.0000010799 67.8854934352 20.0000010799 67.8854934352 20 211 c 0,37,38
 20 307.591651231 20 307.591651231 33.5042835581 402.121636138 c 0,39,40
 53.5448021642 542.405266381 53.5448021642 542.405266381 97.7048412969 637.187789397 c 0,41,42
 159.034206648 767.946624957 159.034206648 767.946624957 263.183196437 810.332841732 c 0,0,1
EndSplineSet
Substitution2: "'rtla' Right to Left Alternates lookup 0 subtable" parenright
EndChar

StartChar: parenright
Encoding: 41 41 12
AltUni2: 00207e.ffffffff.0 00208e.ffffffff.0 00fe36.ffffffff.0 00fe5a.ffffffff.0 00ff09.ffffffff.0 00207e.ffffffff.0 00208e.ffffffff.0 00fe36.ffffffff.0 00fe5a.ffffffff.0 00ff09.ffffffff.0
Width: 323
GlyphClass: 1
Flags: HW
LayerCount: 2
Fore
SplineSet
22.2182127932 764.138106958 m 0,0,1
 32.6950675954 787.159616853 32.6950675954 787.159616853 55.2322706647 802.579808426 c 128,-1,2
 77.7694737339 818 77.7694737339 818 102.35315036 818 c 0,3,4
 154.368231555 818 154.368231555 818 182.318989351 777.148892453 c 0,5,6
 240.073950365 692.579128111 240.073950365 692.579128111 277.730380298 619.358292129 c 1,7,8
 322.723206366 527.230124466 322.723206366 527.230124466 342.029379706 432.844388138 c 0,9,10
 352 382.991286668 352 382.991286668 352 311 c 0,11,12
 352 192.138039019 352 192.138039019 329.062584175 74.3231304632 c 0,13,14
 276.177296859 -194.911059506 276.177296859 -194.911059506 136.927640822 -302.282411549 c 1,15,16
 95.6694830178 -322.129229544 95.6694830178 -322.129229544 83.7351027879 -322.129229544 c 0,17,18
 82.7720827297 -322.129229544 82.7720827297 -322.129229544 82 -322 c 0,19,20
 62.4585371314 -322 62.4585371314 -322 45.6785496447 -315.203043043 c 0,21,22
 23.7084579445 -306.303765393 23.7084579445 -306.303765393 8.77480143855 -287.006163794 c 0,23,24
 -12 -261.385992548 -12 -261.385992548 -12 -230 c 0,25,26
 -12 -210.285816237 -12 -210.285816237 -3.58546942929 -190.858150066 c 128,-1,27
 4.82906114142 -171.430483895 4.82906114142 -171.430483895 24.72641244 -156.214862314 c 0,28,29
 110.482262502 -90.8366399896 110.482262502 -90.8366399896 148.996144785 109.985746202 c 1,30,31
 169 203.337070538 169 203.337070538 169 312 c 0,32,33
 169 361.908934448 169 361.908934448 161.970620294 396.155611862 c 0,34,35
 148.248082921 464.76829873 148.248082921 464.76829873 113.098934785 535.991572584 c 0,36,37
 85.6524898483 591.830891592 85.6524898483 591.830891592 29.7064033729 674.811890008 c 0,38,39
 14 697.549649927 14 697.549649927 14 725 c 0,40,41
 14 746.079665689 14 746.079665689 22.2182127932 764.138106958 c 0,0,1
EndSplineSet
Substitution2: "'rtla' Right to Left Alternates lookup 0 subtable" parenleft
EndChar

StartChar: asterisk
Encoding: 42 42 13
AltUni2: 002217.ffffffff.0 002731.ffffffff.0 00fe61.ffffffff.0 00ff0a.ffffffff.0 002217.ffffffff.0 002731.ffffffff.0 00fe61.ffffffff.0 00ff0a.ffffffff.0
Width: 503
GlyphClass: 1
Flags: HW
LayerCount: 2
Fore
SplineSet
424.534245483 292.165801235 m 0,0,1
 410.758775524 287 410.758775524 287 391.472819979 287 c 128,-1,2
 372.186864435 287 372.186864435 287 351.68789775 297.249483342 c 0,3,4
 307.786635708 319.200114364 307.786635708 319.200114364 253.634194779 369.529417304 c 1,5,6
 233.760002272 343.692848551 233.760002272 343.692848551 219.967685509 325.486990345 c 128,-1,7
 206.175368746 307.281132139 206.175368746 307.281132139 183.713212732 298.015492783 c 0,8,9
 166.7059575 291 166.7059575 291 147 291 c 0,10,11
 117.750075327 291 117.750075327 291 93.1475964927 308.89271188 c 0,12,13
 72.8291055108 324.430381454 72.8291055108 324.430381454 64.4145527554 343.858098845 c 128,-1,14
 56 363.285816237 56 363.285816237 56 382.563528512 c 128,-1,15
 56 401.841240787 56 401.841240787 63.8846521036 419.480841644 c 1,16,17
 47.1907575323 426.160774978 47.1907575323 426.160774978 34.4173266368 438.401979587 c 0,18,19
 7 464.676917614 7 464.676917614 7 504 c 2,20,-1
 7 507 l 2,21,22
 7 542.076259882 7 542.076259882 32.4019795866 568.582673363 c 0,23,24
 44.9210982327 581.646101516 44.9210982327 581.646101516 62.1264132963 589.093276762 c 1,25,26
 51.6654097562 603.959731054 51.6654097562 603.959731054 46.2831097321 613.006813431 c 0,27,28
 32 635.918476925 32 635.918476925 32 659.570633172 c 128,-1,29
 32 683.22278942 32 683.22278942 40.9838096129 701.639599126 c 0,30,31
 52.4907956299 725.228920461 52.4907956299 725.228920461 76.5128851646 739.030318947 c 1,32,33
 112.583437749 753.06109404 112.583437749 753.06109404 122.768542985 753.06109404 c 0,34,35
 151.994449399 753.06109404 151.994449399 753.06109404 174.518467301 738.430108052 c 0,36,37
 191.384437692 727.474434978 191.384437692 727.474434978 201.817209468 709.831460703 c 0,38,39
 216.146253679 687.043492791 216.146253679 687.043492791 244.549549198 651.470562681 c 1,40,41
 271.764690022 683.461502522 271.764690022 683.461502522 274.115202126 685.812014626 c 128,-1,42
 276.46571423 688.16252673 276.46571423 688.16252673 290.039487878 703.675410899 c 128,-1,43
 303.613261526 719.188295068 303.613261526 719.188295068 307.401930209 723.081382308 c 0,44,45
 334.267841614 753 334.267841614 753 375 753 c 0,46,47
 407.281517663 753 407.281517663 753 435.697419578 730.673219924 c 1,48,49
 468 702.985293848 468 702.985293848 468 660 c 0,50,51
 468 628.010372909 468 628.010372909 447.556965301 603.329990531 c 1,52,53
 465.932202596 597.33030872 465.932202596 597.33030872 481.31210225 589.750516658 c 0,54,55
 514.931788188 572.940673688 514.931788188 572.940673688 527.834198765 538.534245483 c 2,56,-1
 528.535375044 536.664442074 l 1,57,58
 533 521.038254727 533 521.038254727 533 503.874016667 c 128,-1,59
 533 486.709778607 533 486.709778607 522.527400142 467.213158257 c 0,60,61
 506.869447334 435.294292629 506.869447334 435.294292629 475.465020793 422.187806816 c 1,62,63
 486 403.051691679 486 403.051691679 486 380.870310916 c 128,-1,64
 486 358.688930153 486 358.688930153 475.503513139 339.16871243 c 0,65,66
 458.605678654 304.942587155 458.605678654 304.942587155 424.534245483 292.165801235 c 0,0,1
EndSplineSet
EndChar

StartChar: plus
Encoding: 43 43 14
AltUni2: 00207a.ffffffff.0 00208a.ffffffff.0 00fb29.ffffffff.0 00fe62.ffffffff.0 00ff0b.ffffffff.0 00207a.ffffffff.0 00208a.ffffffff.0 00fb29.ffffffff.0 00fe62.ffffffff.0 00ff0b.ffffffff.0
Width: 638
GlyphClass: 1
Flags: W
HStem: 184 176.131<34.2188 85.3264 178.032 242.408> 206 174<419.342 526.756>
VStem: 244 174<92.8789 190.197 379.796 541.745>
LayerCount: 2
Fore
SplineSet
86.2557244185 360.130730926 m 0,0,1
 89.8608686211 360.130730926 89.8608686211 360.130730926 101.579888716 359.065365463 c 128,-1,2
 113.29890881 358 113.29890881 358 133.90622323 358 c 128,-1,3
 154.513537649 358 154.513537649 358 175.047021754 358.91848461 c 0,4,5
 206.124850951 361.151504948 206.124850951 361.151504948 243.576848438 365.086626778 c 1,6,7
 244 384.088317019 244 384.088317019 244 403.798047026 c 128,-1,8
 244 423.507777033 244 423.507777033 243.032378187 439.957347854 c 0,9,10
 242.110214994 482.376854724 242.110214994 482.376854724 235.950634542 525.776612463 c 0,11,12
 234.00000018 533.82509846 234.00000018 533.82509846 234 542 c 0,13,14
 234 570.436200721 234 570.436200721 251.766214221 593.700360758 c 0,15,16
 262.25397603 608.385061436 262.25397603 608.385061436 276.563715295 617.399074079 c 0,17,18
 296.567685195 630 296.567685195 630 323.311891435 630 c 128,-1,19
 350.056097675 630 350.056097675 630 375.351142 610.453829386 c 0,20,21
 400.920155739 590.695955133 400.920155739 590.695955133 407.027248649 556.264486055 c 128,-1,22
 413.134341559 521.833016977 413.134341559 521.833016977 416.975888018 446.781866953 c 0,23,24
 418 426.774095903 418 426.774095903 418 409.288943955 c 128,-1,25
 418 391.803792007 418 391.803792007 417.871709465 379.79600494 c 1,26,27
 430.343230485 380.000110428 430.343230485 380.000110428 443 380 c 2,28,-1
 444.335907531 380 l 1,29,30
 553.778102423 374.239884479 553.778102423 374.239884479 623.827782003 329.553019919 c 1,31,32
 645.278098087 314.411620331 645.278098087 314.411620331 654.139049044 295.12602119 c 128,-1,33
 663 275.84042205 663 275.84042205 663 253.995902896 c 128,-1,34
 663 232.151383743 663 232.151383743 648.949557472 208.73397953 c 1,35,36
 633.411620331 186.721901913 633.411620331 186.721901913 614.12602119 177.860950956 c 128,-1,37
 594.84042205 169 594.84042205 169 575 169 c 0,38,39
 549.720504118 169 549.720504118 169 527.141269931 184.479370301 c 0,40,41
 497.895943728 203.446482988 497.895943728 203.446482988 438.936026359 205.99999908 c 0,42,43
 429.131301103 205.99999908 429.131301103 205.99999908 419.34221639 205.773987125 c 1,44,45
 419.629237635 202.168065872 419.629237635 202.168065872 420.843436178 188.981986728 c 0,46,47
 426.19846072 121.151675861 426.19846072 121.151675861 448.220146158 69.7677431724 c 1,48,49
 453 53.0382547266 453 53.0382547266 453 37.9730729348 c 0,50,51
 453 20.7185824582 453 20.7185824582 445.980707822 4.3402340425 c 0,52,53
 432.084425263 -28.0844252625 432.084425263 -28.0844252625 399.659765958 -41.9807078219 c 0,54,55
 383.281417542 -49 383.281417542 -49 366 -49 c 128,-1,56
 348.718582458 -49 348.718582458 -49 331.370042101 -41.5649112753 c 128,-1,57
 314.021501743 -34.1298225506 314.021501743 -34.1298225506 302.688253288 -21.0834086321 c 128,-1,58
 291.355004834 -8.03699471359 291.355004834 -8.03699471359 285.459725552 6.70120349261 c 0,59,60
 253.764505086 87.1583015966 253.764505086 87.1583015966 245.54831643 190.497984328 c 1,61,62
 197.005418804 185.581116265 197.005418804 185.581116265 178.032023624 184.790558132 c 128,-1,63
 159.058628444 184 159.058628444 184 132.56276824 184 c 128,-1,64
 106.066908036 184 106.066908036 184 85.3264293842 185.634782326 c 128,-1,65
 64.585950732 187.269564651 64.585950732 187.269564651 48.8548536547 194.497365914 c 128,-1,66
 33.1237565775 201.725167177 33.1237565775 201.725167177 20.604218197 217.722355108 c 0,67,68
 1 242.772189471 1 242.772189471 1 273 c 0,69,70
 1 290.651315154 1 290.651315154 7.12355339106 305.960198632 c 0,71,72
 15.257257256 326.294458294 15.257257256 326.294458294 32.9335463397 340.17094227 c 1,73,74
 74.2900175752 360.130730926 74.2900175752 360.130730926 86.2557244185 360.130730926 c 0,0,1
EndSplineSet
EndChar

StartChar: comma
Encoding: 44 44 15
AltUni2: 00066c.ffffffff.0 003001.ffffffff.0 00fe10.ffffffff.0 00fe11.ffffffff.0 00fe50.ffffffff.0 00ff0c.ffffffff.0 00066c.ffffffff.0 003001.ffffffff.0 00fe10.ffffffff.0 00fe11.ffffffff.0 00fe50.ffffffff.0 00ff0c.ffffffff.0
Width: 230
GlyphClass: 1
Flags: W
HStem: -218 377<73.1507 166.191>
VStem: 16 244
LayerCount: 2
Fore
SplineSet
52.8698670776 135.440557057 m 0,0,1
 79.0856442292 159 79.0856442292 159 116.437766405 159 c 128,-1,2
 153.789888582 159 153.789888582 159 181.78083581 128.855902984 c 0,3,4
 221.35178903 85.8931537746 221.35178903 85.8931537746 240.675894515 48.5332165035 c 128,-1,5
 260 11.1732792323 260 11.1732792323 260 -28 c 0,6,7
 260 -83.8596868939 260 -83.8596868939 225.023771879 -130.958004819 c 0,8,9
 204.878664474 -157.818148026 204.878664474 -157.818148026 172.34840625 -190.34840625 c 0,10,11
 144.6968125 -218 144.6968125 -218 108 -218 c 0,12,13
 90.867126629 -218 90.867126629 -218 73.4287105817 -211.429002649 c 128,-1,14
 55.9902945344 -204.858005298 55.9902945344 -204.858005298 41.2565158869 -188.896411763 c 0,15,16
 16 -161.535186219 16 -161.535186219 16 -124.419186859 c 128,-1,17
 16 -87.3031875 16 -87.3031875 42.65159375 -60.65159375 c 0,18,19
 59.0627857233 -44.2404017767 59.0627857233 -44.2404017767 72.6907602219 -27.9549723382 c 1,20,21
 63.6210907109 -15.0996087362 63.6210907109 -15.0996087362 44.2682830138 6.18847973062 c 1,22,23
 22 32.9104193472 22 32.9104193472 22 68.5 c 0,24,25
 22 86.2232637368 22 86.2232637368 29.2032994627 103.652675829 c 128,-1,26
 36.4065989253 121.082087922 36.4065989253 121.082087922 52.8698670776 135.440557057 c 0,0,1
EndSplineSet
EndChar

StartChar: hyphen
Encoding: 45 45 16
AltUni2: 002010.ffffffff.0 002011.ffffffff.0 002012.ffffffff.0 002013.ffffffff.0 002014.ffffffff.0 002015.ffffffff.0 00207b.ffffffff.0 002212.ffffffff.0 002500.ffffffff.0 00fe32.ffffffff.0 00fe63.ffffffff.0 00ff0d.ffffffff.0 002010.ffffffff.0 002011.ffffffff.0 002012.ffffffff.0 002013.ffffffff.0 002014.ffffffff.0 002015.ffffffff.0 00207b.ffffffff.0 002212.ffffffff.0 002500.ffffffff.0 00fe32.ffffffff.0 00fe63.ffffffff.0 00ff0d.ffffffff.0
Width: 382
GlyphClass: 1
Flags: HW
LayerCount: 2
Fore
SplineSet
106.090683399 379.699306094 m 0,0,1
 123.31250132 373.709108556 123.31250132 373.709108556 148.094575381 372.854554278 c 128,-1,2
 172.876649442 372 172.876649442 372 205.283292835 372 c 0,3,4
 244.157858178 372 244.157858178 372 256.285489193 370.723407262 c 0,5,6
 297.344944422 366.401359343 297.344944422 366.401359343 319.005650969 360.562587842 c 0,7,8
 340.809325292 355.505016179 340.809325292 355.505016179 356.765195726 339.6289239 c 0,9,10
 368.168877466 328.28226057 368.168877466 328.28226057 375.499784636 312.245901134 c 0,11,12
 386.4 288.401680026 386.4 288.401680026 386.4 260.62 c 0,13,14
 386.4 251.208348769 386.4 251.208348769 385.495716442 244.878363862 c 0,15,16
 380.311772329 208.590755069 380.311772329 208.590755069 357.513964391 183.81052905 c 128,-1,17
 334.716156453 159.03030303 334.716156453 159.03030303 302.640955005 159.03030303 c 0,18,19
 293.529821178 159.03030303 293.529821178 159.03030303 276.809250345 162.661872573 c 0,20,21
 261.262613738 166.038473322 261.262613738 166.038473322 247.15731506 167.019236661 c 128,-1,22
 233.052016383 168 233.052016383 168 193.733537441 168 c 128,-1,23
 154.4150585 168 154.4150585 168 136.259651426 169.134712942 c 0,24,25
 94.2970243126 172.731509552 94.2970243126 172.731509552 64.2550458154 180.916199845 c 0,26,27
 27.7953340821 191.33326034 27.7953340821 191.33326034 10.2844717389 230.732700613 c 0,28,29
 -0.0952380952381 254.087047739 -0.0952380952381 254.087047739 -0.0952380952381 280.170068027 c 0,30,31
 -0.0952380952381 327.877265681 -0.0952380952381 327.877265681 28.9322464319 358.11422873 c 0,32,33
 52.7934959418 382.96969697 52.7934959418 382.96969697 84.3296602388 382.96969697 c 0,34,35
 94.6443153326 382.96969697 94.6443153326 382.96969697 106.090683399 379.699306094 c 0,0,1
EndSplineSet
EndChar

StartChar: period
Encoding: 46 46 17
AltUni2: 002024.ffffffff.0 00fe52.ffffffff.0 00ff0e.ffffffff.0 002024.ffffffff.0 00fe52.ffffffff.0 00ff0e.ffffffff.0
Width: 198
GlyphClass: 1
Flags: HW
LayerCount: 2
Fore
SplineSet
227 51 m 0,0,1
 227 22.1523419121 227 22.1523419121 216.075689248 -0.333531052067 c 0,2,3
 201.115840514 -31.1258863635 201.115840514 -31.1258863635 168.881209949 -45.9902881815 c 0,4,5
 147.477229966 -56.9999996689 147.477229966 -56.9999996689 122 -57 c 0,6,7
 111.266154153 -57 111.266154153 -57 92.2887229115 -52.6205927904 c 0,8,9
 63.3749724535 -45.3921551759 63.3749724535 -45.3921551759 45.2504544163 -24.6784202763 c 0,10,11
 33.0464329542 -10.7309671767 33.0464329542 -10.7309671767 27.1312797533 8.03240178165 c 0,12,13
 21.6779586994 19.7214223226 21.6779586994 19.7214223226 21.1333090787 28.3734388211 c 0,14,15
 19.4512302974 33.9410530086 19.4512302974 33.9410530086 15.9985261051 49.478221874 c 128,-1,16
 12.5458219128 65.0153907394 12.5458219128 65.0153907394 11 80.473609867 c 1,17,-1
 11 83 l 2,18,19
 11 97.7505846777 11 97.7505846777 12.5562143266 107.499017319 c 0,20,21
 16.8166380221 137.414710779 16.8166380221 137.414710779 37.8040354578 160.500847958 c 1,22,23
 67.3031875 190 67.3031875 190 105.5 190 c 0,24,25
 138.598486665 190 138.598486665 190 162.46590652 173.106866146 c 0,26,27
 191.046373855 153.720379375 191.046373855 153.720379375 209.750516658 116.31210225 c 0,28,29
 219.259088018 97.294959529 219.259088018 97.294959529 222.65466464 81.6419992344 c 0,30,31
 227 65.19681969 227 65.19681969 227 51 c 0,0,1
EndSplineSet
EndChar

StartChar: slash
Encoding: 47 47 18
AltUni2: 002215.ffffffff.0 00ff0f.ffffffff.0 002215.ffffffff.0 00ff0f.ffffffff.0
Width: 452
GlyphClass: 1
Flags: HW
LayerCount: 2
Fore
SplineSet
80 -184 m 0,0,1
 62.3486848458 -184 62.3486848458 -184 47.0398013682 -177.876446609 c 0,2,3
 25.7467874687 -169.359241049 25.7467874687 -169.359241049 11.5374266477 -150.363886313 c 0,4,5
 -6 -126.919507321 -6 -126.919507321 -6 -97 c 2,6,-1
 -6 -92 l 1,7,-1
 -6 -89.2227764246 l 1,8,9
 17.9926440761 128.797337136 17.9926440761 128.797337136 102.102848061 350.868790341 c 128,-1,10
 186.213052047 572.940243546 186.213052047 572.940243546 316.549132552 768.95749848 c 0,11,12
 330.9199232 789.860466695 330.9199232 789.860466695 352.732700613 799.555034434 c 0,13,14
 369.483873136 807 369.483873136 807 391.666244697 807 c 128,-1,15
 413.848616257 807 413.848616257 807 436.999747411 793.109321308 c 1,16,17
 476 766.296647653 476 766.296647653 476 720 c 0,18,19
 476 695.151383743 476 695.151383743 462.260938331 672.252947628 c 1,20,21
 342.722235155 493.9247183 342.722235155 493.9247183 265.632570036 291.74616261 c 128,-1,22
 188.542904917 89.56760692 188.542904917 89.56760692 167 -103.786657993 c 0,23,24
 164.329189737 -141.659790185 164.329189737 -141.659790185 135.277644892 -164.395781803 c 0,25,26
 110.227810529 -184 110.227810529 -184 80 -184 c 0,0,1
EndSplineSet
EndChar

StartChar: zero
Encoding: 48 48 19
AltUni2: 002070.ffffffff.0 002080.ffffffff.0 00ff10.ffffffff.0 002070.ffffffff.0 002080.ffffffff.0 00ff10.ffffffff.0
Width: 671
GlyphClass: 1
Flags: HW
LayerCount: 2
Fore
SplineSet
394.530321176 534.12890625 m 0,0,1
 382.632948187 537.329101562 382.632948187 537.329101562 371.086545722 538.853515625 c 0,2,3
 359.53882382 536.912109375 359.53882382 536.912109375 344.069732002 536.912109375 c 128,-1,4
 328.600640185 536.912109375 328.600640185 536.912109375 303.8453433 533.030273438 c 1,5,6
 277.389290755 507.221679688 277.389290755 507.221679688 253.909890475 466.599609375 c 0,7,8
 216.825764355 359.6484375 216.825764355 359.6484375 216.825764355 275 c 2,9,-1
 216.813889413 274.048828125 l 2,10,11
 216.696459425 269.416992188 216.696459425 269.416992188 216.696459425 264.924804688 c 0,12,13
 216.696459425 200.950195312 216.696459425 200.950195312 255.621201639 170.078125 c 0,14,15
 270.78814214 166.580078125 270.78814214 166.580078125 294.824345282 165.060546875 c 0,16,17
 318.860548425 161.55078125 318.860548425 161.55078125 351.988999239 161.55078125 c 0,18,19
 365.903793022 161.55078125 365.903793022 161.55078125 381.419065172 162.494140625 c 0,20,21
 420.791096887 163.381835938 420.791096887 163.381835938 452.666081545 184.80859375 c 0,22,23
 480.453447092 247.877929688 480.453447092 247.877929688 480.453447092 321.538085938 c 0,24,25
 480.453447092 356.890625 480.453447092 356.890625 474.059450252 394.74609375 c 0,26,27
 454.793015698 490.453125 454.793015698 490.453125 394.530321176 534.12890625 c 0,0,1
660.741210938 324.874023438 m 0,28,29
 660.741210938 229.2109375 660.741210938 229.2109375 631.5390625 149.369140625 c 0,30,31
 608.294921875 87.4345703125 608.294921875 87.4345703125 567.1015625 49.259765625 c 0,32,33
 505.072841857 4.1650390625 505.072841857 4.1650390625 404.963117917 -1.998046875 c 0,34,35
 377.066239011 -3.884765625 377.066239011 -3.884765625 350.819977118 -3.884765625 c 0,36,37
 272.748827098 -3.884765625 272.748827098 -3.884765625 209.547744015 11.478515625 c 0,38,39
 134.368164062 31.046875 134.368164062 31.046875 95.0625 74.3115234375 c 0,40,41
 35.92578125 146.4375 35.92578125 146.4375 35.92578125 266.592773438 c 0,42,43
 35.92578125 271.467773438 35.92578125 271.467773438 36 276.397460938 c 0,44,45
 36.0615234375 380.532226562 36.0615234375 380.532226562 68.5810546875 508.515625 c 0,46,47
 97.2919921875 599.689453125 97.2919921875 599.689453125 133.8125 652.890625 c 1,48,49
 144.657226562 660.161132812 144.657226562 660.161132812 154.977539062 663.666015625 c 0,50,51
 168.589747752 667.16015625 168.589747752 667.16015625 181.689128813 668.963867188 c 0,52,53
 191.595469769 675.521484375 191.595469769 675.521484375 202.720971492 679.79296875 c 0,54,55
 279.074213158 703.439453125 279.074213158 703.439453125 350.195882916 703.439453125 c 0,56,57
 473.953895208 703.439453125 473.953895208 703.439453125 559.502929688 639.811523438 c 0,58,59
 636.99609375 558.0078125 636.99609375 558.0078125 655.704101562 414.461914062 c 0,60,61
 660.741210938 368.19140625 660.741210938 368.19140625 660.741210938 324.874023438 c 0,28,29
EndSplineSet
EndChar

StartChar: one
Encoding: 49 49 20
AltUni2: 0000b9.ffffffff.0 002081.ffffffff.0 00ff11.ffffffff.0 0000b9.ffffffff.0 002081.ffffffff.0 00ff11.ffffffff.0
Width: 507
GlyphClass: 1
Flags: HW
LayerCount: 2
Fore
SplineSet
124.599609375 583.440429688 m 0,0,1
 124.599609375 593.662109375 124.599609375 593.662109375 141.220703125 601.66796875 c 0,2,3
 164.923828125 632.147460938 164.923828125 632.147460938 203.197790392 668.127929688 c 1,4,5
 276.958677676 701.39453125 276.958677676 701.39453125 290.800133545 706.099609375 c 0,6,7
 296.267403594 708.07421875 296.267403594 708.07421875 334.800840524 719.821289062 c 0,8,9
 385.666992188 730.200195312 385.666992188 730.200195312 413.040039062 730.200195312 c 0,10,11
 456.091796875 730.200195312 456.091796875 730.200195312 481.0234375 716.958007812 c 0,12,13
 497.23046875 708.987304688 497.23046875 708.987304688 497.23046875 699.42578125 c 0,14,15
 497.23046875 687.47265625 497.23046875 687.47265625 495.85546875 675.533203125 c 0,16,17
 495.370117188 665.00390625 495.370117188 665.00390625 492.654296875 653.416015625 c 0,18,19
 491.358398438 647.982421875 491.358398438 647.982421875 487.627929688 636.911132812 c 0,20,21
 475.221679688 574.387695312 475.221679688 574.387695312 471.807617188 564.216796875 c 0,22,23
 459.272460938 521.528320312 459.272460938 521.528320312 452.254882812 500.870117188 c 0,24,25
 403.421875 341.853515625 403.421875 341.853515625 398.5390625 131.927734375 c 1,26,27
 424.322265625 119.249023438 424.322265625 119.249023438 440.149414062 84.6953125 c 0,28,29
 456.599609375 49.3388671875 456.599609375 49.3388671875 456.599609375 4.759765625 c 0,30,31
 456.599609375 -2.8232421875 456.599609375 -2.8232421875 447.915039062 -9.623046875 c 0,32,33
 432.64453125 -21.583984375 432.64453125 -21.583984375 400.543945312 -25.76953125 c 0,34,35
 386.939453125 -30.2978515625 386.939453125 -30.2978515625 331.751099413 -36.458984375 c 0,36,37
 265.389825032 -44.9091796875 265.389825032 -44.9091796875 199.977919095 -65.9052734375 c 0,38,39
 175.318359375 -70.6669921875 175.318359375 -70.6669921875 153.555664062 -70.6669921875 c 0,40,41
 142.68359375 -70.6669921875 142.68359375 -70.6669921875 131.986328125 -69.505859375 c 0,42,43
 100.255859375 -65.9375 100.255859375 -65.9375 82.2666015625 -54.130859375 c 0,44,45
 70.3330078125 -46.6201171875 70.3330078125 -46.6201171875 70.3330078125 -38.5556640625 c 0,46,47
 70.3330078125 -21.130859375 70.3330078125 -21.130859375 73.212890625 -3.9873046875 c 0,48,49
 82.048828125 48.59765625 82.048828125 48.59765625 112.10546875 76.6943359375 c 0,50,51
 124.84765625 84.400390625 124.84765625 84.400390625 133.079101562 89.1015625 c 1,52,53
 134.9921875 320.676757812 134.9921875 320.676757812 183.55078125 504.041015625 c 1,54,55
 170.750976562 508.036132812 170.750976562 508.036132812 159.841796875 515.676757812 c 0,56,57
 143.817382812 516.188476562 143.817382812 516.188476562 135.747070312 516.888671875 c 0,58,59
 124.599609375 548.625976562 124.599609375 548.625976562 124.599609375 583.440429688 c 0,0,1
EndSplineSet
EndChar

StartChar: two
Encoding: 50 50 21
AltUni2: 0000b2.ffffffff.0 002082.ffffffff.0 00ff12.ffffffff.0 0000b2.ffffffff.0 002082.ffffffff.0 00ff12.ffffffff.0
Width: 680
GlyphClass: 1
Flags: HW
LayerCount: 2
Fore
SplineSet
167.678984073 432.897460938 m 0,0,1
 140.689453125 417.19921875 140.689453125 417.19921875 112.206054688 417.19921875 c 0,2,3
 106.075195312 417.19921875 106.075195312 417.19921875 99.8779296875 417.971679688 c 0,4,5
 65.6591796875 422.234375 65.6591796875 422.234375 45.2060546875 445.64453125 c 0,6,7
 28.599609375 464.650390625 28.599609375 464.650390625 28.599609375 488.079101562 c 0,8,9
 28.599609375 493.15625 28.599609375 493.15625 29.4228515625 498.25390625 c 0,10,11
 40.8759765625 582.564453125 40.8759765625 582.564453125 117.1484375 640.494140625 c 0,12,13
 195.036492373 690.966796875 195.036492373 690.966796875 311.956513229 700.551757812 c 0,14,15
 340.267339979 703.630859375 340.267339979 703.630859375 367.180053041 703.630859375 c 0,16,17
 458.212210682 703.630859375 458.212210682 703.630859375 530.096063369 669.045898438 c 0,18,19
 581.919921875 642.868164062 581.919921875 642.868164062 604.2421875 600.248046875 c 0,20,21
 621.282226562 567.711914062 621.282226562 567.711914062 623 526.072265625 c 1,22,23
 623 501.631835938 623 501.631835938 623 525.286132812 c 2,24,25
 623 488.202148438 623 488.202148438 613.668945312 455.579101562 c 0,26,27
 599.934570312 402.595703125 599.934570312 402.595703125 555.009765625 335.241210938 c 1,28,29
 514.887187588 290.873046875 514.887187588 290.873046875 448.888418098 231.877929688 c 1,30,31
 405.229554483 194.915039062 405.229554483 194.915039062 385.845846201 177.624023438 c 1,32,33
 396.530035918 180.374023438 396.530035918 180.374023438 399.344471286 180.998046875 c 0,34,35
 467.356524486 196.071289062 467.356524486 196.071289062 522.338158115 197.154296875 c 1,36,-1
 523.364308534 197.154296875 l 2,37,38
 547.528915342 197.154296875 547.528915342 197.154296875 564.802734375 192.346679688 c 2,39,40
 567.961914062 212.249023438 567.961914062 212.249023438 571.122070312 190.5234375 c 1,41,42
 587.400390625 182.26171875 587.400390625 182.26171875 592.177734375 179.583007812 c 0,43,44
 612.107421875 178.361328125 612.107421875 178.361328125 628.809570312 169.559570312 c 0,45,46
 659.58984375 153.337890625 659.58984375 153.337890625 667.029296875 123.427734375 c 0,47,48
 670 110.568359375 670 110.568359375 670 102.784179688 c 2,49,50
 670 134.31640625 670 134.31640625 670 100.057617188 c 1,51,52
 669.805664062 131.97265625 669.805664062 131.97265625 669.612304688 97.369140625 c 2,53,54
 665.659179688 69.98828125 665.659179688 69.98828125 646.946289062 52.8251953125 c 0,55,56
 633.321289062 39.4541015625 633.321289062 39.4541015625 616.5859375 33.890625 c 128,-1,57
 599.849609375 28.326171875 599.849609375 28.326171875 583 28.326171875 c 2,58,-1
 578.008789062 28.326171875 l 1,59,60
 575.58203125 71.396484375 575.58203125 71.396484375 573.155273438 29.1669921875 c 1,61,62
 565.655273438 72.884765625 565.655273438 72.884765625 558.155273438 31.763671875 c 1,63,64
 554.897460938 74.4970703125 554.897460938 74.4970703125 551.638671875 32.892578125 c 1,65,66
 527.986537414 40.7578125 527.986537414 40.7578125 503.022079519 51.740234375 c 1,67,68
 487.528378716 49.3544921875 487.528378716 49.3544921875 469.269664239 45.1416015625 c 128,-1,69
 451.010949762 40.9296875 451.010949762 40.9296875 393.654473719 23.9814453125 c 1,70,71
 392.945662594 73.7685546875 392.945662594 73.7685546875 392.236851468 23.5556640625 c 1,72,73
 366.874418886 64.1923828125 366.874418886 64.1923828125 341.510685733 4.8291015625 c 2,74,75
 309.555659399 -6.5966796875 309.555659399 -6.5966796875 278.625482912 -13.640625 c 0,76,77
 190.327125244 -35.9609375 190.327125244 -35.9609375 128.19921875 -18.1025390625 c 0,78,79
 97.7841796875 -7.240234375 97.7841796875 -7.240234375 83.109375 19.0966796875 c 0,80,81
 74.6533203125 30.4326171875 74.6533203125 30.4326171875 72.1015625 50.16015625 c 0,82,83
 71.6669921875 53.517578125 71.6669921875 53.517578125 71.6669921875 59.3623046875 c 128,-1,84
 71.6669921875 65.2080078125 71.6669921875 65.2080078125 73.8212890625 74.1103515625 c 0,85,86
 76.859375 90.1865234375 76.859375 90.1865234375 89.8515625 111.428710938 c 0,87,88
 93.2255859375 116.9453125 93.2255859375 116.9453125 96.087890625 122.29296875 c 2,89,90
 101.668945312 161.38671875 101.668945312 161.38671875 107.249023438 142.241210938 c 2,91,92
 108.647460938 144.6796875 108.647460938 144.6796875 128.135742188 175.8359375 c 1,93,94
 128.568359375 199.873046875 128.568359375 199.873046875 129 176.966796875 c 1,95,96
 129 203.23046875 129 203.23046875 129 183.536132812 c 1,97,98
 133.817382812 209.765625 133.817382812 209.765625 138.634765625 191.955078125 c 1,99,100
 160.342463782 219.764648438 160.342463782 219.764648438 199.445427631 255.064453125 c 2,101,102
 235.534968768 296.328125 235.534968768 296.328125 271.624509906 318.956054688 c 2,103,104
 333.23255213 372.7421875 333.23255213 372.7421875 367.40245066 409.9765625 c 0,105,106
 406.067122125 453.776367188 406.067122125 453.776367188 421.201865367 491.131835938 c 0,107,108
 427.375675298 511.090820312 427.375675298 511.090820312 427.474518684 526.9140625 c 0,109,110
 427.079145139 536.185546875 427.079145139 536.185546875 422.910815493 542.416015625 c 128,-1,111
 418.696965867 548.713867188 418.696965867 548.713867188 408.901066056 553.168945312 c 0,112,113
 393.485399506 559.7890625 393.485399506 559.7890625 368.054036667 559.7890625 c 0,114,115
 356.784590058 559.7890625 356.784590058 559.7890625 342.74362692 558.401367188 c 0,116,117
 289.705046173 553.255859375 289.705046173 553.255859375 251.020866146 531.784179688 c 0,118,119
 212.65272484 510.030273438 212.65272484 510.030273438 207.399719086 481.12890625 c 0,120,121
 203.2912157 451.7734375 203.2912157 451.7734375 167.678984073 432.897460938 c 0,0,1
EndSplineSet
EndChar

StartChar: three
Encoding: 51 51 22
AltUni2: 0000b3.ffffffff.0 002083.ffffffff.0 00ff13.ffffffff.0 0000b3.ffffffff.0 002083.ffffffff.0 00ff13.ffffffff.0
Width: 672
GlyphClass: 1
Flags: HW
LayerCount: 2
Fore
SplineSet
533.582311556 610.80078125 m 0,0,1
 572.802734375 558.641601562 572.802734375 558.641601562 572.802734375 501.651367188 c 0,2,3
 572.802734375 460.705078125 572.802734375 460.705078125 553.811523438 419.635742188 c 1,4,5
 609.321289062 390.766601562 609.321289062 390.766601562 637.250976562 342.220703125 c 0,6,7
 661.048828125 300.854492188 661.048828125 300.854492188 661.048828125 255.201171875 c 0,8,9
 661.048828125 193.62109375 661.048828125 193.62109375 625.192382812 142.83203125 c 0,10,11
 597.749023438 103.958984375 597.749023438 103.958984375 551.559570312 73.9892578125 c 0,12,13
 405.688997943 3 405.688997943 3 149 3 c 0,14,15
 115.302734375 3 115.302734375 3 91.1513671875 27.1513671875 c 128,-1,16
 67 51.302734375 67 51.302734375 67 85.5 c 128,-1,17
 67 119.697265625 67 119.697265625 91.1513671875 143.848632812 c 128,-1,18
 115.302734375 168 115.302734375 168 149 168 c 0,19,20
 331.580603805 168 331.580603805 168 422.884572066 201.908203125 c 0,21,22
 450.478905372 212.762695312 450.478905372 212.762695312 465.476282391 224.883789062 c 128,-1,23
 480.47365941 237.005859375 480.47365941 237.005859375 480.47365941 251.517578125 c 2,24,25
 480.47365941 260.362304688 480.47365941 260.362304688 480.47365941 252.112304688 c 2,26,27
 480.583963207 253.774414062 480.583963207 253.774414062 480.583963207 254.809570312 c 0,28,29
 480.583963207 264.342773438 480.583963207 264.342773438 474.129877922 271.625 c 0,30,31
 467.677105776 280.299804688 467.677105776 280.299804688 449.540009954 287.788085938 c 0,32,33
 431.404227272 296.893554688 431.404227272 296.893554688 411.943485881 296.893554688 c 0,34,35
 385.288047994 296.893554688 385.288047994 296.893554688 367.722168265 290.956054688 c 2,36,-1
 356.308351519 287.01953125 l 2,37,38
 332.42495311 279.407226562 332.42495311 279.407226562 301.529384727 279.407226562 c 0,39,40
 263.125279281 279.407226562 263.125279281 279.407226562 234.627505349 294.831054688 c 0,41,42
 211.860276319 307.154296875 211.860276319 307.154296875 201.206767891 325.549804688 c 0,43,44
 193.389642823 339.048828125 193.389642823 339.048828125 193.389642823 353.208007812 c 128,-1,45
 193.389642823 367.3671875 193.389642823 367.3671875 201.118787481 380.201171875 c 0,46,47
 218.764768777 409.5 218.764768777 409.5 262.139110807 421.502929688 c 0,48,49
 280.453480589 426.063476562 280.453480589 426.063476562 289.365764788 428.509765625 c 0,50,51
 313.283304848 436.802734375 313.283304848 436.802734375 330.673223757 448.698242188 c 128,-1,52
 348.063142667 460.59375 348.063142667 460.59375 356.733809023 478.208984375 c 0,53,54
 360.951616132 489.075195312 360.951616132 489.075195312 360.951616132 498.854492188 c 0,55,56
 360.951616132 517.21484375 360.951616132 517.21484375 345.472316569 534.005859375 c 0,57,58
 337.101046234 542.665039062 337.101046234 542.665039062 328.208459142 546.666992188 c 128,-1,59
 319.452438657 550.607421875 319.452438657 550.607421875 307.081342527 550.607421875 c 0,60,61
 306.124063143 550.599609375 306.124063143 550.599609375 305.925778936 550.599609375 c 0,62,63
 287.397367261 549.284179688 287.397367261 549.284179688 265.399638531 539.798828125 c 0,64,65
 229.369691009 524.26171875 229.369691009 524.26171875 188.97880407 489.173828125 c 0,66,67
 163.507818863 465.915039062 163.507818863 465.915039062 126.833984375 460.581054688 c 0,68,69
 119.135742188 459.353515625 119.135742188 459.353515625 111.560546875 459.353515625 c 0,70,71
 84.091796875 459.353515625 84.091796875 459.353515625 62.80078125 474.565429688 c 0,72,73
 38.0732421875 492.231445312 38.0732421875 492.231445312 32.279296875 521.208007812 c 0,74,75
 30.904296875 528.08203125 30.904296875 528.08203125 30.904296875 534.84765625 c 0,76,77
 30.904296875 558.87109375 30.904296875 558.87109375 47.3505859375 577.728515625 c 0,78,79
 143.061523438 691.123046875 143.061523438 691.123046875 291.963156587 696.900390625 c 0,80,81
 302.357976348 697.43359375 302.357976348 697.43359375 312.526935952 697.43359375 c 0,82,83
 390.065252931 697.43359375 390.065252931 697.43359375 451.233961127 666.954101562 c 0,84,85
 499.118940585 646.215820312 499.118940585 646.215820312 533.582311556 610.80078125 c 0,0,1
EndSplineSet
EndChar

StartChar: four
Encoding: 52 52 23
AltUni2: 002074.ffffffff.0 002084.ffffffff.0 00ff14.ffffffff.0 002074.ffffffff.0 002084.ffffffff.0 00ff14.ffffffff.0
Width: 714
GlyphClass: 1
Flags: HW
LayerCount: 2
Fore
SplineSet
578.744344874 394.329101562 m 0,0,1
 577.961125913 381.546875 577.961125913 381.546875 575.581445635 350.068359375 c 1,2,3
 609.46484375 358.454101562 609.46484375 358.454101562 622.255859375 358.454101562 c 0,4,5
 644.201171875 358.454101562 644.201171875 358.454101562 661.85546875 347.708007812 c 0,6,7
 692.118164062 329.892578125 692.118164062 329.892578125 700.30078125 298.678710938 c 0,8,9
 703.454101562 289.26171875 703.454101562 289.26171875 703.454101562 279.725585938 c 0,10,11
 703.454101562 261.047851562 703.454101562 261.047851562 691.741210938 244.670898438 c 0,12,13
 674.532226562 220.609375 674.532226562 220.609375 641.745117188 212.635742188 c 2,14,15
 640.5703125 226.623046875 640.5703125 226.623046875 639.39453125 212.064453125 c 1,16,17
 638.19140625 226.221679688 638.19140625 226.221679688 636.987304688 211.692382812 c 2,18,19
 624.999023438 209.526367188 624.999023438 209.526367188 573.193933167 197.567382812 c 0,20,21
 562.932459407 195.389648438 562.932459407 195.389648438 561.889472824 195.17578125 c 0,22,23
 560.048908264 152.005859375 560.048908264 152.005859375 560.03977071 139.360351562 c 0,24,25
 560.03977071 95.5361328125 560.03977071 95.5361328125 563.99633183 80.5 c 128,-1,26
 567.95289295 65.4638671875 567.95289295 65.4638671875 567.95289295 58.3984375 c 0,27,28
 567.95289295 38.1103515625 567.95289295 38.1103515625 551.879934496 22.4189453125 c 0,29,30
 518.021378792 -16.4208984375 518.021378792 -16.4208984375 458.853102349 -16.4208984375 c 0,31,32
 424.138227247 -16.4208984375 424.138227247 -16.4208984375 395.553345883 -1.8408203125 c 0,33,34
 374.510863119 8.892578125 374.510863119 8.892578125 363.937407139 22.80859375 c 0,35,36
 353.365256524 34.958984375 353.365256524 34.958984375 350.10053882 47.037109375 c 0,37,38
 339.568854518 79.453125 339.568854518 79.453125 339.568854518 151.329101562 c 0,39,40
 339.568854518 158.796875 339.568854518 158.796875 340.021816151 171.8046875 c 1,41,42
 335.960825836 171.75 335.960825836 171.75 331.922026724 171.75 c 0,43,44
 258.803315212 171.75 258.803315212 171.75 200.995229032 189.690429688 c 0,45,46
 122.801757812 221.06640625 122.801757812 221.06640625 90.8974609375 299.06640625 c 0,47,48
 66.4482421875 358.840820312 66.4482421875 358.840820312 66.4482421875 452.2109375 c 0,49,50
 66.4482421875 470.258789062 66.4482421875 470.258789062 67.072265625 482.8671875 c 2,51,52
 69.041015625 496.317382812 69.041015625 496.317382812 71.009765625 547.34375 c 2,53,54
 71.126953125 555.065429688 71.126953125 555.065429688 73.0712890625 565.680664062 c 0,55,56
 73.5439453125 578.81640625 73.5439453125 578.81640625 77.86328125 597.77734375 c 0,57,58
 78.66015625 602.760742188 78.66015625 602.760742188 85.17578125 664.079101562 c 0,59,60
 87.912109375 692.665039062 87.912109375 692.665039062 111.4609375 711.169921875 c 0,61,62
 135.008789062 732.36328125 135.008789062 732.36328125 165.041015625 732.36328125 c 0,63,64
 209.947421761 732.36328125 209.947421761 732.36328125 243.555347397 704.427734375 c 0,65,66
 270.546378174 684.504882812 270.546378174 684.504882812 270.546378174 657.837890625 c 0,67,68
 270.546378174 654.555664062 270.546378174 654.555664062 259.322850457 578.1328125 c 0,69,70
 258.935157071 567.19921875 258.935157071 567.19921875 253.854676741 546.948242188 c 0,71,72
 253.716308058 545.28515625 253.716308058 545.28515625 253.228101572 542.034179688 c 128,-1,73
 252.738589721 538.784179688 252.738589721 538.784179688 252.683764393 537.870117188 c 2,74,75
 252.683764393 511.405273438 252.683764393 511.405273438 252.683764393 536.225585938 c 1,76,77
 251.281802452 524.446289062 251.281802452 524.446289062 247.2743321 471.225585938 c 0,78,79
 246.484586313 450.375976562 246.484586313 450.375976562 246.481975583 443.629882812 c 0,80,81
 246.481975583 377.18359375 246.481975583 377.18359375 266.219093412 340.640625 c 0,82,83
 278.199732793 318.2578125 278.199732793 318.2578125 296.382160983 312.51171875 c 0,84,85
 309.826114457 308.200195312 309.826114457 308.200195312 334.101986167 308.200195312 c 0,86,87
 342.16914147 308.200195312 342.16914147 308.200195312 351.271451167 308.772460938 c 1,88,-1
 358.413102731 403.16015625 l 2,89,90
 362.167332286 448.100585938 362.167332286 448.100585938 359.619259931 480.5078125 c 1,91,-1
 359.619259931 482 l 2,92,93
 359.619259931 516.697265625 359.619259931 516.697265625 390.857948209 540.067382812 c 0,94,95
 425.649839842 566.095703125 425.649839842 566.095703125 471.233183399 566.095703125 c 128,-1,96
 516.816526956 566.095703125 516.816526956 566.095703125 547.890739252 542.848632812 c 0,97,98
 579.184252858 519.4375 579.184252858 519.4375 580.148917545 486.668945312 c 0,99,100
 582.89279464 446.314453125 582.89279464 446.314453125 578.744344874 394.329101562 c 0,0,1
EndSplineSet
EndChar

StartChar: five
Encoding: 53 53 24
AltUni2: 002075.ffffffff.0 002085.ffffffff.0 00ff15.ffffffff.0 002075.ffffffff.0 002085.ffffffff.0 00ff15.ffffffff.0
Width: 649
GlyphClass: 1
Flags: HW
LayerCount: 2
Fore
SplineSet
303.489824787 545.1640625 m 1,0,1
 257.130857563 486.498046875 257.130857563 486.498046875 244.467953468 457.71875 c 1,2,3
 261.19065721 457.852539062 261.19065721 457.852539062 306.251146005 459 c 1,4,5
 349.158461707 459 349.158461707 459 383.564030983 455.875976562 c 0,6,7
 435.92229728 451.122070312 435.92229728 451.122070312 477.787269012 436.4453125 c 0,8,9
 530.65234375 415.885742188 530.65234375 415.885742188 554.141601562 378.303710938 c 0,10,11
 571.5625 350.4296875 571.5625 350.4296875 578.30859375 313.978515625 c 0,12,13
 582.063476562 294.375976562 582.063476562 294.375976562 582.063476562 274.516601562 c 0,14,15
 582.063476562 216.633789062 582.063476562 216.633789062 550.887695312 159.4296875 c 0,16,17
 511.509356498 91.4443359375 511.509356498 91.4443359375 421.302087621 48.248046875 c 0,18,19
 331.094818743 -0.2080078125 331.094818743 -0.2080078125 238.302920334 -0.2080078125 c 0,20,21
 148.301757812 -0.2080078125 148.301757812 -0.2080078125 101.622070312 44.9384765625 c 0,22,23
 72.41796875 68.4599609375 72.41796875 68.4599609375 55.3134765625 105.015625 c 0,24,25
 49.5 117.604492188 49.5 117.604492188 49.5 130.807617188 c 128,-1,26
 49.5 144.01171875 49.5 144.01171875 56.294921875 158.159179688 c 128,-1,27
 63.08984375 172.305664062 63.08984375 172.305664062 78.271484375 182.717773438 c 0,28,29
 89.1611328125 190.186523438 89.1611328125 190.186523438 103.012695312 194.112304688 c 0,30,31
 132.888671875 203.64453125 132.888671875 203.64453125 163.040039062 193.599609375 c 0,32,33
 185.674822548 187.606445312 185.674822548 187.606445312 201.251084891 177.124023438 c 128,-1,34
 216.827347235 166.642578125 216.827347235 166.642578125 222.841713041 157.359375 c 128,-1,35
 228.854709144 148.076171875 228.854709144 148.076171875 233.382947212 145.227539062 c 0,36,37
 233.810294543 144.958984375 233.810294543 144.958984375 234.145871775 144.71484375 c 0,38,39
 252.72863217 145.4765625 252.72863217 145.4765625 283.537361407 158.739257812 c 0,40,41
 329.047112781 178.220703125 329.047112781 178.220703125 355.207070088 211.227539062 c 0,42,43
 376.215574469 236.65625 376.215574469 236.65625 376.215574469 260.25 c 0,44,45
 376.215574469 267.142578125 376.215574469 267.142578125 373.611769095 276.646484375 c 0,46,47
 370.4477552 288.197265625 370.4477552 288.197265625 363.759495525 290.416015625 c 0,48,49
 350.098077955 294 350.098077955 294 307.653721861 294 c 0,50,51
 304.760909157 293.967773438 304.760909157 293.967773438 293.815612605 293.508789062 c 0,52,53
 257.84995163 292 257.84995163 292 239.312391433 292 c 128,-1,54
 220.774831237 292 220.774831237 292 220.694018761 292 c 0,55,56
 147.278320312 292 147.278320312 292 109.649414062 314.111328125 c 0,57,58
 78.9248046875 332.166015625 78.9248046875 332.166015625 64.01953125 363.018554688 c 0,59,60
 52.857421875 386.33203125 52.857421875 386.33203125 52.857421875 414.963867188 c 128,-1,61
 52.857421875 443.594726562 52.857421875 443.594726562 63.283203125 477.53125 c 0,62,63
 81.072265625 535.43359375 81.072265625 535.43359375 133.249023438 628.84375 c 0,64,65
 136.666992188 634.961914062 136.666992188 634.961914062 141.30859375 640.8046875 c 0,66,67
 152.698242188 657.020507812 152.698242188 657.020507812 168.649414062 664.796875 c 0,68,69
 190.678347551 672.573242188 190.678347551 672.573242188 214.183820474 673.955078125 c 0,70,71
 300.654539609 682.03125 300.654539609 682.03125 536.728515625 718.721679688 c 0,72,73
 546.166015625 720.900390625 546.166015625 720.900390625 555.665039062 720.900390625 c 0,74,75
 578.469726562 720.900390625 578.469726562 720.900390625 596.758789062 709.767578125 c 0,76,77
 628.208007812 693.806640625 628.208007812 693.806640625 635.809570312 664.845703125 c 0,78,79
 637.900390625 657.133789062 637.900390625 657.133789062 637.900390625 649.375976562 c 0,80,81
 637.900390625 630.36328125 637.900390625 630.36328125 626.930664062 615.337890625 c 0,82,83
 607.682617188 588.971679688 607.682617188 588.971679688 573.993164062 582.575195312 c 0,84,85
 391.102876211 555.126953125 391.102876211 555.126953125 303.489824787 545.1640625 c 1,0,1
235.229306836 114.450195312 m 1,86,-1
 234.412963857 114.5234375 l 1,87,88
 234.449945837 114.500976562 234.449945837 114.500976562 235.229306836 114.450195312 c 1,86,-1
EndSplineSet
EndChar

StartChar: six
Encoding: 54 54 25
AltUni2: 002076.ffffffff.0 002086.ffffffff.0 00ff16.ffffffff.0 002076.ffffffff.0 002086.ffffffff.0 00ff16.ffffffff.0
Width: 642
GlyphClass: 1
Flags: HW
LayerCount: 2
Fore
SplineSet
227.439704275 219.399414062 m 1,0,1
 224.333360167 201.0390625 224.333360167 201.0390625 224.333360167 185.470703125 c 0,2,3
 224.333360167 158.223632812 224.333360167 158.223632812 234.510400311 138.083007812 c 0,4,5
 254.429318736 98.6630859375 254.429318736 98.6630859375 347.419850657 93.892578125 c 0,6,7
 354.215491554 93.69921875 354.215491554 93.69921875 356.48709121 93.6982421875 c 0,8,9
 378.592766411 93.6982421875 378.592766411 93.6982421875 395.346498087 98.8603515625 c 128,-1,10
 412.100229763 104.0234375 412.100229763 104.0234375 424.937504684 117.078125 c 0,11,12
 448.718142523 142.794921875 448.718142523 142.794921875 448.718142523 179.879882812 c 0,13,14
 448.718142523 190.1171875 448.718142523 190.1171875 446.93233677 201.270507812 c 0,15,16
 438.813420652 251.96875 438.813420652 251.96875 402.003927198 275.216796875 c 0,17,18
 387.109896686 284.24609375 387.109896686 284.24609375 368.322672788 284.24609375 c 128,-1,19
 349.534080457 284.24609375 349.534080457 284.24609375 326.031234624 277.546875 c 128,-1,20
 302.52838879 270.846679688 302.52838879 270.846679688 281.551671249 259.993164062 c 0,21,22
 272.966119298 255.551757812 272.966119298 255.551757812 267.489648321 251.659179688 c 0,23,24
 253.268887104 231.235351562 253.268887104 231.235351562 227.439704275 219.399414062 c 1,0,1
335.009526997 435.779296875 m 1,25,26
 351.755048072 436.900390625 351.755048072 436.900390625 368.166671366 436.900390625 c 0,27,28
 471.373928003 436.900390625 471.373928003 436.900390625 540.409179688 393.561523438 c 0,29,30
 616.538085938 336.768554688 616.538085938 336.768554688 628.692382812 236.486328125 c 0,31,32
 631.161132812 217.911132812 631.161132812 217.911132812 631.161132812 200.16796875 c 0,33,34
 631.161132812 124.493164062 631.161132812 124.493164062 586.712890625 65.7138671875 c 0,35,36
 551.236328125 18.8525390625 551.236328125 18.8525390625 490.793368191 -2.421875 c 0,37,38
 430.994191476 -21.4189453125 430.994191476 -21.4189453125 357.353309632 -21.4189453125 c 0,39,40
 343.599184249 -21.4189453125 343.599184249 -21.4189453125 331.738970866 -20.8515625 c 0,41,42
 226.871804361 -15.0947265625 226.871804361 -15.0947265625 155.48046875 15.3984375 c 0,43,44
 85.5498046875 50.6396484375 85.5498046875 50.6396484375 57.775390625 120.243164062 c 0,45,46
 41.9560546875 159.815429688 41.9560546875 159.815429688 41.9560546875 208.768554688 c 0,47,48
 41.9560546875 268.762695312 41.9560546875 268.762695312 65.87109375 343.676757812 c 0,49,50
 97.46484375 440.169921875 97.46484375 440.169921875 172.52857212 554.05078125 c 1,51,52
 268.696606692 656.322265625 268.696606692 656.322265625 341.223583645 700.583984375 c 0,53,54
 374.330095974 724 374.330095974 724 422.102110415 724 c 128,-1,55
 469.874124857 724 469.874124857 724 505.729820142 698.412109375 c 1,56,57
 530 676.32421875 530 676.32421875 530 647.501953125 c 0,58,59
 530 618.438476562 530 618.438476562 502.452421844 596.7578125 c 0,60,61
 446.629912961 562.670898438 446.629912961 562.670898438 374.465570893 482.3671875 c 0,62,63
 353.610643935 459.211914062 353.610643935 459.211914062 335.009526997 435.779296875 c 1,25,26
EndSplineSet
EndChar

StartChar: seven
Encoding: 55 55 26
AltUni2: 002077.ffffffff.0 002087.ffffffff.0 00ff17.ffffffff.0 002077.ffffffff.0 002087.ffffffff.0 00ff17.ffffffff.0
Width: 679
GlyphClass: 1
Flags: HW
LayerCount: 2
Fore
SplineSet
425.256528659 720.712890625 m 1,0,1
 477.078955783 725 477.078955783 725 503.677462481 725 c 0,2,3
 553.134765625 725 553.134765625 725 585.540039062 712.444335938 c 0,4,5
 631.466796875 695.969726562 631.466796875 695.969726562 658.0078125 655.3671875 c 1,6,7
 668 637.444335938 668 637.444335938 668 616.986328125 c 0,8,9
 668 594.33203125 668 594.33203125 659.171875 573.4609375 c 128,-1,10
 650.34375 552.590820312 650.34375 552.590820312 640.029296875 530.856445312 c 128,-1,11
 629.715820312 509.122070312 629.715820312 509.122070312 611.1640625 473.032226562 c 128,-1,12
 592.612304688 436.942382812 592.612304688 436.942382812 588.650390625 429.20703125 c 1,13,14
 603.006835938 426.057617188 603.006835938 426.057617188 615.1171875 418.65234375 c 0,15,16
 642.708984375 401.782226562 642.708984375 401.782226562 650.251953125 370.21484375 c 0,17,18
 651.400390625 363.0078125 651.400390625 363.0078125 651.400390625 357.383789062 c 0,19,20
 651.400390625 333.197265625 651.400390625 333.197265625 635.462890625 313.544921875 c 0,21,22
 615.174804688 288.528320312 615.174804688 288.528320312 581.65234375 283.903320312 c 2,23,24
 579.7578125 283.059570312 579.7578125 283.059570312 577.862304688 283.380859375 c 1,25,-1
 574.384765625 283.380859375 l 2,26,27
 561.625 282.6953125 561.625 282.6953125 513.557957129 278 c 1,28,-1
 509.049891271 278 l 2,29,30
 507.637267783 278 507.637267783 278 505.496690687 277.943359375 c 0,31,32
 462.211651013 212.376953125 462.211651013 212.376953125 441.51284761 159.111328125 c 0,33,34
 428.86088274 124.075195312 428.86088274 124.075195312 428.86088274 102.579101562 c 0,35,36
 428.86088274 93.279296875 428.86088274 93.279296875 432.324892611 85.8583984375 c 128,-1,37
 435.788902483 78.4375 435.788902483 78.4375 435.788902483 68.7255859375 c 0,38,39
 435.788902483 50.51953125 435.788902483 50.51953125 420.057234781 34.5556640625 c 0,40,41
 397.349017094 6.779296875 397.349017094 6.779296875 355.539559058 -2.798828125 c 0,42,43
 339.582291319 -6.4541015625 339.582291319 -6.4541015625 323.357451442 -6.4541015625 c 0,44,45
 293.882544271 -6.4541015625 293.882544271 -6.4541015625 268.036912115 5.2587890625 c 0,46,47
 230.730273424 19.978515625 230.730273424 19.978515625 217.471024732 47.9091796875 c 1,48,49
 207.388539354 72.65234375 207.388539354 72.65234375 207.388539354 101.947265625 c 0,50,51
 207.388539354 142.408203125 207.388539354 142.408203125 226.210402913 194.6953125 c 0,52,53
 240.455995953 231.088867188 240.455995953 231.088867188 262.542501909 273.4765625 c 1,54,55
 246.088127111 276.758789062 246.088127111 276.758789062 232.212413202 282.890625 c 0,56,57
 211.068967866 292.234375 211.068967866 292.234375 200.45396147 304.33984375 c 0,58,59
 184.209447171 322.86328125 184.209447171 322.86328125 184.209447171 343.353515625 c 128,-1,60
 184.209447171 363.842773438 184.209447171 363.842773438 200.359524245 379.893554688 c 128,-1,61
 216.50828969 395.943359375 216.50828969 395.943359375 235.82594868 403.325195312 c 128,-1,62
 255.144919298 410.706054688 255.144919298 410.706054688 275.308578427 412.78125 c 0,63,64
 313.521552151 416.905273438 313.521552151 416.905273438 351.174460666 419.877929688 c 1,65,66
 390.159983354 477.419921875 390.159983354 477.419921875 458.314803861 572.658203125 c 1,67,68
 455.628589466 572.533203125 455.628589466 572.533203125 452.65644014 572.266601562 c 128,-1,69
 449.684290814 572 449.684290814 572 445.033257491 571.538085938 c 128,-1,70
 440.382224169 571.077148438 440.382224169 571.077148438 431.272966857 570.9453125 c 0,71,72
 388.252876064 567.770507812 388.252876064 567.770507812 340.205314677 560.450195312 c 128,-1,73
 292.15775329 553.12890625 292.15775329 553.12890625 221.478048647 540.163085938 c 1,74,75
 220.97962996 514.400390625 220.97962996 514.400390625 220.481211274 540.001953125 c 2,76,77
 194.065020885 535.720703125 194.065020885 535.720703125 140.611328125 525.536132812 c 0,78,79
 123.280273438 522.635742188 123.280273438 522.635742188 120.594726562 522.635742188 c 128,-1,80
 117.909179688 522.635742188 117.909179688 522.635742188 117.744140625 522.638671875 c 0,81,82
 95.798828125 522.638671875 95.798828125 522.638671875 78.14453125 531.995117188 c 0,83,84
 47.8818359375 548.03125 47.8818359375 548.03125 39.69921875 576.129882812 c 0,85,86
 36.5458984375 585.76171875 36.5458984375 585.76171875 36.5458984375 595.516601562 c 0,87,88
 36.5458984375 614.622070312 36.5458984375 614.622070312 48.2587890625 631.375 c 0,89,90
 65.166015625 655.556640625 65.166015625 655.556640625 97.193359375 664.135742188 c 1,91,92
 127.676757812 671.212890625 127.676757812 671.212890625 154.961914062 678 c 1,93,-1
 156.742642656 678 l 2,94,95
 160.012531566 678.583984375 160.012531566 678.583984375 189.752387617 684.993164062 c 128,-1,96
 219.492243669 691.401367188 219.492243669 691.401367188 280.231118771 702.70703125 c 1,97,98
 353.477679649 714.469726562 353.477679649 714.469726562 412.138935805 718.836914062 c 0,99,100
 418.172425169 719.583007812 418.172425169 719.583007812 422.875923616 719.826171875 c 1,101,102
 424.066881952 670.26953125 424.066881952 670.26953125 425.256528659 720.712890625 c 1,0,1
EndSplineSet
EndChar

StartChar: eight
Encoding: 56 56 27
AltUni2: 002078.ffffffff.0 002088.ffffffff.0 00ff18.ffffffff.0 002078.ffffffff.0 002088.ffffffff.0 00ff18.ffffffff.0
Width: 637
GlyphClass: 1
Flags: HW
LayerCount: 2
Fore
SplineSet
500.184980802 5.345703125 m 0,0,1
 422.406058395 -16.6884765625 422.406058395 -16.6884765625 345.937357751 -16.6884765625 c 0,2,3
 303.143888875 -16.6884765625 303.143888875 -16.6884765625 260.522361614 -9.6513671875 c 0,4,5
 251.73734469 -8.04296875 251.73734469 -8.04296875 244.799700464 -6 c 1,6,-1
 228.979739021 -6 l 1,7,8
 224.547910578 47.2470703125 224.547910578 47.2470703125 220.116082134 0.494140625 c 1,9,10
 96.322265625 28.9306640625 96.322265625 28.9306640625 52.5830078125 76.265625 c 0,11,12
 12.9296875 116.68359375 12.9296875 116.68359375 12.9296875 167.75 c 0,13,14
 12.9296875 236.916992188 12.9296875 236.916992188 87.57421875 315.375976562 c 0,15,16
 97.341796875 325.642578125 97.341796875 325.642578125 107.290039062 335.439453125 c 1,17,18
 60.591796875 384.12109375 60.591796875 384.12109375 60.591796875 444.87890625 c 128,-1,19
 60.591796875 505.63671875 60.591796875 505.63671875 113.448242188 573.625976562 c 0,20,21
 157.062826087 622.895507812 157.062826087 622.895507812 204.725308288 650.993164062 c 0,22,23
 300.574094818 706.475585938 300.574094818 706.475585938 411.794994865 706.473632812 c 0,24,25
 467.767988448 706.473632812 467.767988448 706.473632812 512.151367188 685.614257812 c 0,26,27
 530.615234375 675.708984375 530.615234375 675.708984375 559.469726562 649.50390625 c 0,28,29
 600.922851562 610.078125 600.922851562 610.078125 600.922851562 559.708984375 c 0,30,31
 600.922851562 551.23828125 600.922851562 551.23828125 599.71484375 542.596679688 c 0,32,33
 595.403320312 502.88671875 595.403320312 502.88671875 559.588867188 453.358398438 c 1,34,35
 529.887695312 416.9140625 529.887695312 416.9140625 486.119090406 381.725585938 c 0,36,37
 476.371733592 374.870117188 476.371733592 374.870117188 442.612530337 353.127929688 c 1,38,39
 487.120083838 335.708007812 487.120083838 335.708007812 492.007757493 333.477539062 c 0,40,41
 534.138671875 309.737304688 534.138671875 309.737304688 555.028320312 291.58984375 c 0,42,43
 627 230.84765625 627 230.84765625 627 149.76953125 c 0,44,45
 627 94.119140625 627 94.119140625 584.642578125 53.8623046875 c 0,46,47
 550.596679688 21.896484375 550.596679688 21.896484375 500.184980802 5.345703125 c 0,0,1
292.128962481 512.204101562 m 0,48,49
 264.365056773 480.33203125 264.365056773 480.33203125 259.31877031 459.036132812 c 0,50,51
 259.00954198 455.747070312 259.00954198 455.747070312 259.358756732 453.697265625 c 1,52,53
 293.355212758 478.172851562 293.355212758 478.172851562 322.674590284 499.646484375 c 0,54,55
 368.412392704 535.953125 368.412392704 535.953125 390.403591949 561.017578125 c 0,56,57
 404.082946932 575.048828125 404.082946932 575.048828125 408.937298569 585.541992188 c 0,58,59
 405.313195851 588.442382812 405.313195851 588.442382812 401.7397426 591.120117188 c 0,60,61
 380.794854731 587.334960938 380.794854731 587.334960938 357.849312879 572.100585938 c 128,-1,62
 334.905103908 556.866210938 334.905103908 556.866210938 292.128962481 512.204101562 c 0,48,49
196.27751019 147.047851562 m 0,63,64
 195.04459551 144.13671875 195.04459551 144.13671875 194.774020721 143.220703125 c 0,65,66
 203.232481865 136.459960938 203.232481865 136.459960938 227.196344598 126.415039062 c 0,67,68
 248.342497458 117.551757812 248.342497458 117.551757812 302.000277204 104.447265625 c 0,69,70
 311.597018496 102.103515625 311.597018496 102.103515625 319.062483492 99.650390625 c 0,71,72
 332.6778602 97.7646484375 332.6778602 97.7646484375 346.62512421 97.7646484375 c 0,73,74
 379.74054607 97.7646484375 379.74054607 97.7646484375 416.181505363 108.444335938 c 0,75,76
 438.484598701 114.918945312 438.484598701 114.918945312 445.580855734 121.194335938 c 1,77,78
 445.479556798 143.983398438 445.479556798 143.983398438 413.534404224 166.772460938 c 0,79,80
 387.400611654 186.71875 387.400611654 186.71875 299.29053067 225.029296875 c 0,81,82
 293.059313234 227.131835938 293.059313234 227.131835938 286.482879688 230.143554688 c 128,-1,83
 279.906446142 233.154296875 279.906446142 233.154296875 278.629546398 233.733398438 c 0,84,85
 266.24575149 223.723632812 266.24575149 223.723632812 245.150248098 204.694335938 c 0,86,87
 219.805520923 182.791992188 219.805520923 182.791992188 209.366399007 169.215820312 c 128,-1,88
 198.92594421 155.639648438 198.92594421 155.639648438 196.27751019 147.047851562 c 0,63,64
EndSplineSet
EndChar

StartChar: nine
Encoding: 57 57 28
AltUni2: 002079.ffffffff.0 002089.ffffffff.0 00ff19.ffffffff.0 002079.ffffffff.0 002089.ffffffff.0 00ff19.ffffffff.0
Width: 644
GlyphClass: 1
Flags: HW
LayerCount: 2
Fore
SplineSet
444.585456855 360.653320312 m 1,0,1
 449.858237699 387.431640625 449.858237699 387.431640625 449.858237699 416.016601562 c 128,-1,2
 449.858237699 444.600585938 449.858237699 444.600585938 441.494276934 474.741210938 c 0,3,4
 422.505600278 512.200195312 422.505600278 512.200195312 363.382965451 521.423828125 c 0,5,6
 342.433486437 523.720703125 342.433486437 523.720703125 324.862642081 523.720703125 c 128,-1,7
 307.293186394 523.720703125 307.293186394 523.720703125 288.730831497 524.45703125 c 0,8,9
 246.21669256 510.112304688 246.21669256 510.112304688 241.038341291 480.630859375 c 0,10,11
 240.514812617 474.951171875 240.514812617 474.951171875 240.514812617 469.459960938 c 0,12,13
 240.514812617 423.119140625 240.514812617 423.119140625 279.91833025 394.477539062 c 0,14,15
 330.585352078 360.5078125 330.585352078 360.5078125 431.237558653 360.5078125 c 0,16,17
 437.804580147 360.5078125 437.804580147 360.5078125 444.585456855 360.653320312 c 1,0,1
220.623500314 164.033203125 m 0,18,19
 260.643587527 164.033203125 260.643587527 164.033203125 299.577734625 175.512695312 c 0,20,21
 338.510493051 184.249023438 338.510493051 184.249023438 368.225258525 197.729492188 c 1,22,23
 210.838929909 209.034179688 210.838929909 209.034179688 132.420898438 278.8828125 c 0,24,25
 56.5068359375 354.983398438 56.5068359375 354.983398438 56.5068359375 470.681640625 c 0,26,27
 56.5068359375 480.623046875 56.5068359375 480.623046875 57.0888671875 491.005859375 c 0,28,29
 64.3076171875 589.204101562 64.3076171875 589.204101562 145.653320312 647.966796875 c 0,30,31
 219.148732535 689.762695312 219.148732535 689.762695312 323.536462016 689.762695312 c 0,32,33
 389.328879934 689.762695312 389.328879934 689.762695312 458.241639847 671.956054688 c 0,34,35
 543.068359375 647.439453125 543.068359375 647.439453125 582.719726562 595.897460938 c 0,36,37
 612.8359375 557.708984375 612.8359375 557.708984375 625.168945312 505.122070312 c 0,38,39
 633.474609375 460.751953125 633.474609375 460.751953125 633.474609375 413.864257812 c 0,40,41
 633.474609375 330.234375 633.474609375 330.234375 606.959960938 238.827148438 c 0,42,43
 563.8125 117.358398438 563.8125 117.358398438 453.757623691 50.98828125 c 0,44,45
 346.427302004 -1.587890625 346.427302004 -1.587890625 222.51070315 -1.587890625 c 0,46,47
 159.1015625 -1.587890625 159.1015625 -1.587890625 107.802734375 15.9775390625 c 0,48,49
 90.5302734375 18.3359375 90.5302734375 18.3359375 79.763671875 22.322265625 c 0,50,51
 57.5 32.8408203125 57.5 32.8408203125 57.5 46.125 c 0,52,53
 57.5 71.4013671875 57.5 71.4013671875 63.560546875 96.794921875 c 0,54,55
 76.919921875 148.287109375 76.919921875 148.287109375 108.959960938 168.868164062 c 0,56,57
 124.098632812 178.5 124.098632812 178.5 139.953125 178.5 c 0,58,59
 157.448242188 178.5 157.448242188 178.5 174.326171875 167.223632812 c 0,60,61
 197.406322823 164.033203125 197.406322823 164.033203125 220.623500314 164.033203125 c 0,18,19
EndSplineSet
EndChar

StartChar: colon
Encoding: 58 58 29
AltUni2: 000589.ffffffff.0 002236.ffffffff.0 00fe13.ffffffff.0 00fe55.ffffffff.0 00ff1a.ffffffff.0 000589.ffffffff.0 002236.ffffffff.0 00fe13.ffffffff.0 00fe55.ffffffff.0 00ff1a.ffffffff.0
Width: 230
GlyphClass: 1
Flags: HW
LayerCount: 2
Fore
SplineSet
13 74 m 2,0,1
 13 99.1443454028 13 99.1443454028 23.0139395028 129.186163911 c 0,2,3
 28.4817038134 142.855574688 28.4817038134 142.855574688 34.3676508574 151.684495254 c 0,4,5
 45.961322308 169.07500243 45.961322308 169.07500243 64.5982680113 181.595188534 c 1,6,7
 88.2158038461 208 88.2158038461 208 123 208 c 0,8,9
 134.510443067 208 134.510443067 208 144.513000582 205.418694835 c 0,10,11
 192.602569104 193.008483603 192.602569104 193.008483603 223.023771879 152.958004819 c 0,12,13
 248 119.656367325 248 119.656367325 248 84 c 2,14,-1
 248 81.473609867 l 1,15,16
 245.988474686 61.358356725 245.988474686 61.358356725 231.81962395 28.297705008 c 1,17,-1
 228.603074959 23.8302758534 l 2,18,19
 199.866365438 -16.0818207031 199.866365438 -16.0818207031 148.580097251 -28.9033877498 c 1,20,21
 131.548729875 -32 131.548729875 -32 119.778721604 -32 c 128,-1,22
 108.008713332 -32 108.008713332 -32 98.1556118622 -30.029379706 c 0,23,24
 62.2978163564 -22.8578206048 62.2978163564 -22.8578206048 38.7214499651 2.68324298576 c 1,25,26
 13 32.3618390993 13 32.3618390993 13 70 c 2,27,-1
 13 71 l 1,28,-1
 13 74 l 2,0,1
23 349 m 0,29,30
 23 357.966501886 23 357.966501886 24.5229294228 370.911401979 c 128,-1,31
 26.0458588455 383.856302072 26.0458588455 383.856302072 33.103929798 397.447340828 c 1,32,33
 34.008592578 414.14138212 34.008592578 414.14138212 47.7858481357 435.79135514 c 2,34,-1
 50.7456327539 440.442445254 l 1,35,-1
 54.65159375 444.34840625 l 2,36,37
 86.3031875 476 86.3031875 476 128 476 c 0,38,39
 155.72867697 476 155.72867697 476 182.754322444 461.0045312 c 0,40,41
 221.488783315 440.535756424 221.488783315 440.535756424 243.537916715 396.73585843 c 0,42,43
 260 365.119217816 260 365.119217816 260 335 c 0,44,45
 260 319.336650237 260 319.336650237 251.638706802 292.580512004 c 1,46,-1
 250.036079794 289.268416188 l 2,47,48
 234.034262543 256.197993868 234.034262543 256.197993868 202.095479919 240.965651386 c 0,49,50
 179.102985077 230 179.102985077 230 150 230 c 0,51,52
 89.701612802 230 89.701612802 230 53.8289345722 269.572698739 c 0,53,54
 23 303.827070486 23 303.827070486 23 349 c 0,29,30
EndSplineSet
EndChar

StartChar: semicolon
Encoding: 59 59 30
AltUni2: 00037e.ffffffff.0 00fe14.ffffffff.0 00fe54.ffffffff.0 00ff1b.ffffffff.0 00037e.ffffffff.0 00fe14.ffffffff.0 00fe54.ffffffff.0 00ff1b.ffffffff.0
Width: 212
GlyphClass: 1
Flags: HW
LayerCount: 2
Fore
SplineSet
119.648834019 412.703703704 m 0,0,1
 137.737030122 412.703703704 137.737030122 412.703703704 155.584178008 405.013700949 c 0,2,3
 185.740358612 392.306633785 185.740358612 392.306633785 205.874644729 373.693282259 c 0,4,5
 244.256410256 338.210858732 244.256410256 338.210858732 244.256410256 286.386587771 c 0,6,7
 244.256410256 232.932354157 244.256410256 232.932354157 199.490439095 195.16106599 c 1,8,9
 164.691454116 167.974358974 164.691454116 167.974358974 125.741617357 167.974358974 c 0,10,11
 103.91278741 167.974358974 103.91278741 167.974358974 81.4825718884 176.946445183 c 1,12,13
 45.244699775 193.253487634 45.244699775 193.253487634 25.6865746546 228.813715126 c 1,14,15
 12 256.186864435 12 256.186864435 12 293 c 2,16,-1
 12 298 l 1,17,-1
 12 306 l 1,18,-1
 12 310.418056746 l 1,19,-1
 12.7616389929 314.734011039 l 2,20,21
 18.645447707 348.075593752 18.645447707 348.075593752 42.0138007072 368.710613207 c 1,22,-1
 45.65159375 372.34840625 l 1,23,-1
 48.5553624926 375.252174993 l 1,24,-1
 49.8886958259 377.585508326 l 1,25,-1
 54.65159375 382.34840625 l 1,26,-1
 59.65159375 387.34840625 l 1,27,-1
 60.1603297679 387.857142268 l 1,28,29
 86.4684536411 412.703703704 86.4684536411 412.703703704 119.648834019 412.703703704 c 0,0,1
251.761904762 37.1292517007 m 0,30,31
 251.761904762 27.2052581312 251.761904762 27.2052581312 250.77259988 17.2008677034 c 0,32,33
 245.562242364 -39.5152447397 245.562242364 -39.5152447397 214.853078412 -84.5989116257 c 0,34,35
 181.722191242 -133.237873642 181.722191242 -133.237873642 127.803060966 -151.447094812 c 0,36,37
 113.894345403 -156.083333333 113.894345403 -156.083333333 96.7690690896 -156.083333333 c 128,-1,38
 79.6437927765 -156.083333333 79.6437927765 -156.083333333 62.6913696366 -148.172202535 c 0,39,40
 25.3288144336 -130.73634344 25.3288144336 -130.73634344 14.9780829302 -93.9770215776 c 0,41,42
 4.60296326676 -59.5874947041 4.60296326676 -59.5874947041 19.9443784499 -27.8088489675 c 0,43,44
 28.73655801 -9.59647702175 28.73655801 -9.59647702175 41.8821599211 0.996580829 c 128,-1,45
 55.0277618323 11.5896386798 55.0277618323 11.5896386798 68.8491894153 16.6280295132 c 1,46,47
 74.4 25.3226185182 74.4 25.3226185182 74.4 36.48 c 0,48,49
 74.4 37.055196427 74.4 37.055196427 74.383631721 37.570033261 c 0,50,51
 45.1054662195 50.4751671592 45.1054662195 50.4751671592 30.9443784499 79.8088489675 c 0,52,53
 21.9166666667 98.50910909 21.9166666667 98.50910909 21.9166666667 115.583963713 c 0,54,55
 21.9166666667 149.944879659 21.9166666667 149.944879659 41.1090359822 174.330476792 c 0,56,57
 53.7594865163 190.403990412 53.7594865163 190.403990412 72.7016396464 199.243661873 c 128,-1,58
 91.6437927765 208.083333333 91.6437927765 208.083333333 108.76906909 208.083333333 c 128,-1,59
 125.894345403 208.083333333 125.894345403 208.083333333 139.803060966 203.447094812 c 0,60,61
 201.20139597 182.980983144 201.20139597 182.980983144 233.021268101 120.787596706 c 1,62,63
 251.761904762 79.9991522085 251.761904762 79.9991522085 251.761904762 37.1292517007 c 0,30,31
EndSplineSet
EndChar

StartChar: less
Encoding: 60 60 31
AltUni2: 002039.ffffffff.0 002329.ffffffff.0 003008.ffffffff.0 00fe64.ffffffff.0 00ff1c.ffffffff.0 002039.ffffffff.0 002329.ffffffff.0 003008.ffffffff.0 00fe64.ffffffff.0 00ff1c.ffffffff.0
Width: 390
GlyphClass: 1
Flags: HW
LayerCount: 2
Fore
SplineSet
429.516634403 593.137699687 m 128,-1,1
 429.52173913 556.090116549 429.52173913 556.090116549 404.648408856 530.953180701 c 0,2,3
 365.091561738 490.308646498 365.091561738 490.308646498 324.094333613 450.482954565 c 0,4,5
 222.10077129 351.40395879 222.10077129 351.40395879 210.412137625 339.996574732 c 128,-1,6
 198.72350396 328.589190674 198.72350396 328.589190674 187.023996966 316.122971983 c 0,7,8
 188.547611174 314.330185545 188.547611174 314.330185545 207.557908904 294.207756779 c 0,9,10
 239.141057027 260.776946947 239.141057027 260.776946947 241.762094914 257.758782107 c 0,11,12
 275.3593381 219.071047529 275.3593381 219.071047529 311.862012435 172.45945432 c 1,13,-1
 326.978562567 161.425848405 l 2,14,15
 333.302301531 156.156065935 333.302301531 156.156065935 338.229654117 151.791740724 c 1,16,-1
 339.372067982 151.220533792 l 1,17,-1
 343.753296842 147.612462966 l 2,18,19
 367.22719126 128.281020503 367.22719126 128.281020503 380.040674633 107.459110023 c 0,20,21
 395.827586207 79.8320147685 395.827586207 79.8320147685 395.827586207 54.3352514216 c 128,-1,22
 395.827586207 28.8384880747 395.827586207 28.8384880747 385.604979533 7.436079543 c 0,23,24
 377.837101419 -10.6404066881 377.837101419 -10.6404066881 364.811742196 -22.1899865754 c 0,25,26
 338.219595223 -45.7692307692 338.219595223 -45.7692307692 304.51183432 -45.7692307692 c 0,27,28
 284.954468141 -45.7692307692 284.954468141 -45.7692307692 265.69887343 -36.3614425784 c 128,-1,29
 246.44327872 -26.9536543875 246.44327872 -26.9536543875 234.830816753 -12.1034659926 c 128,-1,30
 223.218354786 2.74672240227 223.218354786 2.74672240227 218.760822714 19.7391584327 c 1,31,32
 205.012007576 29.4322968201 205.012007576 29.4322968201 191.676913708 41.9564728183 c 128,-1,33
 178.341819839 54.4806488165 178.341819839 54.4806488165 167.854290063 67.9685898939 c 128,-1,34
 157.366760286 81.4565309713 157.366760286 81.4565309713 108.442585215 139.982547208 c 1,35,-1
 59.3577438422 192.994249587 l 2,36,37
 29.3816409147 225.276206586 29.3816409147 225.276206586 17.4725417646 246.392945961 c 0,38,39
 -1.799998665 280.204191017 -1.799998665 280.204191017 -1.8 317.08 c 0,40,41
 -1.8 365.172207697 -1.8 365.172207697 35.736061957 412.945377461 c 0,42,43
 52.564175693 434.260988193 52.564175693 434.260988193 90.3109665711 472.007779071 c 1,44,45
 145.880166116 523.607750077 145.880166116 523.607750077 277.04266113 654.739545932 c 0,46,47
 302.803616604 682 302.803616604 682 340.250214552 682 c 128,-1,48
 377.6968125 682 377.6968125 682 403.604171088 656.092641412 c 128,-1,0
 429.511529676 630.185282824 429.511529676 630.185282824 429.516634403 593.137699687 c 128,-1,1
EndSplineSet
Substitution2: "'rtla' Right to Left Alternates lookup 0 subtable" greater
EndChar

StartChar: equal
Encoding: 61 61 32
AltUni2: 00207c.ffffffff.0 00208c.ffffffff.0 00fe66.ffffffff.0 00ff1d.ffffffff.0 00207c.ffffffff.0 00208c.ffffffff.0 00fe66.ffffffff.0 00ff1d.ffffffff.0
Width: 546
GlyphClass: 1
Flags: HW
LayerCount: 2
Fore
SplineSet
584.083333333 369.361111111 m 0,0,1
 584.083333333 335.564792656 584.083333333 335.564792656 560.152611794 309.458550976 c 0,2,3
 535.834664527 282.929881231 535.834664527 282.929881231 499.039470562 281.040922604 c 0,4,5
 391.888187464 276.733333333 391.888187464 276.733333333 296.713863164 276.733333333 c 128,-1,6
 201.539538865 276.733333333 201.539538865 276.733333333 116.426872417 280.06176163 c 0,7,8
 80.392152368 282.313931633 80.392152368 282.313931633 55.696076184 308.132556735 c 128,-1,9
 31 333.951181836 31 333.951181836 31 370 c 2,10,-1
 31 371.492222967 l 1,11,12
 33.273992773 410.150100108 33.273992773 410.150100108 59.4193927143 434.11671672 c 128,-1,13
 85.5647926556 458.083333333 85.5647926556 458.083333333 119.361111111 458.083333333 c 0,14,15
 121.916605844 458.083333333 121.916605844 458.083333333 124.486547038 457.941222926 c 0,16,17
 297.038958851 451.059795929 297.038958851 451.059795929 490.488434174 458.939836062 c 0,18,19
 493.070954422 459.083332988 493.070954422 459.083332988 495.638888889 459.083333333 c 0,20,21
 529.435207344 459.083333333 529.435207344 459.083333333 555.541449024 435.152611794 c 0,22,23
 584.083333333 408.989217843 584.083333333 408.989217843 584.083333333 369.361111111 c 0,0,1
123.3152 72.92 m 0,24,25
 87.3831875 72.92 87.3831875 72.92 61.69159375 98.61159375 c 128,-1,26
 36 124.3031875 36 124.3031875 36 160.676002832 c 128,-1,27
 36 197.048818164 36 197.048818164 60.696076184 222.867443265 c 128,-1,28
 85.392152368 248.686068367 85.392152368 248.686068367 121.930065416 250.969687932 c 1,29,30
 382.935451252 255.969791109 382.935451252 255.969791109 492.077396694 261.916094429 c 0,31,32
 496.261459504 262.083342575 496.261459504 262.083342575 496.943483888 262.083342575 c 128,-1,33
 497.625508271 262.083342575 497.625508271 262.083342575 497.635416667 262.083333333 c 0,34,35
 532.007151497 262.083333333 532.007151497 262.083333333 556.711475609 238.45311027 c 128,-1,36
 581.41579972 214.822887207 581.41579972 214.822887207 585.804457067 179.713628435 c 0,37,38
 586.083333333 175.251608167 586.083333333 175.251608167 586.083333333 172.361111111 c 0,39,40
 586.083333333 138.564792656 586.083333333 138.564792656 562.152611794 112.458550976 c 128,-1,41
 538.065948151 86.1821906381 538.065948151 86.1821906381 501.712644024 84.0724820069 c 0,42,43
 389.020048914 78.0353786975 389.020048914 78.0353786975 127.79813404 73.0251147791 c 0,44,45
 124.425210087 72.9199964586 124.425210087 72.9199964586 123.3152 72.92 c 0,24,25
EndSplineSet
EndChar

StartChar: greater
Encoding: 62 62 33
AltUni2: 00203a.ffffffff.0 00232a.ffffffff.0 003009.ffffffff.0 00fe65.ffffffff.0 00ff1e.ffffffff.0 00203a.ffffffff.0 00232a.ffffffff.0 003009.ffffffff.0 00fe65.ffffffff.0 00ff1e.ffffffff.0
Width: 361
GlyphClass: 1
Flags: HW
LayerCount: 2
Fore
SplineSet
79.3611111111 682.083333333 m 0,0,1
 118.989217844 682.083333333 118.989217844 682.083333333 146.156955631 652.445801201 c 0,2,3
 199.570417504 592.108372048 199.570417504 592.108372048 244.731263903 544.965446993 c 0,4,5
 286.342409323 503.331309029 286.342409323 503.331309029 317.208258552 467.405491438 c 0,6,7
 354.514186991 427.716780067 354.514186991 427.716780067 367.189165513 409.33806121 c 0,8,9
 400.842105263 360.541298573 400.842105263 360.541298573 400.842105263 316.587257618 c 0,10,11
 400.842105263 282.636773044 400.842105263 282.636773044 383.191981986 249.603648623 c 0,12,13
 370.650828683 225.830575828 370.650828683 225.830575828 344.685703883 195.144519245 c 1,14,-1
 344.171065428 194.572698739 l 1,15,-1
 336.852010282 186.440415244 l 1,16,17
 328.247536021 174.807563398 328.247536021 174.807563398 316.749468511 161.309831973 c 2,18,-1
 299.899803539 141.400462888 l 2,19,20
 270.568610178 107.338431887 270.568610178 107.338431887 242.137965687 66.5878414497 c 0,21,22
 229.306340101 48.0532711598 229.306340101 48.0532711598 200.465846072 23.9805442677 c 0,23,24
 199.722566201 23.3281892229 199.722566201 23.3281892229 199.018028307 22.703133231 c 0,25,26
 196.149704136 9.46661079499 196.149704136 9.46661079499 189.590274557 -1.77362261361 c 0,27,28
 175.211199644 -26.4135895832 175.211199644 -26.4135895832 146.518805716 -38.0559601474 c 0,29,30
 129.453019386 -45.6296293428 129.453019386 -45.6296293428 111.578875171 -45.6296296296 c 128,-1,31
 93.7712292938 -45.6296296296 93.7712292938 -45.6296296296 77.0875978966 -38.1507603826 c 0,32,33
 45.5583514032 -24.0169602304 45.5583514032 -24.0169602304 30.0736977941 9.16444036054 c 1,34,35
 21.8333333333 29.7653515125 21.8333333333 29.7653515125 21.8333333333 50.0069444444 c 0,36,37
 21.8333333333 77.0826196463 21.8333333333 77.0826196463 35.5915316446 102.991016994 c 0,38,39
 47.8275765512 127.094856909 47.8275765512 127.094856909 69.5176965671 145.196633229 c 0,40,41
 82.6133562523 158.046371003 82.6133562523 158.046371003 88.3605196785 162.260957515 c 128,-1,42
 94.1076831046 166.475544028 94.1076831046 166.475544028 98.102879238 170.157989755 c 0,43,44
 133.6147003 219.817140821 133.6147003 219.817140821 162.386422539 254.754228965 c 2,45,-1
 208.631737344 310.047540144 l 2,46,47
 213.029002334 315.221346882 213.029002334 315.221346882 214.07829007 316.493262668 c 0,48,49
 203.227379689 329.508371703 203.227379689 329.508371703 185.995995171 347.355162811 c 1,50,51
 156.283818065 382.019369435 156.283818065 382.019369435 117.255875395 421.047312105 c 1,52,53
 50.3011104439 491.045475463 50.3011104439 491.045475463 13.4561997066 533.985190484 c 0,54,55
 -9.0833308067 559.170611667 -9.0833308067 559.170611667 -9.08333333333 592.361111111 c 0,56,57
 -9.08333333333 631.989217843 -9.08333333333 631.989217843 20.2322859609 658.861868863 c 0,58,59
 45.5647926556 682.083333333 45.5647926556 682.083333333 79.3611111111 682.083333333 c 0,0,1
EndSplineSet
Substitution2: "'rtla' Right to Left Alternates lookup 0 subtable" less
EndChar

StartChar: question
Encoding: 63 63 34
AltUni2: 00fe16.ffffffff.0 00fe56.ffffffff.0 00ff1f.ffffffff.0 00fe16.ffffffff.0 00fe56.ffffffff.0 00ff1f.ffffffff.0
Width: 464
GlyphClass: 1
Flags: HW
LayerCount: 2
Fore
SplineSet
265.821005917 129.653846154 m 0,0,1
 287.161000594 129.653846154 287.161000594 129.653846154 307.773622915 120.933121326 c 0,2,3
 350.592832338 102.09266918 350.592832338 102.09266918 366.62555263 64.5215461828 c 0,4,5
 376.759999789 43.2963695976 376.759999789 43.2963695976 376.759999895 19.7535734226 c 128,-1,6
 376.76 -3.7892227524 376.76 -3.7892227524 364.382678379 -27.0411775631 c 0,7,8
 344.367542801 -66.3581023959 344.367542801 -66.3581023959 293.910027116 -89.4243951906 c 0,9,10
 275.900810033 -97.7363415367 275.900810033 -97.7363415367 254.998312657 -102.215448117 c 0,11,12
 243.767966772 -103.9 243.767966772 -103.9 234.27 -103.9 c 0,13,14
 210.988055255 -103.9 210.988055255 -103.9 187.745231288 -94.3294254254 c 1,15,16
 164.280779914 -81.8639356332 164.280779914 -81.8639356332 151.137918218 -64.7129223643 c 0,17,18
 132.743589744 -40.7089132676 132.743589744 -40.7089132676 132.743589744 -9.65746219592 c 0,19,20
 132.743589744 32.9818883451 132.743589744 32.9818883451 164.08817533 70.5953910488 c 0,21,22
 172.048493136 79.5507485806 172.048493136 79.5507485806 176.372404251 84.0278350856 c 0,23,24
 190.93030224 102.218842924 190.93030224 102.218842924 209.467609447 114.015311147 c 1,25,26
 237.61697246 129.653846154 237.61697246 129.653846154 265.821005917 129.653846154 c 0,0,1
39.68 493.9568 m 0,27,28
 39.68 499.293773367 39.68 499.293773367 40.3158209256 504.660377502 c 0,29,30
 48.2624243111 579.825620718 48.2624243111 579.825620718 107.497360593 644.155495366 c 0,31,32
 159.081832581 699.257090444 159.081832581 699.257090444 226.627887171 726.51251598 c 0,33,34
 276.126493129 745.720930233 276.126493129 745.720930233 320.173607355 745.720930233 c 0,35,36
 350.672755287 745.720930233 350.672755287 745.720930233 378.253672677 736.629209913 c 0,37,38
 428.697239315 720.933201146 428.697239315 720.933201146 460.395421005 681.310476742 c 0,39,40
 485.072962954 650.463549306 485.072962954 650.463549306 496.418694835 607.513000582 c 0,41,42
 504.095238095 577.766395448 504.095238095 577.766395448 504.095238095 546.600907029 c 0,43,44
 504.095238095 468.866392993 504.095238095 468.866392993 454.610376422 381.540166511 c 0,45,46
 445.178551386 364.772477557 445.178551386 364.772477557 422.54478448 327.73540444 c 2,47,-1
 395.715528261 282.732700613 l 1,48,-1
 394.693894689 280.434025075 l 1,49,50
 376.624568412 248.81270409 376.624568412 248.81270409 371.015900616 227.980509422 c 0,51,52
 369.997004449 221.846667944 369.997004449 221.846667944 369.022164247 218.825613145 c 128,-1,53
 368.047324044 215.804558345 368.047324044 215.804558345 366.750274768 210.184011482 c 2,54,-1
 361.511210967 189.851195618 l 1,55,-1
 360.190256343 184.56737712 l 2,56,57
 358.690256343 181.56737712 358.690256343 181.56737712 358.043760536 178.981393894 c 0,58,59
 352.994452596 158.784162135 352.994452596 158.784162135 345.383499081 149.245417222 c 0,60,61
 336.259721363 134.964964536 336.259721363 134.964964536 324.660089459 126.191186808 c 0,62,63
 305.278746583 109.141182702 305.278746583 109.141182702 272.149284968 105 c 1,64,-1
 269 105 l 2,65,66
 251.483696247 105 251.483696247 105 233.997293539 111.541675833 c 128,-1,67
 216.51089083 118.083351667 216.51089083 118.083351667 202.223111487 134.11328774 c 0,68,69
 192.387840051 144.411184333 192.387840051 144.411184333 183.668790162 161.84928411 c 1,70,71
 178.680348261 176.814609813 178.680348261 176.814609813 178.16400204 183.994006575 c 0,72,73
 176 198.356431171 176 198.356431171 176 215.09842661 c 128,-1,74
 176 231.84042205 176 231.84042205 182.597168305 246.198964832 c 128,-1,75
 189.194336611 260.557507614 189.194336611 260.557507614 198.077019551 270.501726453 c 1,76,-1
 199.488789033 276.148804382 l 1,77,-1
 199.644986092 276.773592618 l 1,78,79
 211.499569962 319.450094549 211.499569962 319.450094549 238.598937632 365.831693557 c 0,80,81
 251.75034108 389.18046599 251.75034108 389.18046599 270.25837023 419.94392751 c 0,82,83
 309.608221374 484.590111532 309.608221374 484.590111532 317.655962539 506.987220931 c 128,-1,84
 325.703703704 529.384330329 325.703703704 529.384330329 325.703703704 546.22085048 c 0,85,86
 325.703703704 558.471808444 325.703703704 558.471808444 321.943788984 567.707051476 c 0,87,88
 320.911813482 567.782608696 320.911813482 567.782608696 319.765595463 567.782608696 c 0,89,90
 308.968976153 567.782608696 308.968976153 567.782608696 292.519754757 561.541422993 c 0,91,92
 262.214738845 548.832545899 262.214738845 548.832545899 241.228798693 525.782416681 c 128,-1,93
 220.24285854 502.732287463 220.24285854 502.732287463 217.748777357 485.780911053 c 0,94,95
 216.422668023 470.346203213 216.422668023 470.346203213 209.035113336 454.53424434 c 128,-1,96
 201.64755865 438.722285467 201.64755865 438.722285467 185.382543472 425.585157823 c 0,97,98
 160.738062357 405.68 160.738062357 405.68 130.0432 405.68 c 0,99,100
 86.188488096 405.68 86.188488096 405.68 59.5851578231 438.617456528 c 0,101,102
 39.68 463.261937643 39.68 463.261937643 39.68 493.9568 c 0,27,28
EndSplineSet
EndChar

StartChar: at
Encoding: 64 64 35
AltUni2: 00fe6b.ffffffff.0 00ff20.ffffffff.0 00fe6b.ffffffff.0 00ff20.ffffffff.0
Width: 537
GlyphClass: 1
Flags: HW
LayerCount: 2
Fore
SplineSet
442.010204082 173.714285714 m 0,0,1
 420.518152771 173.714285714 420.518152771 173.714285714 400.825324648 181.225979235 c 1,2,3
 376.797176086 158.235910313 376.797176086 158.235910313 352.780300883 146.573794964 c 1,4,5
 383.960839476 137.97826087 383.960839476 137.97826087 419.18194707 137.97826087 c 2,6,-1
 421.430013476 137.987161278 l 2,7,8
 424.514240429 138.080002926 424.514240429 138.080002926 425.5312 138.08 c 0,9,10
 460.6168125 138.08 460.6168125 138.08 485.671343883 113.025468617 c 128,-1,11
 510.725875267 87.9709372333 510.725875267 87.9709372333 513 51.5849415004 c 1,12,-1
 513 50 l 2,13,14
 513 13.9511818361 513 13.9511818361 488.267519089 -11.9055027522 c 128,-1,15
 463.535038179 -37.7621873405 463.535038179 -37.7621873405 425.936596831 -39.9738603609 c 1,16,-1
 424.892650746 -39.9921752045 l 2,17,18
 420.712908729 -40.0655040118 420.712908729 -40.0655040118 416.55253964 -40.0655737705 c 0,19,20
 292.214830302 -40.0655737705 292.214830302 -40.0655737705 194.671278204 25.1294017016 c 0,21,22
 98.8023322652 86.5463606325 98.8023322652 86.5463606325 53.9146936571 193.586120662 c 0,23,24
 25.1034482759 261.823280775 25.1034482759 261.823280775 25.1034482759 334.794292509 c 0,25,26
 25.1034482759 374.851249495 25.1034482759 374.851249495 33.1999314612 412.927981367 c 0,27,28
 59.3893714383 530.211125612 59.3893714383 530.211125612 152.868119017 622.563623221 c 2,29,-1
 154.743345305 624.41625642 l 1,30,31
 162.65100214 630.742381888 162.65100214 630.742381888 169.875449521 639.572262021 c 1,32,-1
 171.65159375 641.34840625 l 1,33,-1
 176.519911801 646.216724301 l 1,34,35
 181.46923952 652.765833235 181.46923952 652.765833235 188.551164073 658.153069166 c 0,36,37
 208.516932915 676.317463132 208.516932915 676.317463132 241.196939034 687.447094812 c 0,38,39
 246.796329725 689.313558376 246.796329725 689.313558376 258.319857201 691.905982135 c 128,-1,40
 269.843384665 694.498405891 269.843384665 694.498405891 279.786164851 696.735350556 c 0,41,42
 303.466635908 702.170212766 303.466635908 702.170212766 328.050248981 702.170212766 c 0,43,44
 385.204247726 702.170212766 385.204247726 702.170212766 443.31210225 673.750516658 c 0,45,46
 534.718166163 628.047484701 534.718166163 628.047484701 559.798952404 547.705103202 c 0,47,48
 576.25 494.239198515 576.25 494.239198515 576.25 431.1875 c 0,49,50
 576.25 398.874243573 576.25 398.874243573 573.161446539 350.456677864 c 128,-1,51
 570.072893078 302.039112154 570.072893078 302.039112154 556.389512486 264.681311172 c 128,-1,52
 542.706131894 227.32351019 542.706131894 227.32351019 518.921810401 204.259925713 c 1,53,54
 484.210855858 173.714285714 484.210855858 173.714285714 442.010204082 173.714285714 c 0,0,1
EndSplineSet
EndChar

StartChar: A
Encoding: 65 65 36
AltUni2: 000391.ffffffff.0 000410.ffffffff.0 0013aa.ffffffff.0 001d2c.ffffffff.0 00ff21.ffffffff.0 000391.ffffffff.0 000410.ffffffff.0 0013aa.ffffffff.0 001d2c.ffffffff.0 00ff21.ffffffff.0
Width: 636
GlyphClass: 1
Flags: W
HStem: 735.5 20G<440.395 450.939>
VStem: 56.0381 184.615<32.6326 191.439> 422.813 190.087<61.3294 245.676 394.771 559.5>
LayerCount: 2
Fore
SplineSet
413.454819379 561.323242188 m 1,0,1
 393.812301663 541.6015625 393.812301663 541.6015625 375.288768037 518.0390625 c 0,2,3
 313.384268494 440.729492188 313.384268494 440.729492188 274.554959665 335.594726562 c 1,4,5
 344.470431775 363.662109375 344.470431775 363.662109375 422.230010403 404.8671875 c 1,6,7
 422.813340455 429.103515625 422.813340455 429.103515625 422.813340455 450.889648438 c 0,8,9
 422.813340455 518.671875 422.813340455 518.671875 413.454819379 561.323242188 c 1,0,1
56.0380859375 140.541015625 m 0,10,11
 56.0380859375 264.797851562 56.0380859375 264.797851562 90.501953125 399.203125 c 0,12,13
 120.866210938 510.069335938 120.866210938 510.069335938 171.79296875 599.615234375 c 0,14,15
 243.066354737 689.69921875 243.066354737 689.69921875 336.638945378 740.64453125 c 0,16,17
 370.052819925 752.03515625 370.052819925 752.03515625 422.845591876 754.892578125 c 0,18,19
 435.123567685 755.5 435.123567685 755.5 445.666977929 755.5 c 128,-1,20
 456.210388174 755.5 456.210388174 755.5 466.456524449 754.970703125 c 0,21,22
 510.236328125 753.739257812 510.236328125 753.739257812 535.778320312 742.077148438 c 1,23,24
 563.846679688 720.47265625 563.846679688 720.47265625 582.106445312 685.521484375 c 0,25,26
 600.788085938 643.85546875 600.788085938 643.85546875 606.84375 589.130859375 c 0,27,28
 612.900390625 528.76953125 612.900390625 528.76953125 612.900390625 444.080078125 c 0,29,30
 612.900390625 362.61328125 612.900390625 362.61328125 610.961914062 341.198242188 c 0,31,32
 609.04296875 222.735351562 609.04296875 222.735351562 610.95703125 194.65625 c 1,33,34
 612.811523438 128.774414062 612.811523438 128.774414062 622.079101562 97.935546875 c 0,35,36
 625.454101562 79.4736328125 625.454101562 79.4736328125 625.454101562 60.744140625 c 0,37,38
 625.454101562 52.650390625 625.454101562 52.650390625 613.741210938 45.5537109375 c 0,39,40
 596.833984375 33.98046875 596.833984375 33.98046875 565.705078125 29.990234375 c 0,41,42
 553.82421875 28.5458984375 553.82421875 28.5458984375 541.744140625 28.5458984375 c 0,43,44
 519.798828125 28.5458984375 519.798828125 28.5458984375 498.42048728 32.96875 c 0,45,46
 458.536697204 40.1650390625 458.536697204 40.1650390625 444.462457461 53.7236328125 c 1,47,48
 421.671920594 106.219726562 421.671920594 106.219726562 420.094405429 187.25390625 c 0,49,50
 419.822371702 215.106445312 419.822371702 215.106445312 419.652701182 245.67578125 c 1,51,52
 406.342679897 240.84375 406.342679897 240.84375 403.670018649 239.96875 c 0,53,54
 316.289700868 207.323242188 316.289700868 207.323242188 240.664324979 187.270507812 c 0,55,56
 240.653107093 162.391601562 240.653107093 162.391601562 240.653107093 137.715820312 c 0,57,58
 240.653107093 76.7333984375 240.653107093 76.7333984375 261.847899732 35.6591796875 c 0,59,60
 267.1960267 16.1318359375 267.1960267 16.1318359375 267.1960267 -3.6875 c 0,61,62
 267.1960267 -11.5048828125 267.1960267 -11.5048828125 252.171071151 -18.4462890625 c 0,63,64
 228.718679032 -30.052734375 228.718679032 -30.052734375 182.739370358 -34.009765625 c 0,65,66
 168.3515625 -35.599609375 168.3515625 -35.599609375 155.83984375 -35.599609375 c 0,67,68
 136.133789062 -35.599609375 136.133789062 -35.599609375 118.97265625 -32.3173828125 c 0,69,70
 88.3427734375 -26.0009765625 88.3427734375 -26.0009765625 78.1875 -12.9560546875 c 0,71,72
 56.0380859375 52.95703125 56.0380859375 52.95703125 56.0380859375 140.541015625 c 0,10,11
EndSplineSet
EndChar

StartChar: B
Encoding: 66 66 37
AltUni2: 000392.ffffffff.0 000412.ffffffff.0 0013f4.ffffffff.0 001d2e.ffffffff.0 00212c.ffffffff.0 00ff22.ffffffff.0 000392.ffffffff.0 000412.ffffffff.0 0013f4.ffffffff.0 001d2e.ffffffff.0 00212c.ffffffff.0 00ff22.ffffffff.0
Width: 652
GlyphClass: 1
Flags: W
HStem: -26.8916 760.02<122.976 272.938>
VStem: 67 1<124.33 125.067> 68 211.287<98.9209 150.374 150.496 151.295 152.352 161.61 172.444 277.772 474.674 536.353> 438.503 185.239<145.066 208.285>
LayerCount: 2
Fore
SplineSet
366.330020645 529.776367188 m 1,0,1
 384.495426532 546.063476562 384.495426532 546.063476562 384.495426532 556.58203125 c 0,2,3
 384.495426532 559.807617188 384.495426532 559.807617188 382.6815129 563.661132812 c 0,4,5
 373.458267771 583.706054688 373.458267771 583.706054688 334.411182725 600.215820312 c 0,6,7
 307.382424784 611.022460938 307.382424784 611.022460938 278.9837089 613.958007812 c 1,8,9
 274.84493855 545.823242188 274.84493855 545.823242188 273.451337997 474.673828125 c 1,10,11
 284.086572376 477.9453125 284.086572376 477.9453125 295.529595954 481.416992188 c 0,12,13
 320.769396352 491.400390625 320.769396352 491.400390625 335.071862346 502.033203125 c 128,-1,14
 349.373014861 512.666992188 349.373014861 512.666992188 366.330020645 529.776367188 c 1,0,1
415.19798348 132.606445312 m 0,15,16
 438.503030236 149.438476562 438.503030236 149.438476562 438.503030236 167.266601562 c 0,17,18
 438.503030236 191.45703125 438.503030236 191.45703125 400.479144842 223.546875 c 128,-1,19
 362.455259448 255.637695312 362.455259448 255.637695312 310.762004635 270.2421875 c 0,20,21
 290.680233804 275.916015625 290.680233804 275.916015625 273.049413615 277.772460938 c 1,22,23
 273.645732796 226.229492188 273.645732796 226.229492188 275.405793815 144.9453125 c 1,24,-1
 279.287122404 98.9208984375 l 1,25,26
 345.292037559 108.321289062 345.292037559 108.321289062 376.308515838 117.537109375 c 128,-1,27
 407.324994117 126.752929688 407.324994117 126.752929688 415.19798348 132.606445312 c 0,15,16
22.525390625 549.309570312 m 0,28,29
 -6.111328125 570.223632812 -6.111328125 570.223632812 -6.111328125 604.404296875 c 0,30,31
 -6.111328125 629.203125 -6.111328125 629.203125 12.013671875 650.96484375 c 1,32,33
 12.849609375 618.122070312 12.849609375 618.122070312 13.685546875 652.6015625 c 2,34,35
 84.384765625 721.7890625 84.384765625 721.7890625 211.142550981 730.673828125 c 0,36,37
 236.181389188 733.127929688 236.181389188 733.127929688 260.996936073 733.127929688 c 0,38,39
 356.798108099 733.127929688 356.798108099 733.127929688 443.943457653 697.709960938 c 0,40,41
 547.204101562 654.918945312 547.204101562 654.918945312 573.573242188 583.89453125 c 0,42,43
 583.384765625 557.467773438 583.384765625 557.467773438 583.384765625 530.892578125 c 0,44,45
 583.384765625 471.984375 583.384765625 471.984375 534.930664062 416.333007812 c 1,46,47
 509.918945312 390.841796875 509.918945312 390.841796875 495.741790735 380.083984375 c 1,48,49
 527.692382812 360.895507812 527.692382812 360.895507812 552.369140625 336.493164062 c 0,50,51
 623.7421875 266.873046875 623.7421875 266.873046875 623.7421875 189.305664062 c 128,-1,52
 623.7421875 111.73828125 623.7421875 111.73828125 555.8671875 55.1787109375 c 0,53,54
 522.568359375 26.3232421875 522.568359375 26.3232421875 445.857195641 6.86328125 c 0,55,56
 399.325910831 -5.4130859375 399.325910831 -5.4130859375 310.059293706 -18 c 1,57,-1
 306.351344261 -18 l 2,58,59
 303.386823576 -18.3388671875 303.386823576 -18.3388671875 293.309817505 -19.7734375 c 0,60,61
 282.25952396 -23.03515625 282.25952396 -23.03515625 266.214072167 -24.9189453125 c 128,-1,62
 250.167306895 -26.802734375 250.167306895 -26.802734375 247.630980158 -26.8916015625 c 0,63,64
 184.037611294 -35.9306640625 184.037611294 -35.9306640625 157.716818195 -40.9111328125 c 128,-1,65
 131.394711618 -45.890625 131.394711618 -45.890625 122.699484795 -45.890625 c 0,66,67
 122.321203024 -45.890625 122.321203024 -45.890625 121.981012126 -45.8798828125 c 0,68,69
 100.76953125 -45.8798828125 100.76953125 -45.8798828125 83.4833984375 -36.890625 c 0,70,71
 52.9072265625 -20.9921875 52.9072265625 -20.9921875 42.5390625 12.171875 c 0,72,73
 37.7275390625 25.7421875 37.7275390625 25.7421875 37.7275390625 41.82421875 c 0,74,75
 37.7275390625 55.8671875 37.7275390625 55.8671875 45.7314453125 71.0107421875 c 0,76,77
 53.8720703125 86.4130859375 53.8720703125 86.4130859375 68.953125 97.037109375 c 1,78,79
 68.791015625 110.392578125 68.791015625 110.392578125 68 122.830078125 c 2,80,81
 68 156.760742188 68 156.760742188 68 124.061523438 c 2,82,83
 68 132.663085938 68 132.663085938 67 139.649414062 c 1,84,85
 67 172.110351562 67 172.110351562 67 142.399414062 c 1,86,87
 67 176.432617188 67 176.432617188 67 149.548828125 c 1,88,89
 66.5 180.31640625 66.5 180.31640625 66 151.294921875 c 1,90,91
 66 185.583007812 66 185.583007812 66 161.610351562 c 1,92,93
 66 194.817382812 66 194.817382812 66 172.444335938 c 1,94,95
 61.001953125 359.877929688 61.001953125 359.877929688 65.7197265625 531.690429688 c 1,96,97
 41.337890625 534.922851562 41.337890625 534.922851562 22.525390625 549.309570312 c 0,28,29
EndSplineSet
EndChar

StartChar: C
Encoding: 67 67 38
AltUni2: 000421.ffffffff.0 0013df.ffffffff.0 002102.ffffffff.0 00212d.ffffffff.0 00216d.ffffffff.0 00a7f2.ffffffff.0 00ff23.ffffffff.0 000421.ffffffff.0 0013df.ffffffff.0 002102.ffffffff.0 00212d.ffffffff.0 00216d.ffffffff.0 00a7f2.ffffffff.0 00ff23.ffffffff.0
Width: 701
GlyphClass: 1
Flags: W
HStem: -1.35547 168.074<245.138 483.838> 23 162<353.732 532.854> 530.5 226.5<557.627 626.81>
LayerCount: 2
Fore
SplineSet
533.221717999 757 m 0,0,1
 554.001786649 757 554.001786649 757 572.916992188 754.87890625 c 0,2,3
 646.568359375 741.700195312 646.568359375 741.700195312 684.17578125 674.966796875 c 0,4,5
 690.380859375 669.228515625 690.380859375 669.228515625 690.380859375 662.911132812 c 0,6,7
 690.380859375 636.362304688 690.380859375 636.362304688 683.290039062 610.264648438 c 0,8,9
 669.447265625 559.872070312 669.447265625 559.872070312 637.923828125 539.646484375 c 0,10,11
 622.807617188 530.5 622.807617188 530.5 606.953125 530.5 c 128,-1,12
 591.098632812 530.5 591.098632812 530.5 574.533203125 540.702148438 c 0,13,14
 553.657074861 551.5703125 553.657074861 551.5703125 536.759618759 574.885742188 c 0,15,16
 525.42491625 582.412109375 525.42491625 582.412109375 518.325432241 591.955078125 c 1,17,18
 446.556964168 555.513671875 446.556964168 555.513671875 366.828548308 456.814453125 c 0,19,20
 279.729615507 325.134765625 279.729615507 325.134765625 250.865923848 211.100585938 c 0,21,22
 243.099383058 158.7734375 243.099383058 158.7734375 243.015178651 143.970703125 c 0,23,24
 242.895450511 160.462890625 242.895450511 160.462890625 245.033453016 166.71875 c 1,25,26
 283.922731803 164.615234375 283.922731803 164.615234375 348.30884169 166.17578125 c 0,27,28
 385.254840663 169.79296875 385.254840663 169.79296875 456.825954659 185 c 1,29,-1
 458.498201541 185 l 1,30,31
 464.499081186 185.282226562 464.499081186 185.282226562 470.303922447 185.561523438 c 0,32,33
 483.180618147 188.79296875 483.180618147 188.79296875 495.534983389 190.993164062 c 0,34,35
 504.397497156 192.189453125 504.397497156 192.189453125 520.404228522 194.747070312 c 0,36,37
 536.409644195 198.900390625 536.409644195 198.900390625 549.207398264 198.900390625 c 0,38,39
 577.469726562 198.900390625 577.469726562 198.900390625 595.490234375 180.640625 c 0,40,41
 626.995117188 150.00390625 626.995117188 150.00390625 634.721679688 96.5146484375 c 0,42,43
 636.900390625 81.4736328125 636.900390625 81.4736328125 636.900390625 66.3349609375 c 0,44,45
 636.900390625 57.95703125 636.900390625 57.95703125 625.767578125 51.23828125 c 0,46,47
 606.80078125 38.3115234375 606.80078125 38.3115234375 572.489257812 35.09375 c 0,48,49
 557.179187295 32.0625 557.179187295 32.0625 546.656267891 30.1875 c 0,50,51
 536.133348486 27.5751953125 536.133348486 27.5751953125 532.978314637 26.4990234375 c 1,52,53
 528.989130887 53.5732421875 528.989130887 53.5732421875 524.999947137 23 c 1,54,-1
 502.773930946 23 l 2,55,56
 500.930643864 22.408203125 500.930643864 22.408203125 499.041307497 22.0126953125 c 0,57,58
 376.1989199 -1.35546875 376.1989199 -1.35546875 297.129666659 -1.35546875 c 0,59,60
 204.658755873 -1.35546875 204.658755873 -1.35546875 145.239257812 20.060546875 c 0,61,62
 107.5625 31.427734375 107.5625 31.427734375 86.4033203125 55.546875 c 0,63,64
 62.4208984375 89.46484375 62.4208984375 89.46484375 62.4208984375 141.490234375 c 0,65,66
 62.4208984375 185.16015625 62.4208984375 185.16015625 70.7109375 238.840820312 c 0,67,68
 94.875 366.280273438 94.875 366.280273438 169.84765625 505.743164062 c 0,69,70
 271.734143987 660.76953125 271.734143987 660.76953125 387.717819548 725.018554688 c 0,71,72
 460.028353487 757 460.028353487 757 533.221717999 757 c 0,0,1
EndSplineSet
EndChar

StartChar: D
Encoding: 68 68 39
AltUni2: 0013a0.ffffffff.0 001d30.ffffffff.0 002145.ffffffff.0 00216e.ffffffff.0 00ff24.ffffffff.0 0013a0.ffffffff.0 001d30.ffffffff.0 002145.ffffffff.0 00216e.ffffffff.0 00ff24.ffffffff.0
Width: 798
GlyphClass: 1
Flags: W
HStem: 630.667 114.073<317.593 512.057>
VStem: 57.7646 197.096<99.2667 354.428> 598.035 177.985<403.426 559.899>
LayerCount: 2
Fore
SplineSet
420.595874726 626.821289062 m 0,0,1
 379.47516066 630.666992188 379.47516066 630.666992188 338.773391758 630.666992188 c 0,2,3
 329.934004828 630.666992188 329.934004828 630.666992188 321.111233286 630.485351562 c 1,4,5
 292.816412689 490.078125 292.816412689 490.078125 269.22730761 295.973632812 c 0,6,7
 254.860930221 172.303710938 254.860930221 172.303710938 254.860930221 98.4384765625 c 1,8,9
 365.861223028 147.208007812 365.861223028 147.208007812 422.656182958 198.614257812 c 0,10,11
 475.658086949 245.938476562 475.658086949 245.938476562 516.421570152 302.774414062 c 1,12,13
 566.366242574 369.44140625 566.366242574 369.44140625 586.534951153 429.4921875 c 0,14,15
 598.035173945 463.288085938 598.035173945 463.288085938 598.035173945 488.953125 c 0,16,17
 598.035173945 514.182617188 598.035173945 514.182617188 590.440754373 534.765625 c 0,18,19
 574.245497385 579.654296875 574.245497385 579.654296875 511.549700745 609.614257812 c 0,20,21
 488.100639658 620.509765625 488.100639658 620.509765625 420.595874726 626.821289062 c 0,0,1
33.5419921875 65.0947265625 m 0,22,23
 46.974609375 68.2822265625 46.974609375 68.2822265625 60.857421875 72.0048828125 c 1,24,25
 57.7646484375 102.809570312 57.7646484375 102.809570312 57.7646484375 140.751953125 c 0,26,27
 57.7646484375 214.107421875 57.7646484375 214.107421875 71.2607421875 319.145507812 c 0,28,29
 81.3916015625 413.428710938 81.3916015625 413.428710938 96.2231304317 505.614257812 c 1,30,31
 93.6560528363 505.5234375 93.6560528363 505.5234375 91.177734375 505.5234375 c 0,32,33
 76.75 505.5234375 76.75 505.5234375 62.134765625 509.762695312 c 128,-1,34
 47.51953125 514.000976562 47.51953125 514.000976562 34.3193359375 523.780273438 c 128,-1,35
 21.119140625 533.55859375 21.119140625 533.55859375 13.7177734375 549.618164062 c 0,36,37
 0.81640625 576.095703125 0.81640625 576.095703125 0.81640625 601.276367188 c 0,38,39
 0.81640625 618.828125 0.81640625 618.828125 7.052734375 635.106445312 c 0,40,41
 22.23828125 674.744140625 22.23828125 674.744140625 70.06640625 700.751953125 c 1,42,43
 137.089866409 735.64453125 137.089866409 735.64453125 248.717983557 744.740234375 c 0,44,45
 347.936778773 753.315429688 347.936778773 753.315429688 451.670212535 742.852539062 c 128,-1,46
 555.404833109 732.389648438 555.404833109 732.389648438 613.602606593 704.234375 c 0,47,48
 730.1484375 648.7578125 730.1484375 648.7578125 762.8125 553.798828125 c 0,49,50
 776.020507812 515.813476562 776.020507812 515.813476562 776.020507812 472.143554688 c 0,51,52
 776.020507812 360.19921875 776.020507812 360.19921875 685.6953125 228.645507812 c 0,53,54
 635.374700208 161.301757812 635.374700208 161.301757812 572.708573905 113.8359375 c 0,55,56
 459.211225499 24.1962890625 459.211225499 24.1962890625 244.191476877 -42.79296875 c 1,57,58
 220.52166848 -58.23046875 220.52166848 -58.23046875 192.409617162 -60.0634765625 c 1,59,60
 129.847930447 -80.501953125 129.847930447 -80.501953125 78.091796875 -92.267578125 c 0,61,62
 66.83203125 -95.3916015625 66.83203125 -95.3916015625 55.4423828125 -95.3916015625 c 0,63,64
 32.8037109375 -95.3916015625 32.8037109375 -95.3916015625 12.8291015625 -83.40625 c 0,65,66
 -0.03515625 -75.6884765625 -0.03515625 -75.6884765625 -10.4765625 -63.14453125 c 128,-1,67
 -20.91796875 -50.6005859375 -20.91796875 -50.6005859375 -25.40625 -32.5859375 c 0,68,69
 -28.4541015625 -21.357421875 -28.4541015625 -21.357421875 -28.4541015625 -10.0830078125 c 0,70,71
 -28.4541015625 11.8818359375 -28.4541015625 11.8818359375 -17.220703125 31.1396484375 c 0,72,73
 -0.0556640625 56.7431640625 -0.0556640625 56.7431640625 33.5419921875 65.0947265625 c 0,22,23
EndSplineSet
EndChar

StartChar: E
Encoding: 69 69 40
AltUni2: 000395.ffffffff.0 000415.ffffffff.0 0013ac.ffffffff.0 001d31.ffffffff.0 002130.ffffffff.0 00ff25.ffffffff.0 000395.ffffffff.0 000415.ffffffff.0 0013ac.ffffffff.0 001d31.ffffffff.0 002130.ffffffff.0 00ff25.ffffffff.0
Width: 705
GlyphClass: 1
Flags: W
HStem: -45.9443 167.829<271.812 439.448> 625.021 140.074<406.991 679.125>
VStem: 48.4463 192.029<155 261.678>
LayerCount: 2
Fore
SplineSet
707 695.0390625 m 1,0,1
 707 663.2578125 707 663.2578125 707 693.673828125 c 2,2,3
 707 665.638671875 707 665.638671875 683.075195312 646.307617188 c 128,-1,4
 659.149414062 626.9765625 659.149414062 626.9765625 625.274414062 625.021484375 c 1,5,6
 506.998858848 623.528320312 506.998858848 623.528320312 398.476452774 601.754882812 c 0,7,8
 379.737052317 598.0859375 379.737052317 598.0859375 364.153616573 593.975585938 c 1,9,10
 340.065462605 558.866210938 340.065462605 558.866210938 314.880288799 507.232421875 c 1,11,12
 370.949635709 521.456054688 370.949635709 521.456054688 435.344825316 531.313476562 c 0,13,14
 445.086661692 532.400390625 445.086661692 532.400390625 453.146067416 532.400390625 c 0,15,16
 487.05611394 532.400390625 487.05611394 532.400390625 515.27591731 518.782226562 c 0,17,18
 550.605710147 501.734375 550.605710147 501.734375 559.859704178 472.850585938 c 0,19,20
 562.480293188 464.669921875 562.480293188 464.669921875 562.480293188 456.440429688 c 0,21,22
 562.480293188 435.405273438 562.480293188 435.405273438 547.432233146 418.705078125 c 0,23,24
 521.617867802 390.055664062 521.617867802 390.055664062 475.455473139 383.651367188 c 0,25,26
 340.47950316 364.780273438 340.47950316 364.780273438 250.267446454 324.2265625 c 1,27,28
 242.071695049 285.432617188 242.071695049 285.432617188 241.13478757 260.750976562 c 2,29,30
 241.128533181 290.877929688 241.128533181 290.877929688 241.121027914 260.389648438 c 2,31,32
 240.475574965 249.829101562 240.475574965 249.829101562 240.475574965 240.295898438 c 0,33,34
 240.475574965 167.869140625 240.475574965 167.869140625 274.351847788 138.776367188 c 0,35,36
 292.45455144 121.884765625 292.45455144 121.884765625 337.129652388 121.884765625 c 0,37,38
 369.557408708 121.884765625 369.557408708 121.884765625 413.618328652 131.470703125 c 0,39,40
 427.362974017 133.947265625 427.362974017 133.947265625 439.837978406 133.947265625 c 0,41,42
 467.193425211 133.947265625 467.193425211 133.947265625 491.908268961 123.49609375 c 0,43,44
 528.922994206 107.842773438 528.922994206 107.842773438 543.580780372 75.80078125 c 2,45,46
 544.360077247 124.096679688 544.360077247 124.096679688 545.139374122 72.3935546875 c 1,47,48
 548.445444171 59.4912109375 548.445444171 59.4912109375 548.445444171 50.26953125 c 0,49,50
 548.445444171 26.8818359375 548.445444171 26.8818359375 534.580714537 8.3271484375 c 0,51,52
 510.716467697 -23.6123046875 510.716467697 -23.6123046875 466.379103757 -31.59765625 c 0,53,54
 364.876623947 -45.9443359375 364.876623947 -45.9443359375 337.383580583 -45.9443359375 c 0,55,56
 336.536736306 -45.9443359375 336.536736306 -45.9443359375 335.758690309 -45.9306640625 c 0,57,58
 191.626294768 -45.9306640625 191.626294768 -45.9306640625 113.309570312 33.341796875 c 0,59,60
 48.4462890625 102.530273438 48.4462890625 102.530273438 48.4462890625 227.8359375 c 0,61,62
 48.4462890625 238.954101562 48.4462890625 238.954101562 48.9521484375 250.529296875 c 1,63,64
 41.912109375 254.912109375 41.912109375 254.912109375 36.0419921875 260.490234375 c 0,65,66
 11 281.946289062 11 281.946289062 11 312.314453125 c 0,67,68
 11 343.579101562 11 343.579101562 37.3544921875 364.42578125 c 0,69,70
 50.1044921875 376.088867188 50.1044921875 376.088867188 69.095703125 390.327148438 c 1,71,72
 80.3037109375 440.685546875 80.3037109375 440.685546875 102.232421875 503.12890625 c 1,73,74
 86.689453125 521.75390625 86.689453125 521.75390625 86.689453125 545.780273438 c 0,75,76
 86.689453125 550.713867188 86.689453125 550.713867188 87.3623046875 555.786132812 c 0,77,78
 96.7392578125 623.69921875 96.7392578125 623.69921875 175.33736394 673.678710938 c 1,79,80
 238.849433813 707.732421875 238.849433813 707.732421875 332.760336201 727.55859375 c 0,81,82
 460.397406074 761.685546875 460.397406074 761.685546875 618.811523438 764.961914062 c 0,83,84
 621.228515625 765.095703125 621.228515625 765.095703125 623.634765625 765.095703125 c 0,85,86
 655.248046875 765.095703125 655.248046875 765.095703125 679.897460938 742.793945312 c 0,87,88
 704.546875 724.774414062 704.546875 724.774414062 707 695.0390625 c 1,0,1
EndSplineSet
EndChar

StartChar: F
Encoding: 70 70 41
AltUni2: 002131.ffffffff.0 00a7f3.ffffffff.0 00ff26.ffffffff.0 002131.ffffffff.0 00a7f3.ffffffff.0 00ff26.ffffffff.0
Width: 731
GlyphClass: 1
Flags: W
HStem: 319 168<275.737 589.819>
VStem: 49.9561 182.392<14.9279 287.373>
LayerCount: 2
Fore
SplineSet
76.78515625 552.560546875 m 1,0,1
 57.5 573.516601562 57.5 573.516601562 57.5 599.551757812 c 0,2,3
 57.5 613.427734375 57.5 613.427734375 63.3134765625 626.6953125 c 0,4,5
 75.6103515625 654.758789062 75.6103515625 654.758789062 107.08984375 667.51171875 c 2,6,7
 108.33984375 631.166992188 108.33984375 631.166992188 109.588867188 668.524414062 c 2,8,9
 116.791015625 670.631835938 116.791015625 670.631835938 129.491210938 674.551757812 c 0,10,11
 136.618164062 678.125976562 136.618164062 678.125976562 141.635742188 679.653320312 c 0,12,13
 233.308591159 703.186523438 233.308591159 703.186523438 371.838780933 725.586914062 c 0,14,15
 621.053710938 772.994140625 621.053710938 772.994140625 694.48828125 723.765625 c 0,16,17
 722.625976562 705.4140625 722.625976562 705.4140625 729.891601562 671.510742188 c 0,18,19
 731.900390625 662.13671875 731.900390625 662.13671875 731.900390625 652.780273438 c 0,20,21
 731.900390625 629.881835938 731.900390625 629.881835938 718.94921875 607.6796875 c 1,22,23
 718.206054688 556.658203125 718.206054688 556.658203125 717.462890625 605.635742188 c 2,24,25
 698.734375 579.885742188 698.734375 579.885742188 667.1484375 571.989257812 c 0,26,27
 657.2734375 569.51953125 657.2734375 569.51953125 647.395507812 569.51953125 c 1,28,29
 629.938476562 578.883789062 629.938476562 578.883789062 607.885480107 580.100585938 c 0,30,31
 598.917878967 580.5 598.917878967 580.5 587.138199665 580.5 c 128,-1,32
 575.358520363 580.5 575.358520363 580.5 560.709965988 580.20703125 c 0,33,34
 514.477280589 579.010742188 514.477280589 579.010742188 419.738771203 568.6171875 c 0,35,36
 336.166534483 558.436523438 336.166534483 558.436523438 268.241215615 547.552734375 c 1,37,38
 259.546239646 488.260742188 259.546239646 488.260742188 253.881694408 463.842773438 c 1,39,40
 368.786893592 487 368.786893592 487 518.973071618 487 c 0,41,42
 562.524942827 487 562.524942827 487 594.385485485 462.348632812 c 0,43,44
 623 437.697265625 623 437.697265625 623 402.122070312 c 128,-1,45
 623 366.547851562 623 366.547851562 593.902080666 342.7734375 c 0,46,47
 561.55813319 319 561.55813319 319 518.973071618 319 c 0,48,49
 339.740953404 319 339.740953404 319 237.554475781 287.638671875 c 1,50,51
 232.38343259 202.3359375 232.38343259 202.3359375 232.34809229 177.409179688 c 0,52,53
 232.34809229 89.1591796875 232.34809229 89.1591796875 249.613091022 47.8837890625 c 0,54,55
 252.661191903 38.5048828125 252.661191903 38.5048828125 252.661191903 30.357421875 c 0,56,57
 252.661191903 8.533203125 252.661191903 8.533203125 240.073734313 -9.4462890625 c 0,58,59
 217.941871401 -41.0595703125 217.941871401 -41.0595703125 174.806510871 -50.9482421875 c 0,60,61
 161.876953125 -54.4541015625 161.876953125 -54.4541015625 149.814453125 -54.4541015625 c 0,62,63
 128.404296875 -54.4541015625 128.404296875 -54.4541015625 110.392578125 -44.3681640625 c 0,64,65
 78.5751953125 -26.5498046875 78.5751953125 -26.5498046875 68.845703125 7.5029296875 c 0,66,67
 49.9560546875 67.9013671875 49.9560546875 67.9013671875 49.9560546875 177.454101562 c 0,68,69
 49.9560546875 245.635742188 49.9560546875 245.635742188 58.5361328125 353.073242188 c 128,-1,70
 67.115234375 460.510742188 67.115234375 460.510742188 67.115234375 463.862304688 c 2,71,72
 67.1396484375 452.24609375 67.1396484375 452.24609375 67.1640625 464.5 c 1,73,74
 76.154296875 546.044921875 76.154296875 546.044921875 76.78515625 552.560546875 c 1,0,1
EndSplineSet
EndChar

StartChar: G
Encoding: 71 71 42
AltUni2: 0013c0.ffffffff.0 001d33.ffffffff.0 00ff27.ffffffff.0 0013c0.ffffffff.0 001d33.ffffffff.0 00ff27.ffffffff.0
Width: 678
GlyphClass: 1
Flags: W
HStem: -2.90234 149.209<292.517 441.806> 598.5 187.5<544.698 635.281>
VStem: 38.5547 180.836<203.707 326.472>
LayerCount: 2
Fore
SplineSet
450.00152277 187.09375 m 1,0,1
 465.101161867 224.975585938 465.101161867 224.975585938 472.993527439 246.07421875 c 1,2,3
 451.333573141 243.62890625 451.333573141 243.62890625 447.967285926 243.62890625 c 128,-1,4
 444.599683755 243.62890625 444.599683755 243.62890625 444.407700188 243.631835938 c 0,5,6
 420.860784111 243.631835938 420.860784111 243.631835938 399.116672633 250.04296875 c 0,7,8
 358.133440749 262.125976562 358.133440749 262.125976562 341.355917868 289.068359375 c 0,9,10
 333.527985138 302.161132812 333.527985138 302.161132812 333.527985138 315.89453125 c 128,-1,11
 333.527985138 329.626953125 333.527985138 329.626953125 342.677448591 344.340820312 c 128,-1,12
 351.826912045 359.0546875 351.826912045 359.0546875 372.269217139 369.883789062 c 0,13,14
 386.719268 377.5390625 386.719268 377.5390625 405.070793144 381.62109375 c 0,15,16
 522.533177646 404.517578125 522.533177646 404.517578125 547.901367188 404.517578125 c 0,17,18
 606.62109375 404.517578125 606.62109375 404.517578125 638.954101562 369.94921875 c 0,19,20
 665.841796875 341.202148438 665.841796875 341.202148438 665.841796875 296.5625 c 0,21,22
 665.841796875 265.8984375 665.841796875 265.8984375 652.811523438 215.483398438 c 0,23,24
 648.669921875 199.33984375 648.669921875 199.33984375 616.596679688 88.2158203125 c 0,25,26
 613.237304688 75.9794921875 613.237304688 75.9794921875 604.374023438 64.2744140625 c 128,-1,27
 595.510742188 52.5703125 595.510742188 52.5703125 577.490234375 43.0693359375 c 0,28,29
 559.469726562 32.099609375 559.469726562 32.099609375 533.034415809 32.099609375 c 0,30,31
 530.859478679 32.099609375 530.859478679 32.099609375 528.709525712 32.1630859375 c 0,32,33
 448.937723412 -2.90234375 448.937723412 -2.90234375 370.327027211 -2.90234375 c 0,34,35
 314.713595501 -2.90234375 314.713595501 -2.90234375 259.902286917 13.81640625 c 0,36,37
 149.505859375 44.65234375 149.505859375 44.65234375 101.034179688 95.2841796875 c 0,38,39
 38.5546875 160.548828125 38.5546875 160.548828125 38.5546875 254.083984375 c 0,40,41
 38.5546875 386.489257812 38.5546875 386.489257812 168.574651788 547.916015625 c 0,42,43
 299.774381029 670.366210938 299.774381029 670.366210938 435.881525851 738.622070312 c 0,44,45
 518.64222301 786 518.64222301 786 574 786 c 0,46,47
 605.118164062 786 605.118164062 786 627.91796875 770.275390625 c 0,48,49
 656.841796875 750.329101562 656.841796875 750.329101562 664.872070312 711.618164062 c 0,50,51
 667.142578125 701.514648438 667.142578125 701.514648438 667.142578125 690.305664062 c 0,52,53
 667.142578125 670.384765625 667.142578125 670.384765625 656.775390625 644.341796875 c 1,54,55
 643.6328125 617.021484375 643.6328125 617.021484375 613.790039062 605.173828125 c 0,56,57
 596.979492188 598.5 596.979492188 598.5 581.451171875 598.5 c 0,58,59
 560.3984375 598.5 560.3984375 598.5 544.190502032 604.727539062 c 1,60,61
 447.042871898 551.490234375 447.042871898 551.490234375 350.552719736 462.752929688 c 0,62,63
 226.823255208 346.489257812 226.823255208 346.489257812 219.659375229 264.23828125 c 0,64,65
 219.392439172 258.74609375 219.392439172 258.74609375 219.391124216 256.8984375 c 0,66,67
 219.391124216 215.864257812 219.391124216 215.864257812 255.035634971 188.874023438 c 0,68,69
 285.678053317 165.671875 285.678053317 165.671875 344.732724731 149.836914062 c 0,70,71
 363.503720821 146.391601562 363.503720821 146.391601562 370.884568531 146.306640625 c 0,72,73
 385.049273952 146.14453125 385.049273952 146.14453125 404.559275282 153.061523438 c 128,-1,74
 424.069276613 159.978515625 424.069276613 159.978515625 443.387294376 168.2109375 c 1,75,76
 448.11850586 180.383789062 448.11850586 180.383789062 450.00152277 185.702148438 c 1,77,78
 450.00152277 210.525390625 450.00152277 210.525390625 450.00152277 187.09375 c 1,0,1
EndSplineSet
EndChar

StartChar: H
Encoding: 72 72 43
AltUni2: 000397.ffffffff.0 00041d.ffffffff.0 0013bb.ffffffff.0 001d34.ffffffff.0 00210b.ffffffff.0 00210c.ffffffff.0 00210d.ffffffff.0 00ff28.ffffffff.0 000397.ffffffff.0 00041d.ffffffff.0 0013bb.ffffffff.0 001d34.ffffffff.0 00210b.ffffffff.0 00210c.ffffffff.0 00210d.ffffffff.0 00ff28.ffffffff.0
Width: 677
GlyphClass: 1
Flags: W
VStem: 24.5264 185.609<63.583 265.727> 377.173 210.937<82.9483 256.106>
LayerCount: 2
Fore
SplineSet
586.431640625 740.5234375 m 0,0,1
 614.72265625 740.5234375 614.72265625 740.5234375 637.041015625 733.7890625 c 0,2,3
 652 729.13671875 652 729.13671875 661.26171875 721.736328125 c 0,4,5
 670.5234375 714.745117188 670.5234375 714.745117188 670.5234375 706.83203125 c 0,6,7
 670.5234375 687.110351562 670.5234375 687.110351562 666.857421875 667.891601562 c 0,8,9
 610.169921875 487.703125 610.169921875 487.703125 594.692382812 357.426757812 c 0,10,11
 588.109375 298.180664062 588.109375 298.180664062 588.109375 244.244140625 c 0,12,13
 588.109375 143.771484375 588.109375 143.771484375 614.798828125 63.4091796875 c 0,14,15
 618.5234375 44.048828125 618.5234375 44.048828125 618.5234375 24.16796875 c 0,16,17
 618.5234375 16.20703125 618.5234375 16.20703125 609.184570312 9.115234375 c 0,18,19
 592.4296875 -3.98046875 592.4296875 -3.98046875 557.745117188 -8.0078125 c 0,20,21
 544.130435802 -9.5234375 544.130435802 -9.5234375 528.101286228 -9.5234375 c 0,22,23
 500.4082126 -9.5234375 500.4082126 -9.5234375 475.844263231 -5.53125 c 0,24,25
 438.307729146 1.3798828125 438.307729146 1.3798828125 421.945583739 15.8408203125 c 1,26,27
 377.172544894 121.010742188 377.172544894 121.010742188 377.172544894 240.2734375 c 0,28,29
 377.172544894 247.674804688 377.172544894 247.674804688 377.3176637 255.125 c 1,30,31
 285.107619353 261.123046875 285.107619353 261.123046875 232.91279013 267.501953125 c 0,32,33
 221.857846781 263.375976562 221.857846781 263.375976562 211.122942228 258.008789062 c 1,34,35
 209.474807214 181.577148438 209.474807214 181.577148438 210.135616064 150.149414062 c 0,36,37
 213.793387405 78.6708984375 213.793387405 78.6708984375 241.616031396 49.4921875 c 0,38,39
 256.765398207 17.8984375 256.765398207 17.8984375 256.765398207 -16.8447265625 c 0,40,41
 256.765398207 -21.748046875 256.765398207 -21.748046875 251.228856607 -26.4912109375 c 0,42,43
 237.157515214 -37.720703125 237.157515214 -37.720703125 197.432537701 -43.5537109375 c 1,44,45
 157.084326744 -51.49609375 157.084326744 -51.49609375 145.334886251 -51.49609375 c 0,46,47
 144.605405109 -51.49609375 144.605405109 -51.49609375 144.120117188 -51.4541015625 c 0,48,49
 132.123046875 -51.4541015625 132.123046875 -51.4541015625 120.291015625 -50.0087890625 c 0,50,51
 101.852539062 -48.1279296875 101.852539062 -48.1279296875 89.486328125 -44.2529296875 c 0,52,53
 77.1201171875 -39.0244140625 77.1201171875 -39.0244140625 69.83203125 -32.7353515625 c 0,54,55
 31.6455078125 31.3740234375 31.6455078125 31.3740234375 25.04296875 144.455078125 c 0,56,57
 24.5263671875 159.009765625 24.5263671875 159.009765625 24.5263671875 173.80078125 c 0,58,59
 24.5263671875 258.565429688 24.5263671875 258.565429688 36.525390625 349.93359375 c 0,60,61
 48.5244140625 435.565429688 48.5244140625 435.565429688 64.978515625 530.979492188 c 0,62,63
 66.1396484375 535.795898438 66.1396484375 535.795898438 79.84375 610.89453125 c 0,64,65
 91.9130859375 676.37890625 91.9130859375 676.37890625 94.79296875 697.069335938 c 0,66,67
 97.671875 707.427734375 97.671875 707.427734375 105.795898438 715.03125 c 0,68,69
 113.918945312 720.155273438 113.918945312 720.155273438 129.995117188 724.028320312 c 0,70,71
 154.477371046 730.400390625 154.477371046 730.400390625 189.177609891 730.400390625 c 0,72,73
 197.593204951 730.400390625 197.593204951 730.400390625 206.024348455 729.998046875 c 0,74,75
 251.105764763 727.950195312 251.105764763 727.950195312 278.807908317 716.45703125 c 0,76,77
 300.895768053 707.165039062 300.895768053 707.165039062 300.895768053 695.586914062 c 0,78,79
 300.895768053 684.470703125 300.895768053 684.470703125 298.81227662 670.462890625 c 0,80,81
 296.727489483 660.845703125 296.727489483 660.845703125 287.434703068 622.561523438 c 0,82,83
 278.141916652 585.462890625 278.141916652 585.462890625 269.609708266 547.805664062 c 0,84,85
 261.065838547 514.122070312 261.065838547 514.122070312 253.307165226 484.951171875 c 0,86,87
 245.549787608 451.91796875 245.549787608 451.91796875 235.213959773 400.525390625 c 1,88,89
 267.194516704 407.896484375 267.194516704 407.896484375 300.100206026 413.948242188 c 128,-1,90
 333.007191051 420 333.007191051 420 397.372564445 431.07421875 c 1,91,92
 423.302185437 553.771484375 423.302185437 553.771484375 491.583175193 713.76171875 c 1,93,94
 492.561431432 694.40625 492.561431432 694.40625 493.539687671 716.95703125 c 2,95,96
 510.769954508 729.889648438 510.769954508 729.889648438 546.164690497 736.53125 c 0,97,98
 565.751953125 740.5234375 565.751953125 740.5234375 586.431640625 740.5234375 c 0,0,1
EndSplineSet
EndChar

StartChar: I
Encoding: 73 73 44
AltUni2: 000399.ffffffff.0 000406.ffffffff.0 0004c0.ffffffff.0 001d35.ffffffff.0 002110.ffffffff.0 002111.ffffffff.0 002160.ffffffff.0 00ff29.ffffffff.0 000399.ffffffff.0 000406.ffffffff.0 0004c0.ffffffff.0 001d35.ffffffff.0 002110.ffffffff.0 002111.ffffffff.0 002160.ffffffff.0 00ff29.ffffffff.0
Width: 302
GlyphClass: 1
Flags: W
HStem: -37.3496 21G<136.844 162.521> 735.036 20G<179.148 203.402>
VStem: 54.4258 167.019<-9.27513 349.944>
LayerCount: 2
Fore
SplineSet
195.40234375 -28.9794921875 m 0,0,1
 177.086914062 -37.349609375 177.086914062 -37.349609375 147.955078125 -37.349609375 c 0,2,3
 125.733398438 -37.349609375 125.733398438 -37.349609375 105.817382812 -32.359375 c 0,4,5
 92.2470703125 -25.013671875 92.2470703125 -25.013671875 78.5166015625 -11.6982421875 c 0,6,7
 65.2373046875 0.7109375 65.2373046875 0.7109375 59.83203125 24.0869140625 c 0,8,9
 54.42578125 58.8359375 54.42578125 58.8359375 54.42578125 130.9921875 c 0,10,11
 54.42578125 208.016601562 54.42578125 208.016601562 68.119140625 386.81640625 c 0,12,13
 88.9384765625 649.311523438 88.9384765625 649.311523438 106.564453125 719.046875 c 0,14,15
 111.872070312 730.044921875 111.872070312 730.044921875 118.102539062 734.874023438 c 0,16,17
 124.333984375 737.504882812 124.333984375 737.504882812 130.604492188 738.97265625 c 0,18,19
 163.272460938 755.036132812 163.272460938 755.036132812 195.024414062 755.036132812 c 0,20,21
 211.780273438 755.036132812 211.780273438 755.036132812 226.4765625 752.990234375 c 0,22,23
 262.817382812 742.963867188 262.817382812 742.963867188 273.001953125 712.455078125 c 0,24,25
 274.022460938 712.704101562 274.022460938 712.704101562 274.022460938 712.98828125 c 0,26,27
 274.022460938 703.85546875 274.022460938 703.85546875 265.1796875 622.888671875 c 0,28,29
 253.375 534.733398438 253.375 534.733398438 230.64453125 344.008789062 c 0,30,31
 222 269.791992188 222 269.791992188 222 17 c 0,32,33
 222 11.8115234375 222 11.8115234375 221.72265625 10.03125 c 0,34,35
 221.444335938 4.7880859375 221.444335938 4.7880859375 221.444335938 -0.697265625 c 0,36,37
 221.444335938 -4.54296875 221.444335938 -4.54296875 212.764648438 -12.841796875 c 0,38,39
 204.890625 -24.125 204.890625 -24.125 195.40234375 -28.9794921875 c 0,0,1
EndSplineSet
EndChar

StartChar: J
Encoding: 74 74 45
AltUni2: 000408.ffffffff.0 0013ab.ffffffff.0 001d36.ffffffff.0 00ff2a.ffffffff.0 000408.ffffffff.0 0013ab.ffffffff.0 001d36.ffffffff.0 00ff2a.ffffffff.0
Width: 641
GlyphClass: 1
Flags: W
HStem: 738.348 20G<524.43 541.981>
VStem: 439.593 184.161<280.674 722.431>
LayerCount: 2
Fore
SplineSet
298.381740942 141.7421875 m 0,0,1
 307.000642911 141.7421875 307.000642911 141.7421875 325.649316103 139.971679688 c 0,2,3
 389.408422234 180.73046875 389.408422234 180.73046875 419.960179799 287.087890625 c 0,4,5
 439.593276975 372.0859375 439.593276975 372.0859375 439.593276975 478.901367188 c 0,6,7
 439.593276975 583.241210938 439.593276975 583.241210938 419.335742082 709.811523438 c 0,8,9
 418.877451873 717.059570312 418.877451873 717.059570312 418.877451873 722.864257812 c 0,10,11
 418.877451873 734.39453125 418.877451873 734.39453125 442.481474486 743.955078125 c 0,12,13
 469.836277088 754.793945312 469.836277088 754.793945312 513.91015625 757.77734375 c 0,14,15
 521.3984375 758.34765625 521.3984375 758.34765625 527.4609375 758.34765625 c 0,16,17
 556.501953125 758.34765625 556.501953125 758.34765625 579.654296875 750.510742188 c 0,18,19
 605.821289062 740.857421875 605.821289062 740.857421875 608.776367188 726.353515625 c 0,20,21
 623.75390625 592.676757812 623.75390625 592.676757812 623.75390625 476.544921875 c 0,22,23
 623.75390625 357.87890625 623.75390625 357.87890625 607.357421875 258.971679688 c 0,24,25
 577.740234375 99.2431640625 577.740234375 99.2431640625 496.054353824 25.0146484375 c 0,26,27
 432.394936198 -11.626953125 432.394936198 -11.626953125 355.328799252 -22.5048828125 c 0,28,29
 326.168527065 -26.2373046875 326.168527065 -26.2373046875 296.725804114 -26.2373046875 c 0,30,31
 243.907511374 -26.2373046875 243.907511374 -26.2373046875 193.096834353 -14.02734375 c 0,32,33
 88.5107421875 23.712890625 88.5107421875 23.712890625 48.111328125 134.997070312 c 0,34,35
 44.400390625 141.3046875 44.400390625 141.3046875 44.400390625 149.317382812 c 0,36,37
 44.400390625 175.7265625 44.400390625 175.7265625 52.8349609375 204.600585938 c 128,-1,38
 61.2705078125 233.278320312 61.2705078125 233.278320312 74.4677734375 250.217773438 c 0,39,40
 98.2216796875 279.599609375 98.2216796875 279.599609375 127.16015625 279.599609375 c 0,41,42
 146.866210938 279.599609375 146.866210938 279.599609375 164.650996449 264.688476562 c 0,43,44
 205.668662446 241.04296875 205.668662446 241.04296875 222.614323682 188.616210938 c 1,45,46
 250.87324564 147.194335938 250.87324564 147.194335938 292.673189485 137.905273438 c 0,47,48
 296.231515278 141.7421875 296.231515278 141.7421875 298.381740942 141.7421875 c 0,0,1
EndSplineSet
EndChar

StartChar: K
Encoding: 75 75 46
AltUni2: 00039a.ffffffff.0 00041a.ffffffff.0 0013e6.ffffffff.0 001d37.ffffffff.0 00212a.ffffffff.0 00ff2b.ffffffff.0 00039a.ffffffff.0 00041a.ffffffff.0 0013e6.ffffffff.0 001d37.ffffffff.0 00212a.ffffffff.0 00ff2b.ffffffff.0
Width: 690
GlyphClass: 1
Flags: W
HStem: 738.381 20G<224.923 271.93>
VStem: 141.253 218.065<619.921 743.711>
LayerCount: 2
Fore
SplineSet
122.921875 622.198242188 m 1,0,-1
 122.921875 622.198242188 l 1,0,-1
244.147526002 758.380859375 m 0,1,2
 299.712165972 758.380859375 299.712165972 758.380859375 334.660769083 744.966796875 c 0,3,4
 359.317775126 736.475585938 359.317775126 736.475585938 359.317775126 725.638671875 c 0,5,6
 359.317775126 714.060546875 359.317775126 714.060546875 357.645423445 702.62890625 c 2,7,8
 350.180928356 628.806640625 350.180928356 628.806640625 342.717746975 612.287109375 c 1,9,10
 434.669501517 682.643554688 434.669501517 682.643554688 536.623837125 734.2265625 c 1,11,12
 578.599609375 747.166992188 578.599609375 747.166992188 589.411132812 747.166992188 c 0,13,14
 597.654296875 747.166992188 597.654296875 747.166992188 605.751953125 746.499023438 c 0,15,16
 637.889648438 743.889648438 637.889648438 743.889648438 659.5390625 731.859375 c 1,17,18
 676.655273438 722.885742188 676.655273438 722.885742188 676.655273438 712.346679688 c 0,19,20
 676.655273438 679.31640625 676.655273438 679.31640625 668.014648438 652.001953125 c 0,21,22
 659.374023438 624.328125 659.374023438 624.328125 643.760742188 605.673828125 c 0,23,24
 483.906004767 513.8828125 483.906004767 513.8828125 345.03907095 360.834960938 c 1,25,26
 388.225943808 310.747070312 388.225943808 310.747070312 390.178115526 307.935546875 c 128,-1,27
 392.128973535 305.124023438 392.128973535 305.124023438 395.415873696 301.051757812 c 128,-1,28
 398.702773857 296.979492188 398.702773857 296.979492188 403.059033223 291.467773438 c 128,-1,29
 407.415292589 285.95703125 407.415292589 285.95703125 407.71875939 285.958007812 c 2,30,-1
 409.580285181 284.11328125 l 1,31,32
 474.246301777 226.123046875 474.246301777 226.123046875 510.488908347 198.229492188 c 0,33,34
 561.745117188 149.96484375 561.745117188 149.96484375 608.740234375 113.94140625 c 1,35,36
 637.029296875 73.224609375 637.029296875 73.224609375 637.029296875 11.92578125 c 0,37,38
 637.029296875 0.0419921875 637.029296875 0.0419921875 620.163085938 -9.662109375 c 0,39,40
 607.817382812 -16.134765625 607.817382812 -16.134765625 592.219726562 -19.201171875 c 0,41,42
 573.864257812 -23.099609375 573.864257812 -23.099609375 553.282982185 -23.099609375 c 0,43,44
 512.410864756 -23.099609375 512.410864756 -23.099609375 480.358990205 -14.87109375 c 0,45,46
 400.234558664 31.21875 400.234558664 31.21875 328.004205088 98.18359375 c 0,47,48
 289.616311561 135.337890625 289.616311561 135.337890625 241.369031261 191.3984375 c 1,49,50
 235.982823963 144.342773438 235.982823963 144.342773438 232.644689147 104.61328125 c 0,51,52
 229.389318005 79.3896484375 229.389318005 79.3896484375 231.834130634 64.6943359375 c 1,53,54
 256.192924713 28.345703125 256.192924713 28.345703125 256.192924713 -17.810546875 c 0,55,56
 256.192924713 -29.6484375 256.192924713 -29.6484375 234.409000465 -38.9189453125 c 0,57,58
 219.235660393 -45.0947265625 219.235660393 -45.0947265625 195.075236389 -48.82421875 c 128,-1,59
 170.914812384 -52.5234375 170.914812384 -52.5234375 149.75 -52.5234375 c 0,60,61
 138.259765625 -52.5234375 138.259765625 -52.5234375 127.001953125 -50.8212890625 c 0,62,63
 101.19921875 -47.861328125 101.19921875 -47.861328125 82.6796875 -38.94921875 c 0,64,65
 69.3837890625 -30.771484375 69.3837890625 -30.771484375 60.0595703125 -18.076171875 c 0,66,67
 50.736328125 -2.685546875 50.736328125 -2.685546875 49.072265625 17.22265625 c 0,68,69
 38.6669921875 111.241210938 38.6669921875 111.241210938 80.51171875 376.720703125 c 1,70,-1
 110.599609375 544.866210938 l 1,71,72
 61.830078125 496.400390625 61.830078125 496.400390625 110.888671875 545.0390625 c 1,73,74
 113.939453125 559.139648438 113.939453125 559.139648438 121.0546875 600.793945312 c 0,75,76
 122.83984375 615.744140625 122.83984375 615.744140625 122.91796875 618.3359375 c 2,77,78
 122.91796875 619.02734375 122.91796875 619.02734375 122.91796875 617.604492188 c 1,79,80
 136.22265625 692.044921875 136.22265625 692.044921875 141.252929688 727.86328125 c 0,81,82
 146.282226562 742.697265625 146.282226562 742.697265625 175.588989351 751.521484375 c 0,83,84
 205.697888148 758.380859375 205.697888148 758.380859375 244.147526002 758.380859375 c 0,1,2
EndSplineSet
EndChar

StartChar: L
Encoding: 76 76 47
AltUni2: 0013de.ffffffff.0 001d38.ffffffff.0 002112.ffffffff.0 00216c.ffffffff.0 00ff2c.ffffffff.0 0013de.ffffffff.0 001d38.ffffffff.0 002112.ffffffff.0 00216c.ffffffff.0 00ff2c.ffffffff.0
Width: 665
GlyphClass: 1
Flags: W
HStem: -37.125 171.348<266.894 503.913> -24.834 170.834<291.132 570.992> -12 172<364.929 626.131>
VStem: 50.5186 183.182<152.579 487.566>
LayerCount: 2
Fore
SplineSet
243.259301368 184.431640625 m 0,0,1
 254.538064401 148.236328125 254.538064401 148.236328125 266.567218143 135.299804688 c 1,2,3
 277.002633629 134.22265625 277.002633629 134.22265625 290.699621656 134.22265625 c 128,-1,4
 304.395262482 134.22265625 304.395262482 134.22265625 336.614910917 136.837890625 c 128,-1,5
 368.834559353 139.453125 368.834559353 139.453125 413.992721903 146 c 1,6,-1
 415.634959377 146 l 1,7,8
 483.669934525 154.338867188 483.669934525 154.338867188 499.014548829 155.603515625 c 0,9,10
 539.801757812 160 539.801757812 160 572 160 c 0,11,12
 587.790039062 160 587.790039062 160 603.837890625 153.641601562 c 128,-1,13
 619.885742188 147.282226562 619.885742188 147.282226562 632.974609375 132.012695312 c 0,14,15
 654 107.482421875 654 107.482421875 654 73.6171875 c 128,-1,16
 654 39.751953125 654 39.751953125 631.583007812 14.974609375 c 0,17,18
 607.176757812 -12 607.176757812 -12 573.28515625 -12 c 128,-1,19
 539.392578125 -12 539.392578125 -12 461.585275853 -22.7236328125 c 0,20,21
 452.786709039 -24.392578125 452.786709039 -24.392578125 443.346874761 -24.833984375 c 0,22,23
 363.673434033 -34.7861328125 363.673434033 -34.7861328125 340.011203512 -35.955078125 c 128,-1,24
 316.348972992 -37.125 316.348972992 -37.125 285.683993996 -37.125 c 128,-1,25
 255.0203622 -37.125 255.0203622 -37.125 223.693907731 -33.373046875 c 0,26,27
 170.356445312 -27.3818359375 170.356445312 -27.3818359375 139.966796875 -2.7138671875 c 0,28,29
 80.716796875 39.587890625 80.716796875 39.587890625 60.7099609375 139.139648438 c 0,30,31
 50.5185546875 191.802734375 50.5185546875 191.802734375 50.5185546875 264.625976562 c 0,32,33
 50.5185546875 364.379882812 50.5185546875 364.379882812 71.3193359375 525.383789062 c 1,34,35
 89.86328125 658.372070312 89.86328125 658.372070312 91 674.935546875 c 1,36,37
 91 637.668945312 91 637.668945312 91 675.782226562 c 1,38,39
 93.357421875 706.88671875 93.357421875 706.88671875 116.875976562 727.572265625 c 0,40,41
 140.39453125 751.090820312 140.39453125 751.090820312 173.474312702 751.090820312 c 0,42,43
 198.878473537 751.090820312 198.878473537 751.090820312 221.857673377 743.390625 c 128,-1,44
 244.838220417 735.690429688 244.838220417 735.690429688 261.8385442 720.62890625 c 0,45,46
 288.580475185 700.522460938 288.580475185 700.522460938 288.580475185 674.235351562 c 0,47,48
 288.580475185 665.383789062 288.580475185 665.383789062 278.339056578 604.899414062 c 1,49,50
 264.510042898 536.842773438 264.510042898 536.842773438 255.650852059 489.051757812 c 128,-1,51
 246.791661219 441.26171875 246.791661219 441.26171875 238.624931465 373.517578125 c 0,52,53
 233.737287857 303.255859375 233.737287857 303.255859375 233.700913442 281.892578125 c 0,54,55
 233.700913442 224.12890625 233.700913442 224.12890625 243.259301368 184.431640625 c 0,0,1
EndSplineSet
EndChar

StartChar: M
Encoding: 77 77 48
AltUni2: 00039c.ffffffff.0 00041c.ffffffff.0 0013b7.ffffffff.0 001d39.ffffffff.0 002133.ffffffff.0 00216f.ffffffff.0 00ff2d.ffffffff.0 00039c.ffffffff.0 00041c.ffffffff.0 0013b7.ffffffff.0 001d39.ffffffff.0 002133.ffffffff.0 00216f.ffffffff.0 00ff2d.ffffffff.0
Width: 777
GlyphClass: 1
Flags: W
VStem: 10 176.889<142.594 273.249> 302.787 1.56202<695.188 695.488> 539.752 189.24<223.153 324.907>
LayerCount: 2
Fore
SplineSet
304.021077283 730 m 2,0,-1
 304.021077283 724 l 2,1,2
 304.021077283 713.251953125 304.021077283 713.251953125 302.786885246 703.4375 c 1,3,4
 302.786885246 683.41796875 302.786885246 683.41796875 302.786885246 695.559570312 c 2,5,6
 303.361796966 693.265625 303.361796966 693.265625 304.348909543 689.619140625 c 0,7,8
 305.33602212 687.67578125 305.33602212 687.67578125 307.269268241 681.139648438 c 0,9,10
 309.201309097 669.717773438 309.201309097 669.717773438 325.550737796 599.228515625 c 0,11,12
 327.518936622 595.791015625 327.518936622 595.791015625 328.225222299 592.453125 c 0,13,14
 344.098571063 537.221679688 344.098571063 537.221679688 350.563616071 497.256835938 c 0,15,16
 352.825899718 480.750976562 352.825899718 480.750976562 355.140009788 466.07421875 c 1,17,18
 383.546916167 572.313476562 383.546916167 572.313476562 411.498232125 628.979492188 c 0,19,20
 434.53567998 673.952148438 434.53567998 673.952148438 457.420059097 700.822265625 c 0,21,22
 499.99968439 737.87890625 499.99968439 737.87890625 566.214569306 744.532226562 c 0,23,24
 583.78252159 746.000976562 583.78252159 746.000976562 586.394332278 746.000976562 c 128,-1,25
 589.004937701 746.000976562 589.004937701 746.000976562 589.119437939 746 c 0,26,27
 618.47006733 746 618.47006733 746 643.168371268 741.092773438 c 0,28,29
 660.060546875 736.494140625 660.060546875 736.494140625 672.577148438 727.887695312 c 1,30,31
 683.719726562 717.483398438 683.719726562 717.483398438 689.237304688 705.116210938 c 0,32,33
 696 682.607421875 696 682.607421875 696 645 c 2,34,-1
 696 637 l 2,35,36
 696 604.7578125 696 604.7578125 697.8125 589.836914062 c 1,37,38
 697.87109375 595.697265625 697.87109375 595.697265625 697.9296875 592.037109375 c 2,39,40
 700.69140625 531.619140625 700.69140625 531.619140625 702.05078125 520.998046875 c 0,41,42
 705.513671875 512.330078125 705.513671875 512.330078125 706.05078125 508.346679688 c 0,43,44
 706.587890625 503.344726562 706.587890625 503.344726562 709 493.991210938 c 1,45,-1
 709 489 l 1,46,-1
 709 487.543945312 l 2,47,48
 709.608398438 483.913085938 709.608398438 483.913085938 709.845703125 480.104492188 c 2,49,-1
 712.318359375 465.266601562 l 1,50,-1
 712.624023438 463.432617188 l 2,51,52
 713.551757812 453.235351562 713.551757812 453.235351562 715.029296875 445.844726562 c 0,53,54
 717.759765625 432.192382812 717.759765625 432.192382812 721 365.228515625 c 1,55,-1
 721 364 l 2,56,57
 721 342.966796875 721 342.966796875 724.931640625 292.342773438 c 0,58,59
 728.864257812 243.926757812 728.864257812 243.926757812 728.9921875 231.325195312 c 0,60,61
 732.830078125 166.248046875 732.830078125 166.248046875 743.16015625 115.649414062 c 0,62,63
 750.334960938 95.7763671875 750.334960938 95.7763671875 756.377929688 92.4140625 c 0,64,65
 777 55.251953125 777 55.251953125 777 4 c 0,66,67
 777 -10.6904296875 777 -10.6904296875 750.453125 -20.693359375 c 0,68,69
 726.907226562 -30 726.907226562 -30 693 -30 c 0,70,71
 672.05078125 -30 672.05078125 -30 656.593825472 -27.78125 c 0,72,73
 637.612096568 -23.4853515625 637.612096568 -23.4853515625 625.11831272 -17.609375 c 0,74,75
 583.572805364 13.5341796875 583.572805364 13.5341796875 561.770754812 85.611328125 c 1,76,77
 548.864770108 143.998046875 548.864770108 143.998046875 539.75175644 223.19921875 c 1,78,79
 539.75175644 221.705078125 539.75175644 221.705078125 539.75175644 222.362304688 c 2,80,81
 539.358839835 233.74609375 539.358839835 233.74609375 536.301080851 271.41796875 c 0,82,83
 533.243321868 310.135742188 533.243321868 310.135742188 532.303214652 325.651367188 c 1,84,85
 525.480205741 295.032226562 525.480205741 295.032226562 514.94859439 243.107421875 c 0,86,87
 496.103060506 152.84375 496.103060506 152.84375 484.098614516 133.922851562 c 0,88,89
 475.61595479 125.553710938 475.61595479 125.553710938 456.444999177 117.80078125 c 1,90,91
 424.128210992 107 424.128210992 107 383.009367681 107 c 2,92,-1
 376.838407494 107 l 2,93,94
 364.257844518 107 364.257844518 107 331.279365486 112.1875 c 1,95,96
 328.53618084 84.5546875 328.53618084 84.5546875 325.792996194 110.97265625 c 2,97,98
 283.878677547 119.802734375 283.878677547 119.802734375 263.12520812 137.161132812 c 0,99,100
 215.026671363 198.95703125 215.026671363 198.95703125 186.888539227 273.249023438 c 1,101,102
 187.74909891 246.30078125 187.74909891 246.30078125 197.212844884 199.205078125 c 0,103,104
 199.610118285 186.216796875 199.610118285 186.216796875 213.270599294 119.446289062 c 0,105,106
 226.931080302 50.5947265625 226.931080302 50.5947265625 233.672131148 1.51171875 c 1,107,108
 233.672131148 5.6376953125 233.672131148 5.6376953125 233.672131148 -7 c 1,109,-1
 233.672131148 -9 l 2,110,111
 233.672131148 -22.130859375 233.672131148 -22.130859375 212.027970397 -32.955078125 c 0,112,113
 198.087867755 -38.623046875 198.087867755 -38.623046875 180.03419341 -41.44921875 c 0,114,115
 161.980519065 -44.8505859375 161.980519065 -44.8505859375 139.369735253 -46 c 1,116,-1
 134.93676815 -46 l 1,117,-1
 132.468384075 -46 l 2,118,119
 104.302734375 -46 104.302734375 -46 81.6513671875 -37.9931640625 c 0,120,121
 66.1279296875 -27.873046875 66.1279296875 -27.873046875 61.8837890625 -23.7236328125 c 0,122,123
 57.6396484375 -18.8828125 57.6396484375 -18.8828125 49.603515625 -6.66015625 c 1,124,125
 38.111328125 67.392578125 38.111328125 67.392578125 34.884765625 86.9560546875 c 0,126,127
 31.4267578125 102.779296875 31.4267578125 102.779296875 31.0537109375 115.744140625 c 0,128,129
 27.2021484375 125.06640625 27.2021484375 125.06640625 25.3251953125 136.671875 c 0,130,131
 23.4482421875 153.719726562 23.4482421875 153.719726562 19.4189453125 180.642578125 c 0,132,133
 10 236.301757812 10 236.301757812 10 279 c 0,134,135
 10 365.487304688 10 365.487304688 33.7685546875 495.776367188 c 0,136,137
 50.376953125 585.287109375 50.376953125 585.287109375 101.936523438 718.185546875 c 0,138,139
 103.153320312 722.7109375 103.153320312 722.7109375 104.870117188 726.963867188 c 0,140,141
 107.198242188 735.95703125 107.198242188 735.95703125 113.456054688 747.958007812 c 2,142,143
 116.416015625 762.87890625 116.416015625 762.87890625 119.375976562 740.0703125 c 1,144,145
 122.947265625 700.848632812 122.947265625 700.848632812 126.518554688 744.83203125 c 1,146,147
 133.662802346 752.131835938 133.662802346 752.131835938 147.846368651 759.79296875 c 0,148,149
 162.029934957 762.873046875 162.029934957 762.873046875 176.899297424 764.215820312 c 1,150,151
 176.899297424 789.387695312 176.899297424 789.387695312 176.899297424 901.452148438 c 1,152,153
 213.617715804 792.221679688 213.617715804 792.221679688 250.336134185 761.032226562 c 1,154,155
 283.567719006 754.779296875 283.567719006 754.779296875 297.645221934 741.978515625 c 2,156,157
 298.399718238 722.79296875 298.399718238 722.79296875 299.154214542 738.719726562 c 1,158,159
 304.021077283 732.830078125 304.021077283 732.830078125 304.021077283 730 c 2,0,-1
EndSplineSet
EndChar

StartChar: N
Encoding: 78 78 49
AltUni2: 00039d.ffffffff.0 001d3a.ffffffff.0 002115.ffffffff.0 00ff2e.ffffffff.0 00039d.ffffffff.0 001d3a.ffffffff.0 002115.ffffffff.0 00ff2e.ffffffff.0
Width: 735
GlyphClass: 1
Flags: W
HStem: 737.857 20G<608.339 633.225>
VStem: 547.11 178.039<253.359 668.627>
LayerCount: 2
Fore
SplineSet
320.431394648 22.111328125 m 0,0,1
 320.431394648 -2.8271484375 320.431394648 -2.8271484375 285.704996859 -23.9609375 c 0,2,3
 250.452593695 -40.095703125 250.452593695 -40.095703125 193.55613644 -40.095703125 c 0,4,5
 161.140898304 -40.095703125 161.140898304 -40.095703125 136.201171875 -33.0185546875 c 1,6,7
 113.91796875 -23.6953125 113.91796875 -23.6953125 99.1513671875 -8.6669921875 c 0,8,9
 83.966796875 12.412109375 83.966796875 12.412109375 76.5673828125 34.3388671875 c 0,10,11
 47.265625 143.311523438 47.265625 143.311523438 40.0400390625 307.970703125 c 0,12,13
 37 383.983398438 37 383.983398438 37 441 c 2,14,-1
 37 443 l 2,15,16
 37 523.50390625 37 523.50390625 35.9501953125 540.278320312 c 0,17,18
 34.900390625 560.162109375 34.900390625 560.162109375 34.900390625 563.565429688 c 0,19,20
 34.900390625 575.043945312 34.900390625 575.043945312 56.7021484375 583.486328125 c 0,21,22
 62.076171875 585.6953125 62.076171875 585.6953125 68.599609375 587.508789062 c 1,23,24
 84.1640625 687.000976562 84.1640625 687.000976562 151.473632812 723.963867188 c 0,25,26
 176.944911816 729.25 176.944911816 729.25 214.724400467 729.25 c 0,27,28
 261.015384202 729.25 261.015384202 729.25 295.597412974 716.993164062 c 0,29,30
 318.801907831 702.7421875 318.801907831 702.7421875 344.350202293 673.819335938 c 0,31,32
 369.898496755 639.365234375 369.898496755 639.365234375 399.553148211 583.583984375 c 0,33,34
 429.206544284 530.338867188 429.206544284 530.338867188 475.645663184 424.66015625 c 0,35,36
 522.083526701 306.930664062 522.083526701 306.930664062 545.519011985 252.045898438 c 1,37,38
 547.109581937 289.884765625 547.109581937 289.884765625 547.109581937 334 c 0,39,40
 547.109581937 563.142578125 547.109581937 563.142578125 519.577782721 703.745117188 c 0,41,42
 518.287249248 714.0703125 518.287249248 714.0703125 518.287249248 724.407226562 c 128,-1,43
 518.287249248 734.624023438 518.287249248 734.624023438 536.296970262 743.448242188 c 0,44,45
 549.925405458 749.262695312 549.925405458 749.262695312 567.985341782 752.225585938 c 0,46,47
 595.372771981 757.857421875 595.372771981 757.857421875 621.305664062 757.857421875 c 0,48,49
 645.14453125 757.857421875 645.14453125 757.857421875 663.827148438 753.791992188 c 0,50,51
 695.4921875 745 695.4921875 745 701.239257812 730.004882812 c 0,52,53
 725.1484375 613.528320312 725.1484375 613.528320312 725.1484375 373.626953125 c 0,54,55
 725.1484375 220.287109375 725.1484375 220.287109375 712.668945312 118.146484375 c 0,56,57
 705.797851562 66.955078125 705.797851562 66.955078125 692.424804688 43.3681640625 c 0,58,59
 680.33203125 25.29296875 680.33203125 25.29296875 666.971679688 15.8857421875 c 0,60,61
 637.225585938 -3 637.225585938 -3 590.816987961 -3 c 0,62,63
 541.826931301 -3 541.826931301 -3 500.25744211 11.291015625 c 0,64,65
 476.316037576 21.8818359375 476.316037576 21.8818359375 452.520257441 40.455078125 c 0,66,67
 416.730550457 75.0966796875 416.730550457 75.0966796875 389.528916906 123.026367188 c 0,68,69
 377.568885392 146.465820312 377.568885392 146.465820312 337.247246661 234.237304688 c 0,70,71
 314.965458129 277.704101562 314.965458129 277.704101562 285.050942443 345.478515625 c 0,72,73
 268.420887078 387.448242188 268.420887078 387.448242188 254.326704879 422.087890625 c 1,74,75
 256.28133583 390.204101562 256.28133583 390.204101562 258.822230527 356.698242188 c 128,-1,76
 261.363125225 323.19140625 261.363125225 323.19140625 268.623003701 293.075195312 c 1,77,78
 273.999808044 267.077148438 273.999808044 267.077148438 276.691348673 248.563476562 c 0,79,80
 285.334658946 199.986328125 285.334658946 199.986328125 286.038928672 189.912109375 c 0,81,82
 288.194420863 164.366210938 288.194420863 164.366210938 300.814783707 123.811523438 c 0,83,84
 320.431394648 45.2841796875 320.431394648 45.2841796875 320.431394648 22.111328125 c 0,0,1
EndSplineSet
EndChar

StartChar: O
Encoding: 79 79 50
AltUni2: 00039f.ffffffff.0 00041e.ffffffff.0 000555.ffffffff.0 001d3c.ffffffff.0 00ff2f.ffffffff.0 00039f.ffffffff.0 00041e.ffffffff.0 000555.ffffffff.0 001d3c.ffffffff.0 00ff2f.ffffffff.0
Width: 870
GlyphClass: 1
Flags: W
HStem: -18.2158 121.335<310.97 450.792> 619.878 142.122<420.624 571.804>
VStem: 20.2002 182.991<207.679 404.866> 653.332 181.509<372.003 582.898>
LayerCount: 2
Fore
SplineSet
462.159834094 607.026367188 m 0,0,1
 447.408148859 603.545898438 447.408148859 603.545898438 432.963864294 603.545898438 c 0,2,3
 396.935323446 603.545898438 396.935323446 603.545898438 368.550418491 622.760742188 c 1,4,5
 344.942047026 607.801757812 344.942047026 607.801757812 321.224903016 578.451171875 c 0,6,7
 244.705782361 482.220703125 244.705782361 482.220703125 215.963819705 374.977539062 c 0,8,9
 203.191321861 328.166015625 203.191321861 328.166015625 203.191321861 290.198242188 c 0,10,11
 203.191321861 231.541015625 203.191321861 231.541015625 234.600576486 194.361328125 c 0,12,13
 293.53874343 123.857421875 293.53874343 123.857421875 348.99618894 107.154296875 c 0,14,15
 363.24302769 103.119140625 363.24302769 103.119140625 377.83983028 103.119140625 c 0,16,17
 401.087597113 103.119140625 401.087597113 103.119140625 427.745146764 113.247070312 c 0,18,19
 477.253206997 133.040039062 477.253206997 133.040039062 526.340364774 186.663085938 c 128,-1,20
 575.426340241 240.287109375 575.426340241 240.287109375 609.961623219 316.66015625 c 0,21,22
 653.332310842 410.263671875 653.332310842 410.263671875 653.332310842 493.475585938 c 0,23,24
 653.332310842 538.48828125 653.332310842 538.48828125 637.929172648 571.076171875 c 0,25,26
 630.750184691 586.494140625 630.750184691 586.494140625 619.857560176 597.290039062 c 0,27,28
 597.069712038 619.877929688 597.069712038 619.877929688 550.195839086 619.877929688 c 0,29,30
 513.444906663 619.877929688 513.444906663 619.877929688 462.159834094 607.026367188 c 0,0,1
811.700195312 600.959960938 m 1,31,32
 834.840820312 544.12890625 834.840820312 544.12890625 834.840820312 477.28515625 c 0,33,34
 834.840820312 378.267578125 834.840820312 378.267578125 788.833984375 269.892578125 c 0,35,36
 750.177734375 179.479492188 750.177734375 179.479492188 683.182098221 110.00390625 c 0,37,38
 608.74147902 40.5283203125 608.74147902 40.5283203125 517.241304939 8.9140625 c 0,39,40
 448.958157623 -18.2158203125 448.958157623 -18.2158203125 378.812871632 -18.2158203125 c 0,41,42
 328.814152637 -18.2158203125 328.814152637 -18.2158203125 278.493845248 -4.1875 c 1,43,44
 160.895354273 27.1484375 160.895354273 27.1484375 76.2587890625 127.384765625 c 0,45,46
 29.5244140625 186.387695312 29.5244140625 186.387695312 21.140625 267.705078125 c 0,47,48
 20.2001953125 281.18359375 20.2001953125 281.18359375 20.2001953125 294.481445312 c 0,49,50
 20.2001953125 346.6796875 20.2001953125 346.6796875 34.158203125 406.682617188 c 1,51,52
 66.6748046875 529.01953125 66.6748046875 529.01953125 147.463127299 636.536132812 c 0,53,54
 218.796635111 715.508789062 218.796635111 715.508789062 313.437025269 741.768554688 c 0,55,56
 355.660871931 754.997070312 355.660871931 754.997070312 406.825348852 759.692382812 c 2,57,58
 406.912839812 709.700195312 406.912839812 709.700195312 406.999148461 759.708007812 c 2,59,60
 433.357573614 762 433.357573614 762 498.320793693 762 c 0,61,62
 541.087320768 762 541.087320768 762 568.565393746 740.444335938 c 1,63,64
 622.502388249 737.704101562 622.502388249 737.704101562 671.969067623 722.500976562 c 1,65,66
 770.393554688 688.790039062 770.393554688 688.790039062 811.700195312 600.959960938 c 1,31,32
EndSplineSet
EndChar

StartChar: P
Encoding: 80 80 51
AltUni2: 0003a1.ffffffff.0 000420.ffffffff.0 0013e2.ffffffff.0 001d3e.ffffffff.0 002119.ffffffff.0 00ff30.ffffffff.0 0003a1.ffffffff.0 000420.ffffffff.0 0013e2.ffffffff.0 001d3e.ffffffff.0 002119.ffffffff.0 00ff30.ffffffff.0
Width: 743
GlyphClass: 1
Flags: W
HStem: 587.36 172.322<223.785 524.836>
VStem: 27 186.318<72.5692 287.37 434.788 564.33> 47.3359 213.5<-23.3249 61.6888> 539.101 186.256<513.671 595.078>
LayerCount: 2
Fore
SplineSet
260.835607442 -16.5 m 0,0,1
 260.835607442 -30.9482421875 260.835607442 -30.9482421875 229.096637275 -41.64453125 c 0,2,3
 197.380150441 -53 197.380150441 -53 151.279327501 -53 c 0,4,5
 114.302734375 -53 114.302734375 -53 87.427734375 -40.76953125 c 0,6,7
 60.552734375 -21.51953125 60.552734375 -21.51953125 47.3359375 19.1142578125 c 0,8,9
 27 100.991210938 27 100.991210938 27 324 c 0,10,11
 27 519.860351562 27 519.860351562 39.1279296875 694.044921875 c 0,12,13
 41.5966796875 707.890625 41.5966796875 707.890625 67.4326171875 716.89453125 c 0,14,15
 93.26953125 727.090820312 93.26953125 727.090820312 124.475585938 727.090820312 c 0,16,17
 135.290039062 727.090820312 135.290039062 727.090820312 146.083007812 725.92578125 c 1,18,19
 269.649073538 759.682617188 269.649073538 759.682617188 394.161765473 759.682617188 c 0,20,21
 522.006986822 759.682617188 522.006986822 759.682617188 612.602539062 728.8515625 c 0,22,23
 647.23828125 715.405273438 647.23828125 715.405273438 671.338867188 696.296875 c 0,24,25
 702.869140625 672.583007812 702.869140625 672.583007812 715.100585938 641.009765625 c 0,26,27
 725.356445312 611.98046875 725.356445312 611.98046875 725.356445312 584.560546875 c 0,28,29
 725.356445312 489.26171875 725.356445312 489.26171875 647.953125 418.30859375 c 0,30,31
 616.657226562 389.331054688 616.657226562 389.331054688 543.807075225 355.696289062 c 1,32,33
 490.410411091 335.357421875 490.410411091 335.357421875 422.540726598 314.892578125 c 0,34,35
 400.462094695 307.032226562 400.462094695 307.032226562 324.323540367 285.202148438 c 0,36,37
 250.454553484 286.51953125 250.454553484 286.51953125 222.979921931 287.440429688 c 0,38,39
 218.398318524 285.17578125 218.398318524 285.17578125 213.318334593 283.215820312 c 1,40,41
 216.131249226 180.713867188 216.131249226 180.713867188 222.252960867 118.052734375 c 1,42,43
 226.257492089 86.8017578125 226.257492089 86.8017578125 237.231856193 66.8154296875 c 1,44,45
 260.835607442 29.1748046875 260.835607442 29.1748046875 260.835607442 -16.5 c 0,0,1
393.219963682 587.360351562 m 0,46,47
 307.909459022 587.360351562 307.909459022 587.360351562 221.464795177 566.161132812 c 1,48,49
 216.43602328 507.662109375 216.43602328 507.662109375 213.870425298 434.788085938 c 1,50,51
 226.272480977 438.79296875 226.272480977 438.79296875 240.019789346 442.994140625 c 0,52,53
 251.866007097 448.279296875 251.866007097 448.279296875 293.079203501 460.36328125 c 128,-1,54
 334.29364898 472.446289062 334.29364898 472.446289062 343.666700225 474.9609375 c 0,55,56
 467.217605186 492.526367188 467.217605186 492.526367188 512.466559662 506.690429688 c 0,57,58
 539.100564419 542.786132812 539.100564419 542.786132812 539.100564419 585.842773438 c 0,59,60
 539.100564419 589.779296875 539.100564419 589.779296875 534.185458256 595.431640625 c 1,61,62
 534.044312894 589.0234375 534.044312894 589.0234375 514.338921578 576.595703125 c 0,63,64
 488.631729725 583.0078125 488.631729725 583.0078125 443.006803976 585.586914062 c 0,65,66
 418.280135207 587.360351562 418.280135207 587.360351562 393.219963682 587.360351562 c 0,46,47
EndSplineSet
EndChar

StartChar: Q
Encoding: 81 81 52
AltUni2: 00211a.ffffffff.0 00a7f4.ffffffff.0 00ff31.ffffffff.0 00211a.ffffffff.0 00a7f4.ffffffff.0 00ff31.ffffffff.0
Width: 834
GlyphClass: 1
Flags: W
HStem: -20 169<316.468 422.507> 676.101 77.1807<397.773 502.608> 683.787 67.2949<380.436 561.515>
VStem: 19.5137 178.71<292.492 512.529> 633.824 178.524<326.62 551.682>
LayerCount: 2
Fore
SplineSet
753.213867188 36.791015625 m 0,0,1
 765.900390625 16.8564453125 765.900390625 16.8564453125 765.900390625 -6.625 c 0,2,3
 765.900390625 -15.978515625 765.900390625 -15.978515625 763.811523438 -25.3779296875 c 0,4,5
 756.462890625 -58.447265625 756.462890625 -58.447265625 726.435546875 -78.46484375 c 1,6,7
 705.118164062 -90.900390625 705.118164062 -90.900390625 679.983160837 -90.900390625 c 0,8,9
 648.670740866 -90.900390625 648.670740866 -90.900390625 623.498244853 -77.6455078125 c 0,10,11
 604.32260661 -67.5478515625 604.32260661 -67.5478515625 589.901534725 -48.4716796875 c 128,-1,12
 575.480462841 -29.3955078125 575.480462841 -29.3955078125 544.609163619 2.7421875 c 1,13,14
 477.613651592 -20 477.613651592 -20 403.806996735 -20 c 0,15,16
 287.79223937 -20 287.79223937 -20 198.553511557 30.5009765625 c 0,17,18
 130.681640625 65.068359375 130.681640625 65.068359375 88.9140625 125.966796875 c 1,19,20
 19.513671875 230.4296875 19.513671875 230.4296875 19.513671875 366.560546875 c 0,21,22
 19.513671875 378.375 19.513671875 378.375 20.0341796875 390.373046875 c 0,23,24
 26.6435546875 547.439453125 26.6435546875 547.439453125 119.063476562 646.248046875 c 0,25,26
 177.942442547 703.383789062 177.942442547 703.383789062 261.230809103 729.345703125 c 0,27,28
 328.40276943 753.28125 328.40276943 753.28125 406.657590557 753.28125 c 0,29,30
 437.886555252 753.28125 437.886555252 753.28125 470.701170211 749.453125 c 1,31,32
 498.275985986 751.08203125 498.275985986 751.08203125 502.627582579 751.08203125 c 128,-1,33
 506.979179171 751.08203125 506.979179171 751.08203125 507.088863249 751.081054688 c 0,34,35
 592.975073359 751.081054688 592.975073359 751.081054688 660.876671252 713.975585938 c 0,36,37
 709.59375 688.966796875 709.59375 688.966796875 741.875 645.439453125 c 0,38,39
 812.34765625 552.694335938 812.34765625 552.694335938 812.34765625 411.0703125 c 0,40,41
 812.34765625 246.612304688 812.34765625 246.612304688 726.813476562 127.731445312 c 0,42,43
 716.466796875 112.317382812 716.466796875 112.317382812 703.424804688 97.87890625 c 1,44,45
 732.385742188 65.6630859375 732.385742188 65.6630859375 753.213867188 36.791015625 c 0,0,1
557.637724595 299.073242188 m 0,46,47
 576.20056266 288.49609375 576.20056266 288.49609375 588.126321759 271.805664062 c 1,48,49
 633.824047068 354.513671875 633.824047068 354.513671875 633.824047068 466.1328125 c 128,-1,50
 633.824047068 577.751953125 633.824047068 577.751953125 580.942014618 642.7265625 c 0,51,52
 565.208310447 662.909179688 565.208310447 662.909179688 546.689584456 673.34765625 c 128,-1,53
 528.170858465 683.787109375 528.170858465 683.787109375 503.086586603 683.787109375 c 0,54,55
 487.807117582 683.787109375 487.807117582 683.787109375 469.697322449 679.962890625 c 0,56,57
 446.641013821 676.100585938 446.641013821 676.100585938 443.119201127 676.100585938 c 128,-1,58
 439.596196214 676.100585938 439.596196214 676.100585938 439.369674748 676.10546875 c 0,59,60
 417.61646066 676.10546875 417.61646066 676.10546875 397.132959003 684.588867188 c 1,61,62
 325.043098417 680.327148438 325.043098417 680.327148438 275.695993062 629.80078125 c 0,63,64
 205.166746159 557.586914062 205.166746159 557.586914062 198.658426763 434.985351562 c 0,65,66
 198.224459322 420.279296875 198.224459322 420.279296875 198.223267103 415.340820312 c 0,67,68
 198.223267103 305.017578125 198.223267103 305.017578125 254.758256254 225.66796875 c 0,69,70
 281.599857809 190.00390625 281.599857809 190.00390625 314.466930371 171.172851562 c 0,71,72
 353.167526803 149 353.167526803 149 403.806996735 149 c 0,73,74
 413.806131151 149 413.806131151 149 423.153122187 149.813476562 c 1,75,76
 408.064408086 177.845703125 408.064408086 177.845703125 398.769874652 214.571289062 c 0,77,78
 396.656071705 222.924804688 396.656071705 222.924804688 396.656071705 231.346679688 c 0,79,80
 396.656071705 254.765625 396.656071705 254.765625 411.307241711 273.966796875 c 0,81,82
 436.155454361 306.532226562 436.155454361 306.532226562 481.211766254 312.279296875 c 0,83,84
 491.023722406 313.818359375 491.023722406 313.818359375 500.802296446 313.818359375 c 0,85,86
 531.761819818 313.818359375 531.761819818 313.818359375 557.637724595 299.073242188 c 0,46,47
EndSplineSet
EndChar

StartChar: R
Encoding: 82 82 53
AltUni2: 0013a1.ffffffff.0 001d3f.ffffffff.0 00211b.ffffffff.0 00211c.ffffffff.0 00211d.ffffffff.0 00ff32.ffffffff.0 0013a1.ffffffff.0 001d3f.ffffffff.0 00211b.ffffffff.0 00211c.ffffffff.0 00211d.ffffffff.0 00ff32.ffffffff.0
Width: 717
GlyphClass: 1
Flags: W
HStem: 582.223 168.601<253.696 453.971>
VStem: 55.7432 180.65<73.3174 269.527 423.999 574.801> 68.3984 0.275391<612.039 614.419>
LayerCount: 2
Fore
SplineSet
455.574120544 577.759765625 m 0,0,1
 455.574120544 580.540039062 455.574120544 580.540039062 444.912283815 582.159179688 c 0,2,3
 432.606591343 582.203125 432.606591343 582.203125 402.654610706 582.22265625 c 0,4,5
 372.701339758 586.682617188 372.701339758 586.682617188 343.159677901 586.682617188 c 0,6,7
 300.624588006 586.682617188 300.624588006 586.682617188 252.183746362 577.150390625 c 1,8,9
 243.263828982 501.977539062 243.263828982 501.977539062 239.075480679 423.999023438 c 1,10,11
 319.365059586 438.747070312 319.365059586 438.747070312 383.209629523 477.032226562 c 0,12,13
 445.7845338 511.548828125 445.7845338 511.548828125 452.94059655 547.443359375 c 0,14,15
 455.574120544 564.245117188 455.574120544 564.245117188 455.574120544 577.759765625 c 0,0,1
347.163511783 750.823242188 m 0,16,17
 404.632656901 750.823242188 404.632656901 750.823242188 457.265717779 741.987304688 c 0,18,19
 572.312394107 724.325195312 572.312394107 724.325195312 619.909179688 670.447265625 c 0,20,21
 652.71875 629.547851562 652.71875 629.547851562 652.71875 576.064453125 c 0,22,23
 652.71875 551.321289062 652.71875 551.321289062 649.49609375 524.807617188 c 0,24,25
 634.734375 425.479492188 634.734375 425.479492188 520.303843573 349.197265625 c 0,26,27
 486.415125205 328.1875 486.415125205 328.1875 447.145811514 311.1328125 c 1,28,29
 484.231919621 285.0390625 484.231919621 285.0390625 511.847147708 261.754882812 c 0,30,31
 539.463666107 248.754882812 539.463666107 248.754882812 590.998046875 221.607421875 c 0,32,33
 593.598632812 217.76171875 593.598632812 217.76171875 598.885742188 212.400390625 c 0,34,35
 606.586914062 202.9296875 606.586914062 202.9296875 612.96875 194.536132812 c 0,36,37
 619.349609375 187.322265625 619.349609375 187.322265625 622.685546875 183.72265625 c 0,38,39
 630.84765625 173.873046875 630.84765625 173.873046875 660.99609375 119.439453125 c 0,40,41
 665.18359375 110.896484375 665.18359375 110.896484375 667.836914062 101.211914062 c 0,42,43
 680.509765625 84.369140625 680.509765625 84.369140625 685.669921875 77.3046875 c 0,44,45
 698.315429688 56.3125 698.315429688 56.3125 704.465820312 20.318359375 c 0,46,47
 707 5.8203125 707 5.8203125 707 -13.46484375 c 0,48,49
 707 -24.8662109375 707 -24.8662109375 689.665039062 -33.5185546875 c 0,50,51
 676.721679688 -39.49609375 676.721679688 -39.49609375 658.463867188 -42.244140625 c 0,52,53
 640.20703125 -46 640.20703125 -46 622.85546875 -46 c 128,-1,54
 605.50390625 -46 605.50390625 -46 585.096791822 -41.396484375 c 1,55,56
 550.50098323 -33.0009765625 550.50098323 -33.0009765625 538.990122106 -24.7275390625 c 0,57,58
 533.081789734 -19.7236328125 533.081789734 -19.7236328125 529.614725074 -15.1865234375 c 2,59,60
 517.03806737 47.314453125 517.03806737 47.314453125 504.461409666 31.1279296875 c 1,61,62
 503.057551702 67.544921875 503.057551702 67.544921875 501.653693737 33.251953125 c 1,63,64
 474.321043677 67.4677734375 474.321043677 67.4677734375 466.732726866 74.20703125 c 2,65,66
 457.294104613 118.373046875 457.294104613 118.373046875 447.85548236 94.9599609375 c 1,67,68
 422.886681373 117.5546875 422.886681373 117.5546875 419.050587872 121.66015625 c 0,69,70
 386.822499285 152.994140625 386.822499285 152.994140625 355.882140705 180.453125 c 0,71,72
 286.99632714 240.961914062 286.99632714 240.961914062 236.392924881 269.52734375 c 1,73,74
 238.394196667 177.723632812 238.394196667 177.723632812 245.030264233 116.997070312 c 0,75,76
 251.561816639 81.5732421875 251.561816639 81.5732421875 261.144953682 68.328125 c 0,77,78
 270.728090726 40.9873046875 270.728090726 40.9873046875 270.728090726 16.2119140625 c 0,79,80
 270.728090726 8.6318359375 270.728090726 8.6318359375 263.165580128 0.541015625 c 0,81,82
 255.60306953 -4.1103515625 255.60306953 -4.1103515625 238.924514336 -7.404296875 c 0,83,84
 222.245959142 -11.220703125 222.245959142 -11.220703125 203.256457611 -13.0673828125 c 0,85,86
 172.862304688 -17.6455078125 172.862304688 -17.6455078125 165.84765625 -17.6455078125 c 0,87,88
 165.520507812 -17.6455078125 165.520507812 -17.6455078125 165.229492188 -17.6318359375 c 0,89,90
 150.66796875 -17.6318359375 150.66796875 -17.6318359375 136.581054688 -15.515625 c 0,91,92
 105.23046875 -10.787109375 105.23046875 -10.787109375 89.6318359375 2.28515625 c 1,93,94
 73.1982421875 34.6826171875 73.1982421875 34.6826171875 64.470703125 97.62890625 c 0,95,96
 55.7431640625 169.313476562 55.7431640625 169.313476562 55.7431640625 293.466796875 c 0,97,98
 55.7431640625 314.778320312 55.7431640625 314.778320312 56.0068359375 337.838867188 c 0,99,100
 58.826171875 496.69921875 58.826171875 496.69921875 68.673828125 614.418945312 c 0,101,102
 68.5341796875 613.201171875 68.5341796875 613.201171875 68.3984375 612.001953125 c 0,103,104
 58.5458984375 641.2578125 58.5458984375 641.2578125 58.5458984375 673.809570312 c 0,105,106
 58.5458984375 678.430664062 58.5458984375 678.430664062 62.201171875 683.000976562 c 0,107,108
 72.068359375 696.119140625 72.068359375 696.119140625 101.645507812 703.03125 c 0,109,110
 168.419921875 736.010742188 168.419921875 736.010742188 266.206842281 746.498046875 c 0,111,112
 307.754844544 750.823242188 307.754844544 750.823242188 347.163511783 750.823242188 c 0,16,17
EndSplineSet
EndChar

StartChar: S
Encoding: 83 83 54
AltUni2: 000405.ffffffff.0 00054f.ffffffff.0 0013da.ffffffff.0 00ff33.ffffffff.0 000405.ffffffff.0 00054f.ffffffff.0 0013da.ffffffff.0 00ff33.ffffffff.0
Width: 654
GlyphClass: 1
Flags: W
HStem: -31 169<65.7681 362.358> 605.768 152.172<380.551 540.64>
VStem: 446.508 187.307<218.978 299.922>
LayerCount: 2
Fore
SplineSet
602.49609375 634.6875 m 0,0,1
 596.9140625 623.297851562 596.9140625 623.297851562 587.633789062 614.541015625 c 0,2,3
 574.349609375 602.004882812 574.349609375 602.004882812 557.814453125 596.995117188 c 128,-1,4
 541.280273438 591.984375 541.280273438 591.984375 525.907226562 591.984375 c 0,5,6
 505.416029113 591.984375 505.416029113 591.984375 482.702387461 598.552734375 c 128,-1,7
 459.98874581 605.120117188 459.98874581 605.120117188 446.309216742 605.767578125 c 1,8,9
 424.091357844 600.052734375 424.091357844 600.052734375 373.888260402 581.515625 c 0,10,11
 276.282898496 541.6796875 276.282898496 541.6796875 241.269769633 514.6875 c 1,12,13
 276.875121182 498.12109375 276.875121182 498.12109375 389.059212656 469.606445312 c 1,14,15
 390.121410227 455.91796875 390.121410227 455.91796875 391.182249488 468.270507812 c 1,16,17
 457.402525639 449.866210938 457.402525639 449.866210938 485.898488335 440.6796875 c 0,18,19
 540.717773438 419.6171875 540.717773438 419.6171875 568.525390625 397.390625 c 0,20,21
 624.541015625 353.0234375 624.541015625 353.0234375 631.681640625 285.977539062 c 0,22,23
 633.814453125 272.5390625 633.814453125 272.5390625 633.814453125 258.569335938 c 0,24,25
 633.814453125 218.540039062 633.814453125 218.540039062 616.275390625 174.688476562 c 0,26,27
 597.0390625 125.250976562 597.0390625 125.250976562 561.786132812 80.73046875 c 128,-1,28
 526.533203125 36.2099609375 526.533203125 36.2099609375 474.070334316 13.072265625 c 0,29,30
 391.178174561 -26.4306640625 391.178174561 -26.4306640625 249.948005281 -29.9580078125 c 0,31,32
 191.101988222 -32.009765625 191.101988222 -32.009765625 147.243164062 -31 c 1,33,-1
 121 -31 l 2,34,35
 87.302734375 -31 87.302734375 -31 62.6513671875 -6.3486328125 c 128,-1,36
 38 18.302734375 38 18.302734375 38 53.5 c 128,-1,37
 38 88.697265625 38 88.697265625 62.6513671875 113.348632812 c 128,-1,38
 87.302734375 138 87.302734375 138 121 138 c 2,39,-1
 240.342044645 138 l 1,40,41
 287.900514633 140.127929688 287.900514633 140.127929688 313.011571517 144.186523438 c 128,-1,42
 338.121270091 148.244140625 338.121270091 148.244140625 348.103482297 152.13671875 c 0,43,44
 367.295028935 159.327148438 367.295028935 159.327148438 393.07980704 183.305664062 c 128,-1,45
 418.865943454 207.284179688 418.865943454 207.284179688 435.403354476 235.212890625 c 1,46,47
 446.316008287 266.100585938 446.316008287 266.100585938 446.507529844 272.578125 c 128,-1,48
 446.697693092 278.978515625 446.697693092 278.978515625 446.205985265 282.208007812 c 0,49,50
 444.491799416 293.814453125 444.491799416 293.814453125 434.76087436 300.120117188 c 0,51,52
 413.553597293 310.048828125 413.553597293 310.048828125 382.832724597 320.237304688 c 128,-1,53
 352.113210209 330.424804688 352.113210209 330.424804688 274.572787574 349.908203125 c 1,54,55
 274.197894314 362.448242188 274.197894314 362.448242188 273.821642745 350.370117188 c 1,56,57
 185.717651689 373.59765625 185.717651689 373.59765625 146.5 389.720703125 c 0,58,59
 41.861328125 442.5703125 41.861328125 442.5703125 41.861328125 517.919921875 c 0,60,61
 41.861328125 561.254882812 41.861328125 561.254882812 78.7734375 603.515625 c 0,62,63
 119.268554688 650.92578125 119.268554688 650.92578125 249.545945843 709.065429688 c 0,64,65
 290.403877961 724.9375 290.403877961 724.9375 319.523304448 733.499023438 c 0,66,67
 380.764020122 757.939453125 380.764020122 757.939453125 443.13620712 757.939453125 c 128,-1,68
 505.508394119 757.939453125 505.508394119 757.939453125 559.389648438 735.10546875 c 0,69,70
 576.79296875 728.014648438 576.79296875 728.014648438 587.918945312 715.770507812 c 0,71,72
 610.919921875 693.608398438 610.919921875 693.608398438 610.919921875 665.82421875 c 0,73,74
 610.919921875 649.711914062 610.919921875 649.711914062 602.49609375 634.6875 c 0,0,1
229.231077732 524.880859375 m 1,75,-1
 229.231077732 524.880859375 l 1,75,-1
EndSplineSet
EndChar

StartChar: T
Encoding: 84 84 55
AltUni2: 0003a4.ffffffff.0 000422.ffffffff.0 0013a2.ffffffff.0 001d40.ffffffff.0 00ff34.ffffffff.0 0003a4.ffffffff.0 000422.ffffffff.0 0013a2.ffffffff.0 001d40.ffffffff.0 00ff34.ffffffff.0
Width: 808
GlyphClass: 1
Flags: W
VStem: 159.69 201.738<-8.56624 203.729> 360.763 0.66576<-0.580043 3.02187> 586.424 3.97764<868.126 869.624> 590.402 13.3394<868.126 871.754> 604.344 5.84443<854.285 874.322>
LayerCount: 2
Fore
SplineSet
263.064380289 -24.15234375 m 0,0,1
 236.07030499 -24.15234375 236.07030499 -24.15234375 211.919301136 -19.62109375 c 0,2,3
 159.690399167 -12.7197265625 159.690399167 -12.7197265625 159.690399167 -0.2744140625 c 0,4,5
 159.690399167 1.8896484375 159.690399167 1.8896484375 228.009901412 648.142578125 c 1,6,7
 173.650810339 637.817382812 173.650810339 637.817382812 120.344726562 624.3359375 c 0,8,9
 108.010742188 618.295898438 108.010742188 618.295898438 92.7724609375 618.295898438 c 0,10,11
 76.353515625 618.295898438 76.353515625 618.295898438 61.2724609375 629.1171875 c 0,12,13
 27.15625 653.265625 27.15625 653.265625 15.6083984375 704.575195312 c 0,14,15
 11.41796875 723.7734375 11.41796875 723.7734375 11.41796875 749.559570312 c 0,16,17
 11.41796875 755.497070312 11.41796875 755.497070312 21.115234375 762.525390625 c 0,18,19
 36.162109375 773.435546875 36.162109375 773.435546875 70.82421875 777.298828125 c 0,20,21
 190.076102834 809.533203125 190.076102834 809.533203125 344.388548058 831.747070312 c 0,22,23
 390.953056088 838.333007812 390.953056088 838.333007812 414.354929344 842.33984375 c 0,24,25
 437.755594324 846.04296875 437.755594324 846.04296875 471.468887776 850.21484375 c 0,26,27
 505.182181228 855.102539062 505.182181228 855.102539062 526.109506961 860.094726562 c 0,28,29
 547.035624418 863.866210938 547.035624418 863.866210938 569.966270362 866.16796875 c 1,30,31
 578.195832462 811.419921875 578.195832462 811.419921875 586.424186286 869.624023438 c 1,32,33
 588.413007196 820.922851562 588.413007196 820.922851562 590.401828106 870.268554688 c 1,34,35
 596.130260629 871.896484375 596.130260629 871.896484375 603.741185847 872.5390625 c 2,36,37
 604.042046362 279.126953125 604.042046362 279.126953125 604.344115151 874.27734375 c 1,38,39
 607.266932758 889.635742188 607.266932758 889.635742188 610.188542089 873.8359375 c 1,40,41
 613.234603762 824.2421875 613.234603762 824.2421875 616.280665435 874.266601562 c 2,42,43
 616.370077796 874.276367188 616.370077796 874.276367188 627.621536065 877.213867188 c 0,44,45
 669.501953125 884.422851562 669.501953125 884.422851562 676.974609375 885.03125 c 128,-1,46
 684.447265625 885.505859375 684.447265625 885.505859375 692.287109375 885.505859375 c 128,-1,47
 700.126953125 885.505859375 700.126953125 885.505859375 712.555664062 883.1875 c 0,48,49
 739.09375 880.157226562 739.09375 880.157226562 756.232421875 870.678710938 c 0,50,51
 772.872070312 863.827148438 772.872070312 863.827148438 772.872070312 856.647460938 c 0,52,53
 772.872070312 808.10546875 772.872070312 808.10546875 751.173828125 768.662109375 c 0,54,55
 743.83203125 754.211914062 743.83203125 754.211914062 735.427734375 745.467773438 c 0,56,57
 733.849609375 746.178710938 733.849609375 746.178710938 732.991210938 746.584960938 c 0,58,59
 720.13671875 729.305664062 720.13671875 729.305664062 702.76953125 724.9921875 c 0,60,61
 684.20703125 721.615234375 684.20703125 721.615234375 680.708984375 721.399414062 c 0,62,63
 671.881835938 719.668945312 671.881835938 719.668945312 656.96875 715.592773438 c 1,64,65
 654.732421875 665.586914062 654.732421875 665.586914062 652.408092652 715.201171875 c 1,66,67
 651.227607823 805.670898438 651.227607823 805.670898438 650.048331269 716.102539062 c 1,68,69
 647.585866497 599.119140625 647.585866497 599.119140625 645.124610001 713.68359375 c 1,70,71
 643.150288393 663.735351562 643.150288393 663.735351562 641.175966785 713.404296875 c 1,72,73
 629.313121286 672.76953125 629.313121286 672.76953125 617.451484063 709.674804688 c 1,74,75
 545.273959238 696.426757812 545.273959238 696.426757812 436.900135513 680.830078125 c 1,76,77
 400.139572113 340.758789062 400.139572113 340.758789062 363.379008713 42.1826171875 c 1,78,79
 362.40393066 19.4599609375 362.40393066 19.4599609375 361.428852608 -9.46875 c 1,80,81
 361.095368665 -15.8466796875 361.095368665 -15.8466796875 360.763092996 3.6240234375 c 1,82,83
 354.243240245 28.546875 354.243240245 28.546875 347.724595769 -9.408203125 c 2,84,85
 314.402783468 -24.15234375 314.402783468 -24.15234375 263.064380289 -24.15234375 c 0,0,1
EndSplineSet
EndChar

